<svg xmlns="http://www.w3.org/2000/svg" xmlns:xlink="http://www.w3.org/1999/xlink" id="Layer_2" data-name="Layer 2" viewBox="0 0 168.39 184.61"><defs><symbol id="Student_Sensory_Superhero" viewBox="0 0 255.06 276.53"><g id="student_fill" data-name="student fill"><g id="body"><path id="Shape_ExpandingCurve" d="M168.6 253.3a49 49 0 0 1-13 2.9q-.5 0-.7-.6c-.5-2-1.6-4.4-2.5-6.6a45 45 0 0 0-12.2-15 91 91 0 0 0-10.7-7.6c-7-3.1-15.4-4.6-21.5-5-16.2-.7-22.7 8.2-33.9 20.8-4.4 5.1-5.8 11.5-8 18q-.3.6-.8.7c-5.6-.1-12.5-1.6-20-2.3-10.4-1-24.6-3.5-29.6-5.6q-.5-.4-.3-1.2a213 213 0 0 1 17-36.5 89 89 0 0 1 33.2-34.5l9-5.2c20-9.7 48.7-5.9 57.3-.4 4.9 3 6.6 2.7 10.5 7.1 9 10.2 18.6 21.7 22 34.8a96 96 0 0 1 4.7 35.4q0 .6-.5.8" class="cls-3"/><path id="Back_arm" d="M57.5 26.4a109 109 0 0 0-9.6 6.7c1 1.8 2 2.8 3 4.4 3.3 5.9 6.2 10.5 10.4 17 .3.5 5.2 6.7 8.5 12.2 5 8 10.4 16.1 10.7 16.5.3-.2 5.4-3.4 7.2-5 1.9-1.5 4.6-3 6.5-4.6v-.1q-.7-1.6-2.2-4.3c-1.6-2.7-4.5-8-6.9-11.8-6.3-10.5-13.3-21-17.9-28.4-1.4-2.2-3.6-4.4-4.3-5.5h-.3c-1.7.9-4.2 2.3-5 2.9" class="cls-3" data-name="Back arm"/><path id="circle" d="M46.8 27c7.8-1.3 15.3-6.3 13.5-13.5C58 5.1 54.8 1 46.8.1c-7.4-.9-12.6 6-13.4 13.4S39.4 27 46.8 27" class="cls-3"/><path id="shirt" d="M103.3 155.2q-.5-.4 0-1c1.4-1.6 5-6.2 9.3-10.5a77 77 0 0 1 16.8-12.3c9.6-5 16-4.7 20-3.6 7.5 2 10.4 8.3 11.6 13.6.8 3.8 2 7.9 1.3 12-1.4 9.7-4.2 20-9.3 31.2q-.2.5-.6.3c-7.2-4.8-23.1-13.9-35-20.9-6.9-4-12.3-7.8-14-8.8" class="cls-3"/><path id="circle-2" d="M136 118.5c23-3.8 45.5-18.6 40-40-6.6-25-16.2-37-40-39.8-21.9-2.6-37.4 17.9-39.9 39.9-2.4 21.9 17.9 39.9 40 39.9" class="cls-3" data-name="circle"/><path d="M160.1 181.7c.1 2.9.1 3 .5 3.1 2 .2 6.2-.4 11.5-1.7 6.3-1.5 11-6 15.6-12.6 2.2-3.2 3.7-9.3 3.5-15.2a31 31 0 0 0-6.6-17.2 32 32 0 0 0-26-10.7q-.5.1-.6.7a71 71 0 0 0 .5 13.1q.2.6.6.5a28 28 0 0 1 11.8 3.4c3 1.8 6.4 6.8 6.6 12.8.1 3-2 7.6-4 9a25 25 0 0 1-12.3 4.8q-.6 0-.7.6c-.4 5.8-.5 7-.4 9.4" class="cls-3"/></g><g id="goggles"><path id="shirt-2" d="m128.8 46.3-.3.3-5.5 1.7a54 54 0 0 1-8.1 1.3c-4.1.2-5.8-.5-6.6-1.3-1.5-1.3-.6-3.3.6-4.8q1.1-1.6 3-3.2a76 76 0 0 1 11.7-7.1c.6 2 2.5 6.1 3.8 9.2z" class="cls-2" data-name="shirt"/><path id="shirt-3" d="M140.4 73.8q0 .4-.4.5c-1.2.2-4.6 1.2-8.2 1.8-3.9.6-9.1.5-12.5 0-6.4-1-9.4-3.3-11-5.3-3-3.6-2.1-7.7-.8-10.7.9-2.2 1.8-4.5 3.5-6.3a68 68 0 0 1 15.6-12q.3 0 .5.2c1.7 4.9 6.3 15 9.6 22.5 1.9 4.5 3.2 8.1 3.7 9.3" class="cls-2" data-name="shirt"/></g></g><g id="shoe_soles" data-name="shoe soles"><path d="M60.8 272.1v.8c1.9-.1 1.8-3 .9-4.5q.7-.5 1.7-.6 1.3.2 1.6 1.6c0 .4.5.6.6.5q.3-.1.2-.6.1-2.2-2-2.4-1.6 0-2.7.8l-.2 1.6c.5.5 1.1 3-.1 2.8" class="cls-4"/><path d="m66.8 263-5.4-.3-.9 13.5 5.5.3z" class="cls-1"/><path d="M42.9 271.9v-.9h.2q.5-.4.4-1l-.1-.8-.2-.8v-1.8l1.8-.8h1.4q1 .2 1.7 1 .2 0 .3.2h.1l.3-.1.6-.5 1-.4q1 0 1.9.2l.6.1 1 .7.2.2.3-.1a7 7 0 0 1 3.2-1c1-.2 1.8.4 2.6.8l.2.1.5.5.1.2v1.7l-.2.3-.3.4-.2.6-.1.7v.2l.2.3.3.2v.9l-.6-.1-.4-.3-.3-.5v-1l.1-1 .1-.2v-.1l.3-.6q.4-.5.3-1c-.2-.8-1.4-1-2.1-1q-1.2 0-2.3.2c-.3.1-1.2.3-.8.7q.5.7.5 1.7 0 .8-.4 1.4-.2.4-.6.5l-.8.3-.8-.2q-.3-.3-.4-.8-.3-1 .2-2l.6-.9.1-.2-.1-.2-1-.6-1.1-.2a2 2 0 0 0-1.6.5l-.4.4v.1l.3.8a2 2 0 0 1 0 1.7l-.6.9q-.4.4-1 .4h-.2c-.6 0-1.1-1-1.2-1.5l.2-.7.6-1.1q0-.2.3-.5l.2-.2-.3-.3q-1.6-1.4-3.3-.3l-.5.5q-.1.4.2 1 .5 1.1.2 2.3-.2.7-1.2 1m10.8-1.7.2 1q.8 0 .9-.6v-1.2q0-.2-.3-.5l-.7 1zm-5.7.8.1.1.4-.1q.4-.5.6-1.1l-.3-1.2-.2.1-.8 1.4q0 .5.2.8" class="cls-4"/><path d="m43.5 261.6 17.9 1-.9 13.6-17.8-1z" class="cls-1"/><path d="m25 270.8.1-.8h.2q.4-.5.4-1l-.2-1-.1-.7-.1-.1v-1.7l1.9-.8h1.4q1 .3 1.7 1l.3.2h.3l.7-.6 1-.4q1 0 1.9.2l.5.1 1 .7.3.2.2-.1a7 7 0 0 1 3.3-1c1-.2 1.8.4 2.6.8l.2.1.5.5.1.2v1.7l-.3.3-.2.4-.2.6q-.2.4-.1.7v.2l.2.3.2.2h.1v.9l-.7-.1-.3-.3-.3-.4-.1-.9v-.2l.2-1v-.1l.1-.2.3-.6q.4-.4.3-1c-.2-.8-1.5-1-2.2-1q-1.1 0-2.2.3c-.4 0-1.2.2-.9.6q.6.7.6 1.7 0 .8-.4 1.5l-.6.5-.9.2-.7-.1q-.5-.3-.4-.9-.4-1 .2-2l.6-.9v-.4l-1-.6-1.2-.2a2 2 0 0 0-1.5.5l-.4.4v.1l.3.8a2 2 0 0 1 0 1.7l-.6.9q-.3.4-1 .5H30c-.7 0-1.2-1-1.2-1.6q0-.4.2-.7l.6-1.1q0-.2.3-.5l.2-.2-.4-.3q-1.5-1.4-3.2-.3l-.5.5q-.2.4.1 1 .6 1.1.2 2.3-.1.7-1.2 1Zm10.8-1.7.2 1q.7.2 1-.6v-1.2l-.4-.4-.7 1zm-5.8.8.2.1h.4q.5-.6.5-1.2t-.3-1.2l-.2.2q-.5.5-.7 1.4-.1.3.1.7" class="cls-4"/><path d="m25.7 260.5 17.8 1-.8 13.6-17.8-1z" class="cls-1"/><path d="M7.2 269.7v-.8h.2q.6-.4.4-1l-.1-.9-.2-.7v-1.8l1.9-.9h1.3q1 .3 1.8 1l.2.2h.4l.6-.5 1-.4q1-.2 2 .1l.5.2q.6.2 1 .7l.2.1.3-.1a7 7 0 0 1 3.2-1q1.4 0 2.7.9h.1l.5.5.2.3-.1 1.6-.2.4-.2.4-.3.6v.8l.1.3.3.2h.1v.9l-.7-.1-.3-.3q-.3 0-.4-.4v-1.1l.2-1v-.1l.1-.2.3-.6q.3-.4.3-1c-.3-.8-1.5-1-2.2-1l-2.3.3c-.3 0-1.1.2-.8.7q.5.7.5 1.6 0 .7-.4 1.5-.2.3-.6.5l-.8.2-.8-.1q-.4-.3-.4-.8-.2-1.2.2-2l.6-1 .2-.2-.2-.2-.9-.5-1.2-.3a2 2 0 0 0-1.5.5l-.5.4v.2l.4.7a2 2 0 0 1 0 1.7l-.6 1q-.4.4-1 .4H12c-.6 0-1.1-1-1.1-1.5l.2-.8.5-1.1.4-.5.1-.1q0-.3-.3-.4-1.5-1.4-3.3-.3l-.4.5q-.2.5 0 1 .8 1.2.3 2.3-.2.8-1.2 1M18 268l.2 1.1q.8 0 .9-.7v-1.1q0-.3-.3-.5l-.7 1zm-5.7.9h.6q.5-.5.5-1.2l-.3-1.2-.2.2-.8 1.4q0 .4.2.7Z" class="cls-4"/><path d="m7.9 259.4 17.8 1.1-.8 13.5L7 273z" class="cls-1"/><path d="M4.1 263.9q-1.1.1-2 .9c-.4.2-1 .8-.4 1.1q0 .2.2 0 .3 0 .4-.3t.6-.5l.5-.2.6-.1h1.3q1 0 1.5.5l-.1.3-.2.2-.2.6-.2.7-.1.6v1.2l.3.5h.2l.5.3h.2v-.8c-.6 0-.4-1.1-.4-1.6q0-.8.5-1.4l.1.2.1-1.6q-1-.6-2.1-.7z" class="cls-4"/><path d="m7.9 259.4-7-.4-.9 13.5 7 .5z" class="cls-1"/></g><g id="shoe_soles-2" data-name="shoe soles"><path d="M183 264.4v.8h.2c2.1-.2 1.9-3.1.7-4.6q.9-.6 2-.6 1.6.1 2 1.6.3.5.8.4.3-.1.2-.6 0-2.1-2.5-2.3-1.9 0-3.2.8l-.1 1.7c.6.5 1.4 2.8 0 2.8Z" class="cls-4"/><path d="m189.9 255-6.6-.1-.4 13.6 6.6.1z" class="cls-1"/><path d="M161.5 264.6v-.8h.2q.6-.4.5-1l-.3-.9-.2-.7-.1-.2v-1.6l2.2-1h1.7q1.2.3 2 1l.4.1.1.1.3-.1.8-.5 1.2-.5a6 6 0 0 1 2.3.1l.6.2q.8.2 1.3.6l.3.2.3-.1q1.7-1 3.8-1.2 1.8 0 3.2.9h.2l.7.5.1.2v1.7l-.2.3-.3.4-.2.7q-.2.3-.1.6v.2l.2.3.4.2h.1v.9l-.8-.1q-.3 0-.4-.3-.3 0-.4-.4t-.2-.8v-.2l.1-.7.1-.3.1-.2v-.1l.4-.6q.4-.6.3-1c-.3-.9-1.8-1.1-2.7-1l-2.7.3c-.4 0-1.4.3-1 .7q.7.7.7 1.7.1.8-.4 1.4-.2.3-.7.5t-1 .3l-.9-.1q-.5-.3-.5-.8-.4-1.2.2-2l.6-1 .2-.2-.2-.2-1.1-.5-1.5-.3q-1 0-1.8.6l-.5.4v.1l.5.8q.5 1 0 1.7l-.7 1q-.3.3-1.1.4h-.3c-.8 0-1.4-1-1.5-1.5l.2-.7.6-1.2.4-.4.2-.2q0-.3-.4-.4a4 4 0 0 0-4-.2l-.5.5q-.1.5.2 1c.4.8.8 1.6.4 2.4q-.1.6-1.4 1m12.9-2q0 .5.3 1.1 1 0 1-.7v-1.2l-.4-.4-.8 1zm-6.8 1 .2.1.4-.1q.6-.5.7-1.1t-.5-1.2l-.2.1-.8 1.5q-.2.4.2.7" class="cls-4"/><path d="m161.8 254.3 21.5.6-.4 13.6-21.5-.6z" class="cls-1"/><path d="M157.5 258.9q-1.3.2-2.5 1c-.3.2-1 .8-.3 1.1h.3q.3 0 .4-.3t.7-.5l.6-.3.7-.1 1.6-.1a3 3 0 0 1 1.8.6l-.1.2-.5.9-.2.6-.1 1.3.2.6.5.5.4.2h.5v-.8c-.8 0-.6-1.1-.6-1.5q0-.8.5-1.5l.2.2v-1.6q-1.2-.6-2.6-.6z" class="cls-4"/><path d="m161.8 254.3-8.5-.2-.3 13.6 8.4.2z" class="cls-1"/></g><path id="eyes" d="M128.2 55q0 .9-.5 1.9c-.7 1.9-2 3-3 2.7-1.1-.4-1.3-2.2-.6-4.1q.3-.8.8-1.5zm-10.5-15.2q-1.2-.3-2.6.8c-1.3 1-2 2.3-1.4 3q.6.8 2.2 0z" class="cls-4"/><g id="outline"><path d="M121 78.2c-9.4 12.4-12.6 1.3-10.2-.4m8-40.3-3.6 7.7M134 56.5l-10.8-2.9m19.7 25.8c-5.2 0-22.3 1.1-1 11.8-2.3-2.4-16 5.6-16 5.6-7.5 20 32 16.3 31.5 8.5M182 69.7c3.5-3.6 5.4 1.3 4.1 8.1a65 65 0 0 1-8.3 21.3c3.9-6.4 12.5-12.1 19.9-6.2 11 8.9-12 17.9-13.5 11.4-2.4-10.1 37.4 11.2 16.8 20.5m-19-55c6.3-10.1 5.6-31.2-3.5-35.6-3.3-1.6-7.8-.3-11.5 2.3 0-.6-2.7-6.2-3-6.8-5.3-9.4-23.8-13.8-29.3-4.5s17.5 20.4 17.5 20.4-14.5-.1-12 7c1 3.1 4.4 5.2 7.6 4.8M96.6 67.7c-6 .5-15.2 4.8-7 17.3-6.1-1.6-13.5 3.7-15.5 5-11 8.2-1 20.3 7.1 24.2 6.2 3 19.6 4.3 25.5.8M53.2 15.2c-1.9-2-4-4.8-6.5-6.1-4.3-2.4-7.5-.8-6.8 2.6.3 1.3 9 10.3 10.2 10.8m-1.7-1.6c-4.8 1.4-10.8 5.1-14.9 2.2-5-3.7-.2-16.6 7.4-20.3 6.3-3 14.7-.3 19.7 17.7m-17.3 2c-3.4-3.9 7.3 8 11.4 16.6m136 113a94 94 0 0 0 26.7 6q6 .5 12-.6c12-2.4 15.6-5.8 19.8-9.6 2-1.9 4.3-6 5.4-9.8s-1-8.2-8.2-2c-15.4 13 1 37.5 6.5 25.6 2.5-5.2-3.5-4.2-5.1-3.7-21 2.7-22.8 13.1-25.3 19.3-2 5.2-3.7 10.2-8.9 11.7-3.5 1-26.7 6-25.7 1 4.1-19.7 40 32.2-40.5 22.3M121.7 29l23.2 54m9.6 21.4c6.5-1.4 4.3-7 4.3-7l-26.9-61.9m-2 79.7A38 38 0 0 1 100 96.8c-10-16.8-.2-33.4-2-44.5-6.2-36.7 19-25.3 39.2-17.8m-37 187.4c11.2 0 20.4.6 27.9 2.8 12.5 3.7 20.7 12.2 26.8 30.9 27 1 33 1.4 33 1.4L172 245l8-15.5-37.5 13.5m-68.3-.9-54.2-27s-4.2 26-4.2 32.3a197 197 0 0 0-15.3 11l64.9 2.4m111.6-98a56 56 0 0 1-15.7 8.8c-3.7 1.6-1 .4-3.3 1.7-4.7 2.9-9.7 8-8.5 14.3 2.3 12.2 11.6 13 17.5 11.8 8.8-2 14.8-13 9.6-14.5-9.2-2.7-17.3 3-12.9 5.2s5.8.3 5.8.3m51.4-18c-8.5 0-22.2-7-29.8-14.5m8.6 10.3a41 41 0 0 1-9.3-5.6" class="cls-1"/><path d="M190.4 163.4c.3-.2 0 0 0 0m2 1.5c.2-.3 0 0 0 0m-.6-.8.1-.2zm2 1.2-.1.2zm2 1.4v-.2zv-.2zl.2-.2q0-.2 0 0-.3.1 0-.1l-.2.1zv-.2l-.2.3.1-.3q0-.2 0 0l-.2.2v-.3.2-.2.2-.2c.1-.3 0 .2 0 .2v-.2h-.2q.2-.2 0-.2v.2-.2l-.2.3.3-.4-.3.3.1-.2-.2.2.1-.2v-.2.2l-.1.1v-.2l-.1.2v-.2q0 .1 0 0v.1-.2l-.2.3.1-.2q0-.2 0 0v-.2s-.1.4 0 .2v-.2l-.1.1.1-.2h-.2l.2-.2-.2.2v-.2h-.2l-.1.1v-.1l-.1.2v-.4l-.1.2v-.1l-.2.2v-.2l.2-.2h-.1l-.1.1v-.1q0 .2 0 0-.2.1 0-.1l-.2.3v-.2.1-.4s-.1.3 0 0q-.1.2-.2 0l-.1.3v-.2l.1-.1-.1.2.1-.3v.1l-.1.1.1-.3v.1l-.2.2v-.3l-.2.2q0 .3 0 0l.2-.3h-.1l-.1.2v-.2l-.1.1.1-.1h-.2v-.2h-.1v-.2h-.1l-.1.2v-.2q.2 0 0 0l-.1.1.1-.2-.2.2v-.1l.1-.1-.1.2v-.2.1l-.2.1.2-.2-.1.1v-.1q-.1.1 0 0c.2-.3 0 0 0 0v-.1l-.1.1v-.2l-.1.2v-.1l-.1.1.2-.2h-.1v-.2h-.4l-.2.2.2-.2v-.2h-.2q-.1.1 0 0v-.2h-.2l-.2.2.2-.2v-.1h-.1l-.3.4.1-.3.1-.1v-.2l-.1.1v-.1l-.2.1.1-.1v-.1h-.3v-.1h-.1q-.4.5 0 .2l-.1.2h.1s0 .3.2 0l.1-.2-.1.2-.2.3v.1l.1-.1.1-.1-.1.2h.2v-.1l-.1.2h.2q.1 0 0 0 0 .1 0 0 .3-.2.1 0h.1-.1v.2h.1q.2 0 0 0h.1v.2q0-.2 0 0h.2s0 .3.1 0v.2c.1-.1-.1.2 0 0h.1v.2l.2-.4v.2q-.1 0 0 0l-.1.2.2-.2v.2l-.1.1.1-.1v.2l.1-.2v.2-.1h.2v.2l.1-.1v.1l.1-.1-.1.1.1-.1v.2l.2-.3v.1l-.1.1v.2-.1l.1-.1v.2h.1q0 .1 0 0 .1-.2.1 0v.3-.2.3l.2-.2-.1.2.1-.1.2-.2-.2.2h.2v.2-.1l.1-.1v.2l.2-.2q-.2.2 0 .2v-.3.1q0 .2-.2.3l.2-.1v.1l-.1.1.2-.3-.2.3.1-.1q0 .1 0 0h.1v.2-.1.1l.1-.1q0 .2 0 0 .2 0 0 0v.1c.1 0 .3-.3.2 0q-.2.1 0 0 .1 0 0 0v.2-.1q0 .2.1 0 0 .1 0 0v.2l.1-.2v.1-.1l-.1.3.1-.2h.1l.2-.3-.1.3-.2.2.2-.3v.2-.1.3-.1.1l.1-.2v.2l.1-.2h.1l-.1.2.1-.2.1-.1-.2.3.2-.2v.2-.2.2l-.1.2v-.2h.1v.1l.2-.1-.1.1h.2l-.1.1h.1l-.1.2.1-.2q0-.1 0 0h.2q-.2.2 0 .1v-.2h.1l-.1.2q0 .2 0 0h.1c0 .1-.1.4 0 .1-.2.5.2-.1.1 0v.1l.2-.3-.1.2.1-.1-.2.3h.1v-.1.2l.1-.1v.1q.1-.2.1 0 0 .1 0 0h.2zm.9.2-.2.1v.1-.4.1l-.1.1v-.1h-.1v-.1.2-.3.1l-.1-.2-.1.1q0 .1 0 0 0 .2 0 0l-.2.2.1-.2q0-.1 0 0c-.1 0 .1-.4 0-.2l-.2.5v.1q.2-.2 0 0h.1l.1-.1v.1q-.2.1 0 0v.2-.1.1l.1-.1v.1l.1-.1v.2h.1l.1-.1v.1-.1.2l.1-.3zm1.7.9q0-.1 0 0m-1.3-.6v-.2zm.4.3.1-.2zm.2.2v-.2zm1.5 1.1.2-.3v-.3q0 .1 0 0l-.2.2.1-.4v.2-.1s-.2.4-.2.2l.1-.2-.1.2v-.2q0-.2 0 0 0-.2 0 0h-.1v.2h-.1v-.1l.1-.2h-.1v-.1l-.1.2v-.2.1h-.1v-.1h-.1l-.1.1v-.2l-.1.2v-.4l-.1.4v-.2.1l-.1.1v-.2.1-.2q-.2 0-.2.3v-.3.1l-.1.1v-.2.2h-.1v-.2l-.1.2v-.3l.2-.3-.2.4v-.2h-.1v.1-.2h-.2.1l-.2.3.1-.3q0-.1 0 0l-.2.2v-.2.2s.2-.6 0-.3v.1-.2.1-.2l-.1.2v-.2.2-.2l-.1.1q0-.2 0 0h-.1l.1-.2h-.1v.1q-.1.1-.1 0 .1-.2 0-.1v-.1.2l-.1.1v-.2l-.1.1v-.1q0-.1 0 0h-.1l-.2.3v.2l.1-.2v.2-.1.2-.2h.2l-.2.2.2-.1.1-.1v.1h.1v.1h.2v.2h.2v.1-.2.2l.1-.1v.1-.1h.1l-.1.2.1-.2v.3h.1l.1-.1v.2q0-.1.1 0h.1l.1-.2v.2-.1.2-.1h.1v.1l.1-.1v.1-.1q0 .2 0 0v.2h.1q0-.2 0 0h.1l.1-.2v.1c0 .2.1-.2 0 0q0 .2 0 0v.1h.1v.2l.1-.2v.2-.2.2l.1-.1v.2l.1-.2v.2c.1-.4 0 0 0 0l.1-.2v.1h.1v.2l.1-.1s0 .3.1 0Zm-7.6-9.3q.2-.1 0 0m5.9 4.8q.1-.3 0 0m8.7 3.9-.2.1zm-13.9-8.8.1-.2zm9.5 6.9v.2zm1 .6v-.1Zm5.4 2.7-.2.2v-.2.2h-.2v-.2l.2-.1q0-.3 0 0-.2 0-.2-.2v.2h-.2l-.2-.2-.3.2.2-.3q0-.2-.1 0h-.1l-.2-.1v.2-.3h-.1v.2-.2l-.2.1v-.2.2-.1q0-.2-.3-.2h-.1v-.1l-.2.1.1-.2-.1.1h-.1v-.2l-.2.3q-.1-.2.2-.5l-.3.3v-.2l-.2.2v-.4h-.2l-.1.2-.1-.1v-.1h.1-.2q0-.4-.2 0v-.2l-.2.2v-.5l-.1.2v-.2l-.2-.1v.2q-.2-.2 0-.3h-.4l.1-.3-.2.2v-.2h-.2l-.1-.2h-.3l-.2-.1h-.2v-.1l-.2.2v-.3l-.1.1v-.2h-.2v-.2l-.2.1v-.2h-.2l-.2.2v-.2l.1-.2h-.1l-.1-.1c-.1-.1-.2.3-.2.1v-.2q-.1.1-.1 0t-.1 0-.1-.2c0-.2-.1.2-.2.3v-.2.1-.3h-.3v-.3s-.1.3 0 0h-.4l-.2.2v-.2l.1-.2-.2.2.1-.3h-.1l-.1.2q0-.3.2-.3h-.2l-.2.1h-.1l.1-.2-.2.1q.2-.2-.1-.3l-.2.2q0 .2 0 0v-.4h-.3v-.2l-.3.1.2-.2h-.4v-.1h-.3v-.3h-.2q0-.2-.2-.2v-.1l-.1-.2h-.2l-.1.2v-.4l-.3.2.2-.3h-.3q-.1 0 0 0v-.1h-.1l-.1.2v-.3.2h-.2v-.2.1h-.1v-.2q-.2 0 0 0c0-.3-.2 0-.2 0v-.2h-.1v-.1h-.3l.1-.1h-.3l.2-.2h-.2l-.2-.4-.3-.2h-.4v-.1l-.1-.1h-.1l-.2.1.1-.2v-.1l-.1-.1h-.1l-.1-.2h-.2q-.2.1 0 0 0-.2 0 0-.1-.1 0-.2l-.1-.1-.1-.2h-.1l-.4-.2-.2.1.1-.1v-.1l-.1-.2h-.2l-.3.3.1-.2q.3-.1.1-.2h-.1v-.3a.1.1 0 0 0-.2 0v-.1h-.1v-.1h-.2q-.1.2-.1 0v-.1l-.1-.3h-.2v-.1l-.2-.1h-.2v-.2l-.1-.1h-.1c-.2.1-.3.5 0 .2v.3q.3 0 .4.3s0 .3.3 0h.2l-.2.2-.3.3h.2v.2l.2-.2h.1l-.1.2h.1v.2h.3l-.1.1.1-.1-.1.2h.2v.1h.1l.1.1h.2v.1h.2q-.2.1 0 .2h.1-.1.1v.2l.2.1v.2l.2-.2q-.1.3.1.2v.2q.1.1.2 0l.1.1h.1q0 .2.2.2v.1h.1q.2 0 0 0 0 .4.2.1 0 .3.2.3s-.1.3 0 .1h.3v.3l.3-.3-.2.2h.1v.2l.1.1h.4l-.1.1v.1h.2v.2h.3v.2h.4q0 .2.2.1v-.1.2h.1v.2l.2-.1v.2l.2-.1-.1.1h.1v.2l.3-.3v.5h.3v.2h.2v.1h.3v.2l.2-.1v.4h.1q.1-.2 0 .1s.2-.3.2-.1v.2l.2-.1.1.1h.1v.2-.1l.3-.2-.2.2h.1v.2l.2-.1v.1h.1v.1h.1v.1h.2v-.1.2l.2.2h.2l.1-.2v.2l.1-.3v.2l-.1.3.2-.1v.3l.1-.4v.3h.1q0 .2.1.1h.2v.2l.1.1s.3-.4.2 0q.1-.1.1.1h.2s.3-.2 0 0q0 .2.2.1v.1h.2v.2h.3q-.1 0 0 0v.2l.2-.2v.2l.1-.2-.2.4.2-.2h.2l.1.1.2-.3-.1.3v.3-.4q0 .3.2.3v-.1.2q.1-.2.2 0l-.1.1h.1v.1l.2-.1v.2h.1l.1-.2h.1v.2l.1-.1v-.2h.2l-.2.4.2-.2v.2l.1-.2v.2q-.2.3 0 .2v-.1h.1v.1h.2v.1l.1-.2v.1l.1.1.1.1h.2v.2l.1-.1v.2l.1-.1v.1l.2-.1v.1h.2v.2l.2-.3q0 .2 0 0h.1l-.1.3q0-.1 0 0h.1q0 .2.2 0 0 .1 0 0 0 .4.3.3c-.3.4.1-.2.1 0v.1l.3-.3q-.2.2 0 .2v.2h.2v.2h.2l.2.1q0-.1.1 0h.4v.2l.1-.1v.1zm1.8 1.2q0-.2-.1 0m.8-.4h-.2v.1l-.2.1-.1-.2v-.3l-.1.1h-.2v.1h-.1v-.2h-.2v-.1l-.2.2v-.3.1h-.1l-.3-.3h-.1q0 .1 0 0h-.2q0 .2 0 0l-.2.2.1-.2h-.2c.2-.3 0 0 0 0-.2 0 0-.5 0-.4l-.2.6v.1h.1l.1.2q.3-.1.2 0h.2v-.1.1q0 .3.1.1l.2.2v-.1h.1v.2l.1-.2.1.2h.4-.1v.1h.2l.1.2q0-.1.2 0v-.2.2l.2-.2q-.2.1 0 .1v.2l.2-.4zm.2.5.1-.2zm1 .1q0 .2 0 0v-.1zm1.7.6v-.2zm.9.3v-.2zm.3.2v-.2zm5.7 1v-.6h-.1q0 .2-.1.1h-.2l-.1.1-.1-.3v.2-.2s-.1.5-.2.3v-.2l-.2.2v-.2q0-.2 0 0 0-.3-.1 0-.1-.2-.2 0h-.2l.1.3h-.1v-.4l-.3.1-.1-.2-.1.3v-.1.1-.2h-.3v.1q0-.2-.1-.1h-.7v-.1h-.2v-.1h-.2v.2-.4q-.2.1-.2.4v-.2l-.1.1-.1.1q-.2 0-.1-.2h-.1a.1.1 0 0 1-.2 0v-.1h-.1l-.1-.1v.3q0-.1-.2 0v-.3l-.1.2h-.2v-.2h-.1v.2h-.2v-.2l-.2.2v-.7l-.2.4q0 .2-.1 0v-.3.1h-.4v-.1q-.2-.2-.3-.1v.1-.2l-.1.1-.2.3v-.3h.1-.1l-.2-.1v.3l-.1-.2-.1.2c0-.1 0-.6-.1-.4v.2h-.1v-.3l-.2.1v-.2l-.1.2v-.3h-.1v.3l-.1-.1h-.1v-.3l-.2.2v-.1h-.2v-.2h-.3q-.1.2-.1 0v-.1h-.1v-.1.2l-.2.1v-.2h-.4q-.2 0 0 0 .1 0 0-.2h-.1l-.1.1h-.1l-.3.3h.1l.1.2.2-.2v.2h.1v-.1.2h.2l.2-.1-.2.2.2-.1h.1q0 .2 0 0l.1.2.1-.2v.1h.2v.1h.3q.1 0 0 0v.2h.3l.2-.1v.2h.3v.2h.4v.1l.2-.2v.2h.3q0-.2 0 0v-.1.1h.2v.2l.1-.2c0 .3.2 0 .2.3h.6v.2q.3-.2.5 0l.1.1h.1l.1-.2v.1h.1v.1l.1-.2v.2l.1.1.1-.2h.2v.2l.2-.1v.1-.2.1h.3v.2l.1-.1h.3l.2-.2v.3c0 .1.2-.3.2-.1q0 .2.1 0v.1h.3l.2.2v-.2.2l.1-.1v-.2l.1.3q0-.2.2-.1h.2l.1.1v-.1q.2 0 .2.2c0-.4 0 0 0 0l.2-.2h.3l.3.2h.1c.2-.1.3.2.4 0Zm-56 17.1c-.1.4.3.1 0 0m13-1c.3 0 0-.4 0-.1m-.7 2.2-.1-.2zm-15 9.3h.3zm-8.1-3.4q.2 0 0-.1zm-.5-.3h.2q-.2-.3-.2 0M166 191h.2v.2q-.3 0-.2-.2m-2.6-.7h.2q0 .2-.2.2zm14.6-3.5v-.3zm-8 11.2v.2q-.2 0 0-.2m-2.4 1.2v-.2zm-3.7.7h.3zm-11-4.1v.2zm-3.2-6.1v.6q.1-.2.2 0v.3l.2.1v.3l-.4-.2.1.2c.2 0 .3.5.2.6h.2l.1.1c-.2.1.2.8.2 1q.2.3.6.4h-.3v.2l.1.2h.2v.2l.2.3q.2.2.3 0v.5q0 .2 0 0s.1-.3.2 0v.4l.1-.2v.3c0 .4.2-.2.2-.1 0 0 0 .4.1.3l.4.7.4.2v.2h.3s-.4.2-.2.2q.3.1.4 0l.1.2v.3l.4-.1c.3 0 0 .5 0 .6l.5-.1v.3h.6c0 .1-.3.2 0 .3q.3 0 .2.3h.4l.2-.1h.2v.2l.2.1-.1.1h-.1.5q.1.1 0 .2h.3q.2.4.3 0h.1v.3l.5-.1v.2q0 .3.3 0v.3s.1-.4.2-.2l.2.3h.2l.5.2q.2-.1 0-.2.3 0 .3.2l.2.2h.6l.4-.1-.2.3.6-.3q0 .2.2.2h.5q.3-.2.6.1h.2l.4-.1h1.1q.2-.2.5-.2c.3 0 0 0 0 .1v-.1l.2-.2.1.1h.5l.1-.1h1l.4-.1.1-.2h.4l.5-.2v-.3l.2.1h.4v.2l.3-.3h.5c.2 0-.1-.4.2-.4h.4s.1-.4.2-.2q.3.2.3-.2l.4-.1q.2 0 0-.3h.3v-.2l.3.1q.5-.2.7-.5l.2-.2.2.1c.2.2-.2-.3.1-.2l.1-.1c.1-.1.5-.7.6-.6v-.4h.6l.1-.4.2.2q.2 0 .1-.3-.1 0 0-.1l.3.1v-.3l.2-.1v-.2l.2-.1v-.2l.1-.1s-.1.4 0 .2q.3-.2.2-.4c.2.2.6-.5.7-.6l-.1-.3v-.1q.5 0 .7-.3t.1-.4l.1-.4q-.1.3.1.1l.3-.5q.1-.3 0-.4l.2.1.1-.1v-.4l.2-.2v-.6h.2v-.5l.1.1v-.5h.2l.2-.4-.1-.1v-.4c.2 0 0-.5 0-.6v-.5c0-.1-.2-.7 0-.7q-.2-.3-.3-.1l-.3-.1.2-.2-.2-.3-.3-.1v-.2h-.4c-.2 0 .1-.1 0-.2h-.7c0-.1-.5-.1-.2-.2q.2 0 0-.1h-.2v.2s-.3-.5-.4-.4v.2l-.2.1-.2-.3-.3.1h-.2v-.2l-.2-.1c-.2 0-.3.3-.4 0 0-.3-.1 0-.3 0l-.3-.2-.1.2-.2-.2h-.5l-.2.2v-.2h-.2q0 .1-.2 0v.1l-.3.1v-.3l-.4.2-.2-.2h-1.6l-.6.1-1 .3-.2.1-.2.1h-.5l-.3.2v.3l-.2-.2h-.3l-.6.2-.2.1q-.2.2-.6.2l-.1.3q-.1.1-.2 0-.2-.1-.2.1t-.3 0q-.3 0-.4.3s-.4.4-.5.3l-.2.3-.7 1 .1.4h-.2v.1l-.1.2v.6l.3.4.4-.2v.3q-.4 0-.1.2l.2.2h.2l.1.5h.4l.4.1h.2v.2h.3l.3.2q.1.1.3-.1h.2v.2l1.2.3h.3q.1-.2.2-.1l.1.1h.9l.2-.3.1.1h.4l.5-.4v-.2c0-.2-.6-.1-.3.1q-.2.2-.6 0v.1l-.3.1q-.7.2-1.3 0c-.2 0-.8-.3-.9 0l-.1.2v-.7h-.3l-.2-.2-.3.2h-.3v-.3h-.4v-.1l-.5-.2h-.3v-.2l-.2.1.1-.3h-.3v-.3h-.2v-.1h-.1v-.6q-.1 0 0-.2.3 0 0 0v-.3q.3 0 .3-.2v-.3l.1.2.1-.3.3-.2h.2l.3-.3q0-.2.2-.2h.3v-.3q.3.2.5-.2h.3q.2-.2.3-.1.2 0 .2-.2l.4-.2.4-.1q.3 0 .5-.2h.4l.3-.1.3-.1q.3.1.4-.2c0 .3.7.1.8 0s.4.3.5 0l.2-.1h.5l.6.1q-.3-.1-.1-.4v.2h.3l.2.2.2-.1.4.1h.6v-.3q.2 0 .2.3l.1-.1.1.2.3-.2.2.2v-.2l.1.3h.8q.3 0 0-.1l.4.1q0 .3.3.2h.9l.3.1.3.1q.3 0-.1-.2l.2.2.1.2.3.1v.2h.3v.3l.1.3q.1-.1.2 0h-.1l.2.1v.6h.3l-.1.2-.1.2-.2.4.1.2h-.1l.2.6q-.1.2-.4.3h.1l-.2.2v.7q-.2 0-.2.4v.2q-.3 0-.3.2v.5l-.4.1v.2l-.3.2q0 .3-.3.3s.4.1.1.2l-.2.2h-.2c.2.1-.2.4 0 .5l-.4.3v.3l-.2-.1v.5l-.2-.2v.2l-.2.2h-.2v.3h-.2l-.3.3-.2.2v.1h-.2l-.4.5.1.1h-.3l-.6.4-.2.3v.3s-.5-.1-.4 0l.4.2h-.3q-.3 0-.4-.2l-.2.4h-.4l.2.2-.3-.1-.3.3s-.5 0-.5.2l-.3.2c0 .3-.2 0-.3 0l-.2.2h-.1q-.1-.1-.2 0h-.1c-.2 0 .1.5-.1.3h-.4q-.1.4-.3.1-.2.2-.5.2c.1 0-.3.4-.2.1q0-.2-.3.1h-.4l-.4.2-.1-.2-.3.1v.1h-.1q-.3 0-.4.2l-.1-.2-.2.1v-.1h-.3q-.2 0-.2.3l-.2-.1v.2l-.2-.4-.2.2q-.2.2-.5.1h-.4v.4-.3l-.3-.1v-.2.4c0-.2-.6-.3-.7-.3v.2q-.1-.2-.4-.2-.1.2-.2 0 .2 0 0-.1h-.3l-.4-.1q-.4 0-.1.2l-.3-.1-.2-.2h-.1l-.1.2-.2.1c-.1 0 .2-.2 0-.3 0 0-.5 0-.4.2v.2h-.3l.2-.5h-.3l-.1.1-.2-.2-.3.2v-.3l-.2-.2v.1h-.3l-.2-.2h-.3v-.2l-.4.1.1-.1h-.3l-.2-.3h-.2l-.2-.2h-.4l-.1-.4h-.3v-.3l-.2.1q-.4 0 0-.2c-.2.2-.4-.2-.5 0l-.1-.3h-.2q0-.2-.3-.2s0-.5-.1-.4q-.1.2-.2.1l-.2-.1h-.1l.2-.2-.2-.1v-.2h-.1l-.2-.2q.1-.2-.1-.2 0-.2-.2-.2l-.2-.4q0-.3-.3-.3c.5-.3-.3-.1-.2-.3v-.3h-.5q.2-.1.1-.3h-.2l.2-.3-.1-.1-.3-.3v-.7q-.3 0-.3-.2v-.2s-.1-.5-.2-.4-.1-.3-.2-.4v-.3h-.1v-.2l-.2-.2v-.6h-.2l.1-.2c0-.2-.3.2-.3.3Zm0-6.3.1.2zm.2-2-.1.4v.6l-.3.4-.2.2-.2.2h.2l-.2.3.1.4v.2l-.2.4v.4l-.1.2.2.2c0 .2-.3-.1-.3.1l.1.2v1.6l.1.2q.2.2 0 .2v.3q.4 0 0 .2h.4l-.2.2v.2c.1.1.3.5.1.4q-.1.1.2.4c0 .2-.4.3-.2.4q.3-.2.4-.5t0-.3v-.6q-.2 0 0-.2c-.1-.2-.4-.4-.1-.5q-.2-.1-.2-.4l-.2-.1.2-.2v-1.4l-.1-.2.2-.3v-1 .1q.3 0 .2-.3l-.1-.1v-.3q.3-.1.3-.4v-.6q.1.1.2 0l-.1-.2c0 .2.1-.2.2-.3h.2q-.1-.4-.4-.2zm4.8-6q-.3 0-.1.1zm10.2-5.3q-.4 0 0 0m-14 10.2q-.2.1-.2-.1zm1.9-2.8v.2q-.4 0-.2-.2zm4.3-3.5-.1-.2s.3.1.1.2m2.5-1.5q-.2.1 0-.1zm1.2-.3q-.3 0-.1-.2.4 0 0 .2m16.2-8.8c.1 0-.3-.5-.4-.4l-.3.2q.1.3-.1.3l-.5.4-.1.3h-.5v.2h-.2q.2.2 0 .4l-.2-.2-.2.2c-.1 0 .2.1 0 .3l-.3-.2q-.2 0-.2.2-.1-.1-.3.2c0-.2-.5.3-.6.3q.5-.1 0 .2l-.4.2c0 .2.5 0 .6-.1l-.4.2h-.4q-.3 0-.5.3h-.5v.5h-.3v.1-.2l-.4.2-.3.3v.1h-.3l-.3.3-.3.1h-.2l-.1.1-.4.2q-.4.1-.4.4h-.5q0 .2-.3.3l-.1-.1h-.2l-.2.2v.2h-.3l-.3-.1v.5h-.3l-.2.2v.2q-.1-.2-.3 0h-.5v.2l-.4.1h-.2q-.3 0-.4.2h-.3q0 .2.2.3h-.4q0 .2-.2 0v.1l-.2.2q-.3 0-.3.2h-.2v-.2l-.6.2h.1l-.2.2h.2q-.1.3-.3.2v-.2l-.6.2.1.3h-.4l.2-.2-.5.1-.1-.3-.1.5-.2.1-.2.2v-.4l-.3.2v.1l-.3.1q-.4.1-.7.4h-.3l-.6.4v.2q-.1-.2-.3 0v.1l-.1.2v.3l-.3-.2.2-.1-.4.2q-.3 0-.6.4l.2.1h-.2l-.1.4c0-.1-.8-.2-.7 0h.2l-.1.2c-.2.1-.2-.2-.3 0l-.3.1v.2h-.2c0-.1-.2.5-.3.4h-.3l-.2.2h.3l-.3.2-.1.1v.1l-.2-.2v.2l-.1.2-.2-.1v.4l-.2.1h-.2l-.2.3v.2q0-.2-.2-.2l-.2.3-.2.3v.1l-.2.2-.1.2h-.3v.2l-.2.1.1.1h.2l-.1.2h-.3l-.2.2v.4l-.3.5h-.2l-.2.3q-.2 0 0 .2l-.1.2v.2l-.2.2q0 .3.2.5v-.2l.2-.1.3-.4-.1-.3.2-.2h.1v-.3q.2.2.3 0v-.4l.2-.4.1.3.2-.6.2-.1.1-.2.2-.1v-.3h.2q.2 0 .2-.3l.1-.1h.1l.1-.3h.2l.3-.6h.3l.2-.2.1-.2.3-.2.1-.3h.4l.5-.5.2-.2.1-.2h.5v-.3q.2 0 .3-.2h.3l.2-.2v-.2l.1-.1h.5l.3-.5h.3v-.2h.2l.1-.2q0-.1 0 0 0 .3.2.1t.1-.4l-.1-.1.1.3.3-.1.4-.1q.3 0 .5-.3l.3-.1q.3 0 .5-.3h.4l.1-.1v-.1l.3.1 1.1-.5.5-.1.3-.3v-.2q.2.2.3 0l.2-.1v.2l.3-.4h.5v-.2h.3l.2-.2h.3q.3-.1.2-.3h.3q-.1 0 0-.1h.1q.4 0 .5-.3h.3l.1-.1q.2 0 .1-.1l.4-.2h.1l.3-.3q.3 0 .4-.3v.2l.1-.1q0-.3.3-.1c.1 0 .1-.4.2-.2 0 0 .4-.1.3-.3l.2.1h.1l.3-.1.2-.2.3-.1.4-.2.1-.2h.2l.1-.1v-.2h.4q0-.2.3-.3l.5-.2.2-.2h.3v-.3h.4c-.2-.3.2 0 .3-.2l.2-.3h.2c.2-.2 0-.2.3-.3l.4-.3.1-.1q.4-.1.7-.4l.1-.1h.2v-.2c.2-.3.9-.4 1-.8ZM57 260.2c0 .3.5 0 .1 0zm-39.2-1.5c0 .4.6 0 .2 0zm-3.8.1.1.1.2-.2zm-1-10.3-.3.2h.2zm3.4-12.5q0 .3.1 0 0-.3-.1 0m0-1q0 .3.1.2zm43.2 25.5h.4l-.2.1zm-4.4 0h.3l-.1.2q-.4 0-.2-.1Zm-23.2-1h.4l-.2.2zm-10.3-.2q.4 0 .3.2h-.1zm-19.5-2q-.2 0 0-.2.1 0 0 .1m3.3-2.8-.1.3zm5-3.6-.4.3.1-.2q0-.2.3 0Zm6.5-17.4v.2zm2-11.4c0 .1 0 .5-.2.4l-.1.5h.3l-.3.6h.1v.3l-.1.4q0-.4-.2-.6-.3.3 0 .5c0 .1 0 1-.3.9h.2v.5L18 227q-.1.7.1 1.2l-.2-.3v.2h-.1q-.2.2 0 .3v.6l-.2.6q.2.4.3.2l-.4.6q-.2.3 0 .1t.2 0l-.2.5-.1.1h.2l-.3.4c-.3.4.3 0 .3 0s-.4.4-.2.5l-.3 1.2v.7l-.1.4.1.4s-.3-.5-.2-.1v.4l.1.3q-.2 0-.3.3l.3.5c.1.5-.4.4-.5.4l.3.7-.3.2v.4l.2.4c-.1.1-.3-.1-.3.4q0 .5-.2.3l.1.2v.5l.2.2v.4l-.1.5q-.2 0-.2-.2v-.2q-.1.4.1.9c0 .3-.1 0-.1 0v.5q-.3.5 0 .5v.2H16v.1l.2.8H16q-.2.3 0 .4l-.3.3q.3 0 .3.2-.2 0-.3.3v1.3c0 .2 0-.1.1 0q0 .2-.3.3v1.3l-.1.2-.3.2s.2-.6 0-.4l-.5.7h-.4l-.4.4-.2.2q-.3.4-.8.4-.1 0 0 .1l-.4.2-.4.4-.5.3-.3.2-.7.6-.5.5v-.2l-.3.2-.1.4-.1-.1-.4.2q-.2.3-.4.2v.2l-.5.2-.3.3-.6.4c-.1 0-.5.4-.6.3-.3.2 0 .1 0 .3h-.3l-.3.1-.7.7v.3H5l-.4.3h-.1l-.1-.2-.3.4-.8.5c-.2.1.2.3-.2.4q-.3 0-.6.3s-.1.4-.3.3q-.3 0-.4.4-.3.3-.7.4c-.4.2.2.1.3.2h-.3q-.3 0-.3.3H1 .9l-.8.4q-.2.1.1.1h1.9c.3-.2 0 .2 0 .2.4 0 .2-.3.6-.1h.2c.2 0 1.3-.2 1.3 0l.5-.3q0 .3.4.2.2 0 .3.2l.5-.2v.3q.4 0 .5-.2h.2v.3l.2-.1.4-.1h.2l.2-.1.4.1.2-.1h.3c-.3 0-.7.1-.2.2q.4 0 .5-.2c0 .3 1.2.2 1.5.2q.3 0 .2-.2.2-.3.3 0c0 .2.7.4 1 .4h.6q.2-.2.6-.2-.5 0 0 .1h1l.6-.1v.2h3.2q.1-.1.4 0l.2.1.6.1q.1 0 0 0 .2-.3.4-.1h.3c0 .2.8 0 1 0l.2.1.6.1 1 .1.3-.1.3-.2.1.3h1.1q.3 0 .5-.2c.3 0 0 .2.2.3l1-.2h.5q-.5 0 0 .2h.4l-.1-.3.6.3v-.2l.4-.2q0 .3.3.3s.6 0 .4-.1h.3v.2h.5c.3 0 .4-.3.6 0 0 .3.3 0 .5 0h.7l.2.1h.9l.3-.2v.2h.6l.2-.1h.3v.2l.6-.1.4.1 2 .2h3.6l.4-.1h-.1l.9.1h.5v-.3q.3 0 .3.3h.5l.9.1h.5l.9.1q.3 0 .5-.2.2-.1.2.2l.4-.1.5.2h4.1q.3 0 .4-.2v.3h2.3l.2-.4s.4.1.2.2q-.4.2.2.3h.4q0-.2.2-.1c.2 0 .7.2.6.3h.5l.6-.1.3-.1.2.1h1q.3.1.4-.1l.3-.1q-.1.3.2.2l1.8.1h.6c-.2-.2.2-.1.3-.1l.2.1h1.9l.5.1h1l.2-.1c.4-.2-.7-.5-.6-.1 0-.1-.7-.1-.9-.3H61c-.5 0-1.5-.3-1.5 0l-.2.3-.1-.3-.1-.4h-1l-.4.1q0 .3-.4.1l-.2-.2h-2.3l-.1.1-.2-.3q-.3.2-.7.1h-2.6c0-.1-.4-.2-.3 0q0 .3-.4 0h-.9.1-1l-.4-.2h-.7q-.3.2-.4 0h-.6q-.2 0-.1.1c0-.2-.7-.2-.9 0l-.3-.1v-.2h-.8l-.4.1h-2.4l-.3-.2h-.9q-.2.1-.4 0-.5-.1-.7.1c0-.3-1.2-.2-1.5-.1-.2 0-.4-.4-.7-.1q-.1.1-.4 0H36l-.9-.2q.5.1.1.4-.1 0 0-.2h-.5l-.3-.2-.3.1-.7-.2h-1l-.1.3-.3-.2h-.2l-.1-.1-.4.2-.4-.2v.2h-.2l-.1-.3h-1.3q-.5 0 0 .2l-.6-.1-.6-.1h-.7v.1h-1.9l.3.1h-.4l-.4-.2h-.5q-.3-.1-.4 0 0 .1-.4 0l-.3-.1h-.6q.1.1-.2.2-.1-.1 0-.2l-.3.1H22l-.8-.2c-.2 0 0 .4 0 .3h-.3l-.4-.2-.7-.2-.3.1h-.2l-.8.1q-.4 0-.7-.3v.2l-.3-.2h-.7l-.2.1h-1.1q-.1.1-.4 0h-.3q-.3.1-.8 0l-.5-.2h-.8q-.4 0-.7-.2c.1 0 .1.4-.2.3l-.5-.2h-.1l-.8.1H9v-.2l-.3.1q0 .2-.4.3v-.3H5.8q0-.2-.3-.2h-1q.2.2 0 .2l-.4-.1-1.2-.2-.5.1-.3.2v-.2l-.2.2v.2l-.1-.2.4-.3-.4.1h-.1l.3-.1.4-.1-.8.1.7-.1q-.3-.1 0-.2l.3-.1q.3-.1.3-.4l.5-.4c0-.3.2 0 .4-.1l.3-.4h.2l.2-.1q0-.2.2-.2c.2 0-.3-.3.2-.3q.3 0 .5-.4.1-.3.5-.3c.1.1.4-.4.6-.4-.1 0 .3-.7.3-.4.1.3.3-.1.5-.3l.4-.2h.1l.5-.6q0 .2.2.1t.4-.3v-.1l.2-.1c.2-.1.6-.2.4-.5q.1.2.2 0l.3-.2q-.1.1.1.1t.4-.3q.3-.2.1-.4h.4v-.3l.3.2.2-.4q.2-.3.6-.4t.6-.5l-.2-.2q.2-.2.3.1h.5l-.2-.3c.1.2.8-.3 1-.4h-.2c.3-.3.6 0 .7-.4l.3-.3v.2l.6-.4.3-.1.1-.1.3-.2.2-.2v-.2q-.1-.1-.2.2v-.7l.2-.3v-.3l-.2-.1q0 .2 0 0v-.3c0-.2.2.2.2 0s0-.9-.2-.7q0 .3-.2 0v-.3q.3-.2.5 0v-.4l-.2-.2.2-.4q0-.3-.3-.3h.3l.2-.6h-.2v-.5l.2-.3v-.5l.1-.2-.2-.5h.1v.1-.5l.2-.4v-1.4q0-.2.3-.5l-.1-.5q0-.2.3 0l-.2-.5q-.2-.2.1-.2c-.2 0 0-.6 0-.6l.1-.5v-.8s.4-.4.2-.6c0 0-.4.2-.2 0v-.6l.2.1v-.4h.1v-.7c.2 0 .3-.5.2-.5v-.4c0-.4.5-1 .2-1.4.6.1 0-.5 0-.7q.3 0 .2-.4l-.2-.4c.1-.2.2 0 .2-.4v-.3h.2s.1-.4 0-.4v-.6l.2-.6q.2 0 .2-.5v-.9l.2-.6c-.3.1 0-.5 0-.7v-.5q0-.2 0 0l.1-.4v-.8q.3-.1.3-.5c0-.2-.2 0-.1-.3h.2c0-.4-.4 0-.5.3Zm4-4.7q0-.3-.3-.1zm3.2.9-.6-.3h-.4c-.2 0-.4-.3-.5-.1q-.2-.4-.7-.6l-.3-.2-.2-.3v.1q-.2 0-.5-.3h-.6l-.3-.2q-.2-.4-.5-.4l-.7-.2q0-.2-.3-.3c-.2 0 .1.3-.2.2l-.1-.3-.3-.3q-.2 0 0 0v.2l-.2.8-.4 1.8v.4c.2.3 0 0 0 .1v.6l-.1.3.2.3h-.2v.5c0 .1 0 .8-.2.6s0 .5 0 .6c0 .4-.5.2-.4.6q.4-.2.6-.6l.2-.4v-.3q.3-.3.2-.6v-.4q0-.6.2-.8c-.2 0 0-.6 0-.8v-.2q-.1-.2.1-.2.3-.1.1-.6l.1-.5.1-.2v-.3h.1v-.1h.2v.2l.6.4.6.2h.4-.2q.2.3.4.3h.3l.4.3c.3.2.2.3.7.4q.3 0 .5.2h.4q-.1.1 0 .2h.4c-.3 0 .3.3.4.3l.2.3q.4-.1.1-.4h.2q.4.3.3 0Zm11.3 5.5q0-.3-.3 0h.4m16.8 8.5q-.4-.4-.2 0zm-26.3-12.8q-.2-.1 0-.1.2.1 0 .1m5.2 2.4-.3-.1q-.1-.4.2-.2zm8.2 4 .1-.2q.1.4-.1.3m4.2 2.1q-.2-.2.1-.1.2.1 0 .1m1.7 1q-.2-.2 0-.2.5.3 0 .2m26.6 13.4c.2.1.5-.4.3-.5l-.6-.3h-.5q-.3-.5-.8-.6H72l-.4-.6-.2.1q0-.2-.3-.3s-.2.4-.4.1l-.1-.2-.3-.2c-.3 0 0 .2-.5 0v-.3q-.2-.2-.4-.1 0-.3-.4-.3l-1-.5q.5.4-.2.1l-.8-.5c0 .2.7.6.9.7q-.4 0-.7-.3l-.4-.3q.2 0 0-.3c-.3-.3-.5-.1-.9-.3q-.4-.2-.6-.5h-.5c-.3 0 0-.1-.1-.1h-.2q.1 0 0-.2l-.5-.3-.6-.1H63l-.2-.2-.1-.2-.6-.1-.5-.2-.3-.3H61l-.6-.4c-.3 0-.7-.4-.8-.2l-.6-.5-.5-.1-.1-.2-.3-.2-.5-.2v.2l-.5-.3c-.2-.1.2-.3-.1-.4s-.3.2-.5.3q-.3-.2-.3-.4H56l-.2-.1h-.4q0-.2-.2-.2-.4 0-.3-.3l-.4-.2h-.1l-.5-.2-.3-.3-.6-.3-.4-.3c-.3 0 0 .3 0 .4l-.2-.1-.4-.2c-.3-.1 0-.2-.2-.4h-.5l-.6-.2-.2-.1c0-.1.3-.1 0-.3q-.3-.3-.7-.4l.1.1-.4-.1.2.2q-.5 0-.5-.2.2 0 0-.2l-.7-.4-.1.2q-.4-.1-.6-.4c-.2-.3.4 0 .4 0q-.3 0-.6-.3v-.3l-.5.2-.4-.2h-.3l.3-.3-.4-.1H46l-.4-.3-1.2-.5h-.2l-.2-.3-1-.5h-.3v-.3h-1v-.3l.3.2v-.1l-.6-.3c0-.2-.8-.4-1-.5v.3l-.3-.3h-.4s-.6-1-.7-.7h.2l-.2.2h-.3c-.2-.2.1-.3-.1-.5l-.5-.2h-.3q-.2 0-.2-.2h.1s-.8 0-.8-.2l-.2-.4-.4-.1s.5.5.2.3l-.5-.3-.3-.1q-.2-.1 0-.2l-.2-.1h-.3v-.3h-.5l-.4-.1v-.2l-.6-.2h-.4c0-.1.5 0 .2-.2l-.5-.2-.6-.3h-.2l-.3-.2-.4-.1s0-.4-.2-.3H31v-.2l-.2-.1-.1.1.1.2h-.3c-.2-.2 0-.2-.3-.4l-.3-.2h-.2l-.3-.1-1-.4v-.2l-.4-.2q-.3-.3-.5-.2l-.2-.1H27l-.4-.3c-.2 0-.8 0-.6.1l.2.1.3.2.7.5.3-.1q.3 0 .4.3v.1h.5c.1.2-.2.2.1.4h.5l.2.1.7.2c.1.2-.4.1-.4.1l.9.3q.2 0 .3.2l.3.2q.2 0 .3.2h.3q0-.2.1-.1.2 0 .3.3t.4.2l.3.1.1.1.3.1.3.2.9.4.2.1q-.2 0 0 .2l.6.2.3.1.5.3h.4q0 .3.4.4l1.5.7h.3l.2.3.3.3q.3.1.4 0l.5.2.3.3.4.3q.3 0 .2-.2l.3.2.2.2v.1l.4.2.7.1q.3 0 .1.2l.3.1.2.1.5.1q.1 0 0 0-.3 0 0 .3h.5c-.2.2 1.2.6 1.1.8l.7.3.6.3q.5 0 .8.3.2 0 .5.3l.3.1h.1q.3 0 .1.3c.1-.1 1.7.7 1.9.9l.7.4.6.2s.4 0 .3-.1l.2.3h.4l-.2.2q.5.2.6 0 .3.2.2.4l.4.2h.3l.4.2.4.1.4.4h.4l.3.3s-.1-.3.1-.1l.2.2q.4.3.8.3l.3.4h.3q.2.2.2 0l.6.4h.3q.2.3.5.3.4.3.7.2l-.2.1h.3q.4 0 .4.4h.5c0 .2.5.5.5.3l.2.3h.2l.3.3.4.1.5.3.6.4h.3l.2.2h.2q0-.2.3 0l.3.4q.4 0 .6.2l.8.4.5.2.4.3v-.1h.3l.3.4c.2-.3.2.2.5.3h.5l.3.3.6.2.6.4h.3l1 .8c.3 0 .1-.1.4 0l.2.2h.1c.5.2 1.2.9 1.7.9.2 0-.2 0 0 0Zm76.7-1.8c-.1-.3-.6.2-.2 0zm24.9-3.6c.3.2.3-.5 0-.1zm-1.6 3.6.1-.1v-.2zm8.2 16.7h.4zm-14.5-1q.4-.1 0-.2-.3 0 0 .1m-1 0h.2zm-19-14.9-.3.2v-.3q.4 0 .3.1m4.3-1.7-.4.1.1-.2zm22.3-7.9-.2.2v-.2zm3.6 1.8q.1-.3.3-.2v.1zm3.3 18.7q-.2-.3.1-.1 0 .1 0 0m3.6 2.5q.2.1 0 .1h-.2q0-.2.2 0c.2 0-.1-.2 0 0m.7 2.1h.4l-.1.1zm-20.6-1.1.3.1h-.2zm-10.4-2q.2.5 0 .6v.5c.2 0 .3-.3.4 0v.5h.1q0-.1 0 0h.4c0 .2-.6.2-.5.3q.2.2.5 0c.1-.1 1 0 1 .1v-.2h.4c0 .2 1.2.2 1.5.2q.7 0 1.2-.3s-.4.2-.3.3h.3q.2.3.3 0h1.2q.3-.1.1-.2l.7.3h.2q-.3-.2 0-.2l.4.2.2.1v-.2l.4.2c.4.3-.1-.2-.1-.2s.5.2.5 0c0 .2 1.2.2 1.4.2h1.4s-.4.3 0 .2l.4-.2h.3q0 .2.3.3l.4-.4c.5-.1.5.4.5.5l.7-.4.3.3h.4l.4-.3c.1.2-.1.4.3.3q.6 0 .5.2l.1-.2h.6v-.2h.4l.1.1h.5l-.2.2h-.1q.5 0 .8-.2c.3 0 0 .2 0 .2h.6c.2 0 .7.1.5-.1h.1v.2h.2c.4 0 .4-.3.8-.3v.3h.4l.3.1s0-.4.2-.2q0 .2.4.3h1.2c.3 0 0-.1 0-.2q.4.1.4.3h2c.1 0-.5.2-.2.2l1-.2.3.2h.5l.3-.1q.5-.1 1 .2h.4l.6-.1h2.6v.1h.3v-.2l.4.1.5.1h.5l-.6-.2q.4 0 0-.2l-.5-.3h-.2l-.4-.5-.6-.5c-.2-.2 0 0-.3 0v-.2l-.2-.2c-.2-.2-1-.5-.9-.6l-.3.1v-.2l-.2-.1-.3-.3h-.1l.2-.2-.5-.2-.6-.7c-.2-.2-.3.3-.5 0q-.2-.4-.5-.6l-.4-.2q0-.2-.5-.3l-.5-.5c-.3-.4-.2.2-.3.2s-.1-.5-.3-.4l-.2-.1c-.1-.2.2-.1 0-.3l-1.3-.9-.3-.2c-.3 0 0-.2 0-.2-.2-.1-.3.2-.5-.2l-.2-.1c0-.1-1.2-.6-1-.8h-.6l-.2-.5q-.2 0-.2-.3h-.6l.2-.3-.5-.2v.1q-.2 0-.2-.2l.1-.3h-.2l-.3-.1-.2-.2h-.2c-.2 0 0-.2-.3-.3h-.2l-.3-.2c.2.2.6.3.3 0l-.5-.2-.3-.4.2-.4.2-.4q.1-.2-.1-.3l.1-.2q.4-.2.8-.8l.2-.6.2-.6q-.2.6 0 .1l.5-.8q.3-.5.2-.8 0 .3.2.2l.1-.2.2-.4v-.2q0-.2.2-.2l.1-.3.1-.4.1-.3q.1.2.2 0l.1-.5.1-.2q.2 0 .1-.3l.2-.4q.1.1.3-.1t.3-.5v-.4l.2-.3c.2 0 .4-.7.5-.8l.2-.3.3-.5s.4-.9.6-.8v-.7h.2l.3-.5.1-.4.2-.1c.2-.2-.1-.4 0-.6.1-.3.2 0 .4-.2l.2-.6v-.4l.2-.3q-.3 0 0 0l.1-.1q0 .3.3-.3s-.6.2-.7.4l-.1.2-.1-.1h-.4l-.2.3-.3.2q.2-.3-.3-.1l-.4.3-.3.1v-.2l-.5.1c-.3.2-.2.5-.6.3 0-.3-.2.1-.4.2h-.5l-.2.3h-.7q0 .2-.4.3l-.2.2v-.1q-.3 0-.4.2h-.3v.2l-.4.2v-.3l-.6.3h-.4l-2 .7h-.2l-.3.1-1 .4-1.5.6-.4.3-.3.2v-.1l-.9.3-.5.2.2.2q-.3.1-.4-.1h-.5l-.9.4h-.2l-.3.2q-.4.3-.9.2l-.4.4c-.2.3-.2 0-.2-.1q-.2 0-.4.3h-.5l-.7.2s-.8.4-.9.3l-.5.2-1.8.8q-.4 0-.4.3l-.1-.2-.3.2h-.2l-1 .3-.3.2h-.3v.6s-.5 0-.3-.2q.2-.3-.3 0l-.4.1-.2.1h-.7l-.4.2-.6.3-.3.2h-.2l-.4.1-.5.2q-.4 0-.3.3l-.3.1q0-.2-.3 0l-1.7.5s-.7.2-.6.3q.2 0-.3.2c-.5.2 0-.1-.1-.1h-.3l-.7.3q0 .2-.4.2l-.3.3h-.7l-1 .4v.2c-.4.3.8.3.5 0 0 0 .8-.3 1-.2h.2l.4-.3 2.1-.7c.5-.2 1.5-.3 1.4-.7v-.2q.2 0 .3.2s.2.4.3.3l.4-.2h.5c-.1-.3.3-.2.3-.4q-.1-.3.4-.3l.2.2q.3 0 .3-.2l.3-.1c.3.1.6-.3 1-.3l.4-.3h.2l.1-.2.3.2q0-.2.5-.3l.5-.1q.1-.1 0-.1l.4-.1c.3-.1 0 0 .2-.2l.6-.1.6-.2q0-.2.2-.2h.3q0-.3.4-.3h.5l.4-.4q-.1.1 0 .2l.3-.2.6-.2h.5q.3 0 .5-.3l.4-.2h.7v-.3c.1.2.7 0 .8-.2q.2-.2.4-.1v.1l.3-.1.5-.2q.1.1.4-.2.3 0 .7-.3l.7-.2.8-.3h.3l.4-.2.5-.2q.1-.2.4-.2c.2 0 .7 0 .7-.3 0 .3 1.2-.2 1.4-.4s.6.1.8-.2q0-.2.3-.2l.5-.2h.3l.9-.3q-.5 0-.3-.3.3 0 .2.2l.4-.1h.4q0-.2.2-.2l.7-.1 1-.5v-.2q.3-.1.3.1l.2-.2.2.1.3-.3s.5.1.4 0v-.1h.2l.2.1.4-.1v-.2l.8-.2q.3-.2 0-.2l.6-.1h.4l.1-.2.2-.1.3-.2h.1l-.1.2-.1.2.2-.2-.2.3-.2.1-.2.4c0 .1-.4.3-.3.4q.2 0 0 .4l-.3.2-.3.6q.2 0 .1.2 0 .2-.2 0v.3l-.1.2-.5.7.3.2-.3.1-.2.4q-.4.3-.5.6v.3l-.3.1-.1.8-.6.6h.2q-.2 0-.3.3l-.3.6v.2l-.2.3-.3.7-.1.4q-.3-.2-.3.2t-.2.8l-.5.3-.1.4-.3.3v.2q-.1.3-.4.5c0-.1.4 0 0 .3l-.2.4h-.2c.2.1-.4.7-.2.8l-.2.3-.3.6-.2.2.4.3h.3l-.2.2.3.2h.2q0-.2.4 0-.2 0-.2.2h.3l.3.3.1.3h.4v.2l.2.2.6.3.3.3h.2q-.2 0 0 .3h.1c.2 0 .7.5.8.5l.2-.1.2.4 1 .8.4.2q.2.2.5.1l.3.5c.1 0-.2-.5-.1-.6l.2.4.2.5.6.2q.3.2.1.3v.2l.3-.3.2.5q.3 0 .6.3c0 .1.5.7.7.6l.6.3q.3.1.2.4l.5.2q.1.2 0 .2l.3.2.2.1c.1.2.2-.3.3 0q0 .5.6.5.3 0 .4.4c0 .1.6.3.6.5 0-.2.8 0 .4.1q0 .3.5.4l.2.1v.1l.4.2h-.4s.4.1.2 0l.2.2h-.2l.4.1-.4-.2q.2.1 0 .1l-.3-.2.1.3-.2-.1v.1l-.2-.4-.4.3h-.8c-.1 0-.6-.2-.7 0v.3q-.3 0-.1-.3c0 .1-.4 0-.3-.1l-.2-.2v.4c0-.2-.9-.3-1.1-.3q.3 0 .1.2c-.3 0-.4-.4-.7-.2q-.1.1-.4 0s.3-.1 0-.1h-.6l-.7-.1q-.6.1-.1.2h-.5l-.3-.2h-.3q-.2 0-.1.2.2 0 0 0l-.3.1c-.2 0 .2-.2 0-.3s-1 0-.7.2q.2 0 0 .2h-.4c-.2-.1.1-.4 0-.4h-.4l-.2.2-.4-.2q-.3 0-.3.3v-.3l-.7-.2q.1 0 0 .2h-.4l-.4-.2-.4.1-.3-.1-.5.2v-.1H172l-.5-.1h-.6l-.5-.1-.5.1q-.2 0-.1-.3l-.4.2q-.4.2-.3-.1c0 .2-.6 0-.6.2l-.5-.2h-.3l-.5.2s-.5-.4-.6-.3c0 0 .2.4-.1.3h-.5c-.1 0 .2-.2 0-.3l-.1.1h-1c0-.2-.5-.2-.5-.1h-.5c-.3 0-1-.4-1.4-.1 0-.5-.5.2-.7 0l-.5-.1-.4.3q.1-.1-.3-.2c-.3 0 0 .2-.3.2v-.4h-.5c0 .2-.5.1-.6.1h-.6q-.2-.3-.6-.2l-.3.1h-.5l-.7-.1c.2.2-.5 0-.7 0h-.3l-.1-.3-.2-.5v-.5l-.3-.2.1-.2c-.1-.3-.2.3-.2.5Zm-3.9-10q0 .2.2.2v-.2zm-2.1-2.7q0 .3.4.5 0 .3.3.4c.2 0 .2.4.4.3-.2 0 0 .6.2.9v.7h.2l.2.4q.1.3.4.4v.1l.2.3q0 .4.2.6l.4.7v.3c.2.3.2-.2.3.2.2.3-.3 0-.1.4l.2.1.3.8.6 1.8q0 .2.3.2.2.3 0 .3l.3.5q.2 0 0 .3h.4l-.1.3q-.1.2.1.4c0 .1.4.7.2.7-.3-.1.2.4.3.5.1.4-.4.4-.1.7.2 0 .3-.6.3-.8v-.5l-.2-.3-.1-.6-.2-.4c-.1-.3-.5-.7-.2-.8-.2.1-.3-.5-.4-.7l-.3-.1v-.3c.3 0 0-.4-.1-.6l-.3-.8-.2-.2-.1-.4v-.3l-.3-.2-.2-.6-.2-.6-.3-.6-.3-.2h.2l-.3-.5-.2-.2-.1-.4c-.2-.4 0-.4-.3-.8q-.3-.1-.4-.5l-.3-.2s.3 0 .1-.2l-.3-.2c.3.2-.1-.4-.2-.5v-.3c-.1-.3-.5 0-.3.2l-.1-.2q-.3-.4-.3 0m-8.2-9.8q0 .3.2.1zm-17.3-7.8c.3.3.4 0 .1 0zm24.6 15.6q.1.3-.1 0s0-.3 0 0m-3.6-4.6.3.2q0 .4-.3 0zm-7-6-.2.2q-.1-.3.2-.2m-4.4-2.3q.3.1 0 .1-.2-.1 0-.1m-1.8-.9q.2.3-.1.2-.5-.3 0-.2m-30.2-3.8c-.2 0-.3.6 0 .6h.6l.5-.1h1l.5-.1.6.3q.3.1 0-.2l.5.2s.1-.5.4-.3l.2.2h.3c.3 0 0-.2.4-.2l.2.2q.4.2.4 0 .1.3.5 0c0 .2 1 .1 1.2.1q-.7-.1 0-.1h1l-1-.2h.7q.3 0 .5.2l.1.2 1-.1.8.2.4-.2.2.1q.3 0 .2-.2-.2 0 0 .3h1.2l.3-.1.2.1h1.3l.4.2h1.8l.7.2h.6l.1.1.4.1h.5v-.2q.2.2.5.2c.2 0 0 .3.3.3q.3-.1.4-.4c0-.1.4.2.3.3q0-.2.3-.1h.2v-.1h.4q0 .2.2.2l.4.1.4.1h.8l.3.3h.6l.6.3c.2 0-.2-.3-.2-.4l.3.1.4.1c.3 0 .1.1.3.3h1.4c0 .1-.4.2 0 .3l.8.3-.2-.1h.5l-.2-.1.5.1q-.2 0 0 .2l.8.3v-.3l.7.4h-.4l.7.2v.3l.5-.2.4.1h.3l-.2.4h.7l.4.3 1.2.5h.3l.2.3 1 .5h.2l.1.3h.9v.3l-.2-.1.6.4 1 .6v-.3l.2.4h.4c0 .1.4 1 .6.8h-.2l.2-.2.3.2c.2.2-.2.2 0 .4l.4.3h.4q.2.2.1.3h-.1s.8.2.8.4q-.1.1 0 .4l.4.2s-.3-.5-.1-.4l.4.5.3.2q0 .1 0 0l-.1.2.2.2.3.1v.2l.5.2.2.3v.1l.5.4h.2l.1.2s-.4-.1-.3.1l.5.4q.1.3.5.5l.1.1.2.2q.3 0 .3.4v.3l.4.1v.4h.2v-.3l.2.3.1.3.2.4.2.1.2.2c.2 0 .6.7.7.9v.2l.2.4q0 .3.3.4l.2.2.1.2q.2.1.3.4c0 .2.6.4.6.2l-.1-.1-.2-.4-.3-.7-.4-.2-.2-.4v-.2q0-.1-.2 0l-.2-.3c0-.1.3 0 .1-.3q-.1-.2-.4-.2l-.1-.2-.6-.6.4.1-.7-.7-.2-.3q0-.3-.2-.3l-.2-.3v-.1h-.3q0 .1-.1 0l-.1-.4q-.1-.2-.4-.3l-.2-.3v-.2q-.2 0-.3-.2l-.2-.3-.7-.6q-.3 0-.2-.2.2 0 0-.2l-.4-.3-.4-.3-.3-.4q-.4 0-.5-.2l-.2-.4-1-.8-.4-.3h-.3l-.1-.4-.3-.3q-.3-.2-.4-.1l-.5-.3-.2-.3-.5-.3h-.2l-.2-.1-.2-.2-.1-.2-.3-.1-.7-.2q-.5-.1-.2-.3h-.3l-.2-.2h-.5q-.1-.2 0-.2.3 0 0-.2h-.5c.1-.2-1.3-.6-1.2-.8q-.3-.2-.8-.2l-.6-.3-.9-.2q-.2 0-.5-.3h-.4q-.4 0-.2-.3l-2-.6q-.5 0-.8-.3h-.7l-.3.1c-.2 0 0-.2-.3-.2h-.4s.3-.2 0-.2h-.5l-.3-.1-.4-.2-.3.1h-.9l-.5-.3h-.4l-.4-.1q.2.1 0 .1l-.3-.1q-.5-.2-.9 0l-.4-.3h-.5q-.3.1-.7-.1h-1.7l.2-.1h-.3q-.3.1-.5-.1c-.1-.2-.5.2-.5 0h-.6l-.2-.1h-.3l-.4-.1h-.9l-.8-.2-.3.1-.2-.1h-.3q0 .2-.3.2l-.4-.2q-.3.2-.6 0H109l-.5-.2q.1 0 0 .2h-.2q-.4 0-.5-.2c0 .4-.3 0-.6 0l-.5.2-.4-.1h-1.7q-.6-.2-1.3-.2l-.2.1h-.5c-.5 0-1.5-.3-2 0q.2 0 0 0m30.7-189.8c-.1.3.4.2.1 0zm-30.8-2.1c.2.2.3-.4 0-.1m-1.7 2.8V32zm.2 24.2v-.3zm-2 11.5q0-.3 0 0 0 .1 0 0m0 .7q0 .3.1.1m36.4-35.9h.3q0 .2-.2.2t-.1-.2m-3.5-1h.3l-.2.1q-.2 0-.1-.2m-18.1-5h.2l-.1.1zm-8.2 1.2h.3l-.1.1zM97 45.2q.1-.3.2 0 0 .1-.2 0m.6 3.4-.2-.2zq0 .1 0 0m.7 5v-.4zM96 70l.1-.2zm-.7 9.3v-.4l.1-.4h-.2l.1-.6q-.2 0-.2-.2t.2-.3c.1.1 0 .5.2.4q.3-.1 0-.3c-.1-.1 0-.8.2-.8h-.2l-.1-.4c.2 0 .2-.9.2-1q0-.7-.2-1l.3.1v-.1q.2-.2 0-.3v-.5l.1-.5q-.2-.3-.3-.1l.4-.5v-.1q-.2.2-.2 0l.2-.4h.1-.2l.2-.4c.4-.3-.2 0-.2 0l.2-.4.2-1v-.6l.1-.3V69s.3.4.2.1l-.1-.3q-.2-.2 0-.3l.2-.2-.3-.4q.2-.5.6-.3l-.4-.6q.2 0 .3-.2v-.3l-.1-.4s.3.2.2-.2q0-.4.2-.3V65c0-.3-.2 0-.2-.1v-.3l.1-.4.2.1v.2q.1-.5-.1-.7c-.2-.2.2 0 .2 0v-.5q.1-.4 0-.4v-.1h.2v-.1l-.3-.7h.3q.2-.1 0-.3l.2-.2s-.4 0-.2-.2q.2 0 .3-.3v-.3l.1-.6q-.1-.2-.2 0 .1-.3.3-.3l.1-.4v-.7l-.1-.6.3.3-.2-.8.2-.3v-.4l-.1-.2q-.1-.4.1-.8v-.3l-.1-.5v-.8l-.1-.7-.2-.6h.2l-.2-.2-.1-.2v-.8h-.1v-1.4s-.2-.5 0-.5c-.1-.3-.2 0-.3-.2v-.2l.1-.2c0-.2-.3-.8-.1-.8l-.3-.1v-.1l.1-.2v-.4h.2l-.1-.4v-.7c0-.2-.4 0-.2-.3v-.9q.2-.1 0-.5v-.5c0-.3-.2 0-.3-.1l.1-.4h.1v-.2l.2-.2V42c-.2-.2.2 0 .2 0 0-.3-.4-.2-.2-.5v-.1c0-.2-.2-1.1 0-1.1l-.2-.4.2-.3q0-.2.2-.3l-.2-.4h.3l-.1-.4h-.2l.1-.2h.3v-.1l-.1-.3v-1.1c0 .2 0 .6.2.2l-.1-.5c.2.1.4-.9.4-1.1q0-.2-.2-.2l.1-.3q.4 0 .6-.7v-.4l.1-.5q-.1.5.1 0l.4-.6q.2-.4 0-.6l.2.2.2-.2v-.5l.2-.2q.2 0 .2-.2V31q0-.2.2-.2l.2-.1.1-.3.1-.2v.1q.3 0 .2-.2t.2-.3h.3l.4-.2v-.4l.3-.1c.2.2.5-.3.6-.4h.3l.3-.3c.1 0 .7-.4.8-.3q.3 0 .2-.2l.1-.2.2.1h.4q0-.2.3-.3l.2.1c.2 0 0-.3.3-.3.2-.1 0 .2.2.2q.4-.1.7-.4s.6-.2.4 0q-.4 0 0 .1s.4 0 .3-.1v-.2q.2.2.5.2v-.3l.2-.1q0 .2.3.2s.5 0 .3-.2h.3v.2h.3c.3 0 .4-.3.6 0 0 .3.2 0 .3 0h.4l.2-.1.2.2h.7l.3-.2v.2h.5l.1-.1h.3v.2h.5l.2.1 1.7.4.3.1 1 .1 1.1.2h.7l.6.3h.5V28q.3 0 .2.3l.3.2.8.2v.1h.4l.6.3.5-.1q.2 0 0 .2h.4l.4.2.5.2.7.3.4.1 1.5.4h.5v.2h.2l.1.1.7.3.6.2.3-.4s.3.2 0 .3q-.1.1.2.2l.4.1h.1q.3.2.4.5h.4l.5.1h.2q0 .2.2.2l.3.1.4.2q.3.2.3 0h.3l.1.2 1.4.6s.5.2.4 0l.3.1v.2h.3q.2.2.5.2l.4.1h.2l.1.1.4.3.8.2h.2c.3-.1-.4-.8-.4-.3 0-.1-.6-.3-.6-.5h-.2l-.4-.2-1.7-.6c-.3-.1-1-.6-1.1-.2q-.1.2-.2 0v-.6h-.4l-.3-.3q-.1.1-.4 0 0 .3-.4 0v-.2h-.3l-.2-.1v-.1c0-.2-.6 0-.7-.3h-.5V31h-.2l-.1-.2h-.5l-.4-.3q-.2 0 0 0h-.5l-.4-.2-.5-.2h-.3q-.2-.4-.2-.1 0 .2-.4 0 0-.3-.3-.3s-.4.1-.4 0h.2q-.2-.2-.4 0l-.4-.3-.3-.2-.5-.1h-.4q0-.3-.4-.3l-.2.1c.1-.2-.4-.3-.6-.3h-.3v-.2h-.1q-.4 0-.4-.2h-.4l-.6-.1-.5-.2-.7-.2-.2-.1h-.3l-.5-.2h-.3q-.4-.3-.6 0c0-.3-1-.5-1.2-.4s-.3-.4-.5-.2q-.2.1-.4 0h-.4v-.1l-.3-.1-.6-.2q.3.2 0 .4-.2 0 0-.2h-.4q0-.3-.3-.2h-.2l-.5-.2h-1v.2q-.2 0-.2-.2l-.2.1-.1-.2-.3.2-.3-.1v.1h-.2l-.1-.2H109q-.3.1 0 .2h-.5q-.2-.2-.5-.1h-.3l-.2.1-.6.2h-.5l-.5.2h.3-.7l-.4.2q-.3-.1-.4 0l-.2.2h-.4l-.5.2s.3.1 0 .2l-.2-.1v.2h-.3l-.6.3c-.1.1.2.3 0 .3h-.1l-.4.1-.6.3-.1.2h-.2c-.3.2-.1.5-.3.7s-.5 0-.6.2h.1l-.3.2-.3.5-.1.2-.1.2-.4.5v.3q-.4-.1-.4.2v.7l-.5.2v.4l-.3.2v.2q0 .3-.3.4s.4 0 .2.3q-.2 0-.3.3h-.1c.2.1-.1.7 0 .8l-.2.5v.5l-.2-.1.1.3q.2 0 .2.3H97l.1.2v.3l-.2.2.1.2v.2l-.1.2v.5l-.1.3v.1l-.2.3h.1c0 .1-.1.7 0 .8h.1l-.1.3q-.2.5-.1 1v.4q0 .3.3.4-.3.1-.2.4l.3-.4-.2.4-.3.3q.2.2.2.5l-.1.2-.1.2h.3l-.2.3.1.5q-.1.5 0 .8l.1.5q.1.3 0 .4v.4q0 .2 0 0-.2.2 0 .3v.2c0 .2.4 0 .2.3q-.2.3 0 .5t0 .5c-.1 0 .2.5 0 .6.1-.1.5.5.2.3q-.2.1 0 .5v.5c0 .1.2.6.3.5q-.2 0-.2.2.2.2 0 .4h.2v.2q-.1.4.2.5l-.2.1.1.3h-.1v.4q0 .4.3.3l-.1.2.2.1-.4.2.3.3v1.1h.4q0 .3-.3.2v.2l-.3.1h.4c-.2 0-.2.7-.2.9q0-.2.2-.1c0 .2-.4.3-.2.6v.2h-.2v1q0 .5.1.2v.3l-.2.3v.2l.2.1.1.2c0 .2-.2-.2-.3 0s0 .7.2.6q0-.1.2 0v.3h-.5v.3l.2.1q-.1.3-.3.3 0 .3.3.3h-.3l-.2.5h.2v.4l-.2.2v.4l-.2.2q.3.2.2.4H97v.4l-.1.3v.3l-.1.3v.5l-.2.4v.4h-.3l.2.4q.2.3-.1.2c.2 0 0 .5 0 .5l-.1.3v.7s-.4.3-.2.5c0 0 .4-.1.2 0v.4h-.2v.4l-.1-.1v.6c-.2 0-.2.4-.1.4v.4c-.1.2-.5.8-.2 1-.6 0 0 .5 0 .6q-.2.1-.2.4l.3.3q-.2 0-.2.3l.1.2h-.3v1.4q-.3 0-.2.4l.1.3v.4l-.1.6c.2-.2 0 .3 0 .5v2.1H95c0 .3.4-.1.4-.3Zm.5 8.6q0-.3-.2-.2zm1.3 2.4-.2-.5q0-.2-.2-.3c-.2 0-.1-.4-.3-.3.2 0 0-.6 0-.8v-.3q.2 0 .1-.2h-.1v-.4l-.3-.4v-.9q-.3-.1-.3-.5l.1-.3c-.1-.2-.2.2-.3-.2 0-.3.4.1.3-.3l-.2-.1v-2.2l-.2-.2c-.2-.3 0-.1 0-.2v-.5q-.3-.1 0-.2l-.4-.2h.3v-.4c0-.1-.2-.7 0-.6.2.2 0-.4 0-.5-.1-.3.4-.2.2-.4q-.3.1-.5.5l-.2.3v1.2c0 .2.3.6 0 .6.2 0 .1.5.2.6l.2.2-.2.2v1.2l.1.2v.6l.2.2v1q0 .3.2.5l.2.2h-.2v.4l.2.2v1l.3.4.2.3-.1.1.2.2c-.2-.2 0 .3 0 .4v.3c0 .2.4.1.3-.2v.2q.2.4.3 0Zm4.7 9q0-.3-.2-.1zm10.9 10.4c-.2-.3-.3 0-.2 0zM97.5 92q0-.2.1 0 0 .2-.1 0m2.1 4.1q.1-.5.2 0zm4.2 6.2.2-.2q0 .3-.2.2m2.6 2.8q-.1-.2.1-.1zm1 1.2q0-.3.2-.1.2.3-.1 0m22.1 9.4c.2 0 .3-.5 0-.6h-.4q0 .2-.4 0h-1.2l-.5-.3v.1l-.3-.2s-.2.5-.4.3l-.1-.3h-.3c-.2 0 0 .2-.3.2v-.3q-.3-.2-.5 0 0-.3-.3-.1c0-.2-.8-.2-1-.3q.7.3 0 .2l-.7-.3c0 .2.6.4.8.5l-.6-.2q-.3 0-.4-.2v-.2q-.4-.2-.8 0l-.5-.5-.5.2q-.1 0 0-.1l-.2.1v-.3l-.4-.1h-.8l-.1-.2h-.1l-.5-.1-.4-.2-.3-.2h-.1l-.6-.2-.6-.2-.5-.4h-.5v-.3l-.3-.1h-.4l-.4-.2c-.1-.1.2-.3 0-.4q-.3 0-.5.3l-.2-.3h-.2l-.2-.1h-.3v-.2q-.4 0-.3-.2l-.3-.2h-.1l-.4-.2-.2-.4-.4-.2q-.4-.1-.4-.3-.1.1 0 .4l-.2-.2-.3-.2q-.2 0 0-.3h-.5q-.2-.3-.4-.3h-.2q.2-.2.1-.3l-.6-.5.1.2q-.1-.2-.4-.2l.2.2q-.4 0-.4-.2.2 0 .1-.2l-.5-.4q-.2-.1-.2.1l-.3-.4h.3l-.4-.3.1-.3-.5.1-.3-.2-.2-.1.2-.2-.2-.2h-.2l-.3-.3q-.3-.4-.8-.7h-.2v-.4l-.6-.7h-.2v-.3h-.2l-.2-.1h-.4l.2-.4.1.2-.3-.5-.6-.6-.1.2-.1-.3-.4-.1c0-.1 0-1-.1-.8q.1.1-.1.1l-.2-.1c-.1-.2.2-.2 0-.4l-.1-.3-.3-.1q-.2-.2 0-.2s-.6-.3-.5-.5q.2 0 0-.3l-.2-.2v.3l-.2-.4-.2-.3.2-.1-.2-.2-.2-.1.1-.2-.4-.2-.2-.2V97s-.1-.4-.2-.3-.1 0-.2-.1v-.2q.2.2.2 0l-.2-.4q0-.3-.4-.4v-.2l-.2-.2q-.2 0-.2-.3s.3-.2 0-.3l-.1-.1V94l-.2.1v.2l-.2-.2v-.7h-.2l-.1-.3c-.2 0-.3-.6-.4-.7v-.6q0-.2-.2-.3l-.1-.2-.2-.2V91c-.1-.2-.6-.5-.6-.3v.2l.1.2q0 .4.2.7l.3.1v.6h.2v.2c0 .2-.2 0 0 .3l.2.3v.1l.4.6-.3-.2.5.6v.4l.2.2v.3h.1q.1.3.2 0l.1.1v.3l.2.4.1.2v.1l.2.2.1.3q.2.5.5.6t0 .2v.2l.3.3.2.3.2.4s.4.1.3.2l.1.4.9 1.1.1.1v.3l.2.3q0 .3.3.2l.3.3v.3l.4.4.2-.1.1.2.1.2v.2l.2.2.5.3q.3.1 0 .2l.2.1h.2v.2l.3.2q.1 0 0 0-.3 0-.1.2t.4.1c-.2.2.8.8.7 1l.5.4.4.4.6.3.3.4.2.2h.1q.2 0 0 .3c.1-.2 1.2.8 1.4 1q.3.1.5.4l.5.2h.3q-.2 0 0 .3h.4q-.2 0-.2.2.4.2.6 0v.3l.3.3q.1-.2.3 0l.3.1.3.1.3.4h.4l.2.3s0-.3.1-.1l.2.2.6.2.2.4h.5l.4.3h.3l.4.2q.4.3.6 0l-.2.2.3.1q.3 0 .3.2c0 .2.5-.1.4 0q.2.4.5.2l.1.2h.2l.3.2.3.1.4.2.6.2h.3l.1.2h.3q0-.2.2-.2 0 .2.2.3h.6q.2.3.7.3h.4l.4.3v-.1h.2q.3 0 .3.2c.1-.3.3.1.5.1h.7l.5.1.6.2h.3l1 .3.2-.1.2.1h.1q.8.2 1.6.1c.1 0-.2 0 0 0Z" class="cls-4"/><path d="M132.9 39c.3-.1-.1-.2 0 0m6.7 15.7c.4-.2 0-.3 0 0m7.1 13v-.2l-.1.1m2.2 6q-.1-.2-.2 0zm.2.2h-.2q0 .2.2 0m-16.2-36-.1-.2h.1zm1 1.6h-.2q.1-.2.2 0m5.7 13.4v-.2h.1zm4.9 11.4h-.2zm1 2.4v-.2zm5.4 12.6v-.4q-.1.2-.2 0v-.2h-.2l.1-.3.3.1v-.2q-.4-.2-.2-.3h-.2l-.1-.1c.2 0 0-.6 0-.7l-.6-.3h.3v-.2h-.2v-.2l-.1-.3h-.3l.2-.3q0-.2 0 0-.2.2-.2 0v-.3l-.1.1v-.3c.3-.3-.1.2-.1.2v-.3l-.2-.5-.1-.3v-.2h-.3s.5 0 .3-.1l-.2-.1-.2-.1q.3 0 .2-.2h-.4q-.1-.3.4-.5h-.5l.2-.3-.2-.1h-.2q.2-.2.1-.3v-.2l-.2-.2h-.3q.1-.1 0-.2v-.2h.2l-.3-.2c-.3-.2.1 0 .1 0v-.1q-.2 0-.1-.2s0-.3-.2-.1l.2-.1v-.1q-.3 0-.5-.2l.3-.1q0-.2-.2-.1l.2-.2s-.4.2-.3 0l.2-.3h-.2v-.5l-.2.1.1-.2v-.2l-.2-.3-.2-.2h.3l-.4-.3V68h-.2v-.5l-.1-.2-.2-.2V67l-.1-.1-.2-.4-.3-.2h.2l-.2-.1h-.2l.2-.2v-.1q-.3-.1-.1-.2h-.2v-.4h-.1V65q-.1-.1 0-.4h-.3v-.2l-.2-.4h-.3.1v-.3l.2-.2-.2-.1V63h-.3v-.4s-.3 0-.1-.2q.2 0-.2-.2v-.3h-.3c-.1 0 .2-.2 0-.2l.1-.2-.3-.6v-.1c-.3 0 .1-.1 0-.1l-.1-.2c-.1-.1-.5-.5-.3-.6h-.4q.3-.2.1-.3l.1-.2h-.3l.3-.2-.2-.1h-.2q.2-.3.3-.2h-.1l-.1-.1v-.1h-.2v-.2h-.2v-.2q.1.2.2 0l-.2-.2c.2 0-.1-.5-.2-.6h-.2q-.2 0 0-.1v-.6l-.1-.1q-.2 0-.3-.2h.2l-.2-.4q0-.3-.3-.3h.3v-.1q-.2 0-.2-.2h-.1v-.3h-.2V55l-.2-.2v-.2l-.2-.2q.2 0 .2-.2V54h-.2l-.1-.2q.1-.2-.2-.4c-.3-.2 0 0 0-.2V53l-.1-.4q0-.2-.2 0l-.2-.1.2-.2V52l-.2-.1v-.1l-.3-.1.2-.2q-.1-.2-.4-.3-.1-.2 0-.2t.1 0l-.1-.2-.2.1.1-.3h-.3q.2 0 .1-.3 0-.1-.2 0V50h.1v-.3s-.4 0-.2-.2c.3-.1 0 0-.1-.2v-.2h-.2l.2-.2-.1-.2-.1-.1h-.3l.2-.2h-.1q-.1 0 0-.2h-.3l.2-.2-.2-.2v-.2l-.2-.8v-.3l-.3-.4q0-.3-.3-.5l-.2-.2-.1-.1V45l-.2-.2-.3.1.2-.2v-.2l-.1-.4q0-.2-.2-.2v-.4h-.3q-.2-.2.1-.2l-.1-.2q-.1 0 0-.2l-.1-.3-.1-.4-.1-.2-.5-.7h-.2l.2-.2-.1-.1v-.1l-.1-.4-.2-.3-.5.1.2-.2.2-.1-.2-.2.1-.4-.1-.2-.2-.2h-.1v-.4l-.2-.2h-.2V38l-.2-.7q0-.2-.2-.2h-.1l.1-.2v-.1l-.2-.3-.1-.1-.2-.1.1-.1v-.3l-.2-.3q0-.2-.2 0c-.2-.1-.3.4 0 .2v.5l.1.2q.3.4.4.9 0 .5.4.5h.2l-.2.1-.4.3h.1l.1.1v.2l.3.1.2.1-.2.2v.1l.2.1h-.1c-.1.2.3.3.2.4l.2.2v.1h.1l-.2.2q.2 0 .2.2v.2h.1v.1h.2v.4l.1.2h.1v.2q.3 0 .2.1v.3h.2l-.2.1.2.1v.5l.2.2q.2 0 .1.2v.3h.2q-.2.1.1.3v.5l.2.1q0 .2.2.3l.1.3.1.4v.1l.1.2.1.2.1.1q0 .3.2.3c-.3 0 0 .5.2.6 0 0-.3.3 0 .3q.3 0 .2.1l.1.2h-.1v.2l.1.4q0-.2.4-.2h-.2v.5h.1v.4l.3.4.2-.1-.2.2h.2l-.2.2h.3q-.1.2 0 .2l-.1.2v.2h.1l.2.3h.1v.5h.2v.2h.1l.2.3v.2l.2.2v-.2.4l.2.2v.3q.1.1.1 0v.5q.2-.2.3 0h-.2l.2.1v.5l.4-.1-.1.1v.6h.1v.2l.3.2c.3.2-.1.3-.1.4l.1-.1v.2l.1.2v.1q.2 0 .1.1l.2.3.2.1q-.3.2-.1.2t.3.3l-.1.3v.3h.1v.3q.2-.1.2 0v.3l.3.3v.3l.1.1h.2l-.3.1h.2l.3.1-.3.1h.2v.4h.2v.2l.1.3v.1h.2q-.2 0-.2.3l.3.3h.1v.7l.3.2h.2v.3l.2-.3v.3l-.3.2.3.2-.1.2-.1.1.3-.1-.2.2q.2 0 .3.2t0 .4l.3.2-.1.3.2.1-.1.1v.2c0 .2.5-.1.3.1v.3q.4 0 .1.2l.1.3c.1 0 .5.2.2.2q-.1 0 0 .2l.1.2.2.3-.1.1.1.2.1.1q0 .3.2.2l-.1.1.1.1-.1.1v.2h.4l-.1.2h.2l-.3.2h.2q.3.1.2.4 0 .2.2.2l.3-.1-.3.2v.1l-.2.2.4-.2q-.2.3 0 .5h.1q-.2 0 0 .3h.1l-.2.2.2.2v.3h.2l.1.1v.3h.3l-.2.2q0 .2.3.2 0-.2.2-.1v.1l-.3.2v.1h.3l-.1.3h.3l-.2.1v.3l.2.1v.2l.1.1q-.1.1 0 .2h.3l-.2.1.1.2v.2h.2v.3l.2.2v.3h.2l-.3.2.3.1q.1 0 0 .1 0 .2.2.2v.3l.3.2s-.3.3-.1.3q.2-.2.2 0v.1h.2l-.3.1.2.1h-.1v.2h.1v.3l.2.2q-.1.4.2.6c-.5.2.2.1.2.2v.3h.3l-.1.2h.2l-.3.2.1.1.2.2v.6h.2v.3l.1.3q.3-.1.2.2l.1.2.1.2q.3.1.2.3t0 .2h.2l-.2.2zm1.5 4.4q.1-.1-.1 0zm1.1 1-.1-.2-.2-.1-.2-.1v-.6q.2 0 .1-.2h-.1v-.2l-.3-.1v-.5l-.3-.2.1-.2h-.3c0-.2.3 0 .3-.3h-.2l-.1-.3q0-.5-.2-.8l-.2-.1q-.1 0 0-.1l-.2-.2q-.1 0 0-.2h-.3.2l-.1-.2s-.3-.3 0-.3-.2-.2-.2-.2c-.1-.2.3-.3.1-.4l-.4.5v.3l.1.3q.2 0 .1.2s.4.2.1.3q.3 0 .2.3h.2v.1c-.3.1 0 .2 0 .3s.1.4 0 .4h.2v.4h.2v.3l.1.3.2.2h.2-.2v.3h.2v.2l.1.4.2.2h.2q-.2 0-.2.2h.3v.3l-.1.2s.4 0 .3-.2q.2.3.3 0Zm5.4 12.6q.1-.2 0 0m-5.3-11.5q0-.2.2-.1 0 .1-.2 0m1.2 2.2q.2-.4.2 0zm1.5 3.7.2-.1q0 .2-.2 0m.8 2h.2zm.3.8q0 .2-.1 0m-2.7 9.8.1.6h.3q0-.3.2-.3h.4q0-.2.2-.3 0 .2.3.2v-.1h.2s-.2-.4 0-.3l.2.2.1-.1v-.3l.2.2q.3 0 .2-.1.2.1.2-.1l.4-.3q-.2.1 0-.1l.3-.2h-.5l.2-.1h.5l.1-.3q.2-.3.4-.2v-.5l.1.2.2-.3v-.4l.2-.1v-.5l.1-.2v-.4q.2-.1 0-.3l.1-.3v-.7h-.1q.2-.1 0-.2.2 0 .2-.2-.1-.2-.4 0l.1-.3-.1-.1h-.1l-.1-.2h.1v-.5h-.1l-.1-.2v-.4q-.2-.1-.1-.3l-.3.2v-.3q-.1 0 0-.2l-.1-.1q0-.2-.2-.3h-.1q.2 0 .2-.2l-.1-.3h-.2s-.3 0-.1-.1l.1-.1-.1-.4-.2.1v-.3l.1.1v-.3l.2-.1h-.4l-.1-.2h-.1q0-.2.3-.2l-.1-.1h-.2v-.3l-.3-.5h-.1v-.7h-.2l.1-.2h-.2l-.4-.1.3-.2v.1-.3l-.2-.4-.3.1.1-.2h-.3c.1-.1.5-.6.2-.5h-.2l.2-.3V90h-.3v-.2h.2s-.5-.1-.4-.2q.2 0 .2-.2l-.1-.2-.2.3V89h-.1l.2-.1-.1-.1-.2-.1.2-.1-.3-.1v-.2l-.1-.2h-.2V88h.3l-.2-.2q0-.2-.2-.3v-.1q-.3 0-.2-.2s.3-.2.1-.2h-.2l.1-.1v-.2h-.1v.2l-.2-.1v-.4l-.1-.1q-.2-.1-.3-.4t.1-.1v-.2l-.1-.2-.1-.1h-.1V85h-.5v.6h.3v.2q0 .2.1.1l.1.1-.2.2h.2l.1.2.2.2h-.3l.4.3v.5h.3v.6l.2.1v.2l.3.3v.1q-.2 0-.1.1l.1.2.1.2v.2l.3.1-.1.3.2.5.1.1.1.1v.4h.1l.2.3v.4h.2v.4q0 .2.3.3.1 0 0 0v.2h.1v.1l.2.1h-.1l-.2.2h.3c-.3.2.3.6 0 .7q0 .2.3.3v.3l.3.3v.2l.1.1h.1l-.2.2c.2 0 .4.7.4.8l.1.4.2.2h.2q-.1 0 0 .2l-.1.2h.3l-.1.3v.2h.2v.2l.2.1v.6q.1-.2.2 0v.4l-.1.2v.1h.1v.7q0 .2.2.3h-.2q.2.2 0 .3c-.2 0 .3.2 0 .2v.2h-.1v.1l-.1.2v.2l-.1.1-.2.3v.1h-.1v.2l.1.2h-.2l-.1.2-.3.3-.1.1h-.2v.2h-.2c.2.3-.2 0-.2.2v.2h-.3l-.2.2-.2.1-.1.1h-.6v.2h-.2q-.5 0-.8.2Zm-10.2-23.8c-.4.2 0 .2 0 0m-5.1-12c-.4.2 0 .2 0 0m-5.6-9.8v.1h.1zm-1.6-4.5h.2zm-.1-.2h.1q0-.1-.1 0m12.3 27.5.1.1h-.1m-3.7-8.4h.2zm-1.4-3.2v.2h-.1zm-2.9-7.5-.1.1h.1m-.8-1.3h.2zm-.8-1.8v.1zm-4-9.7v.2l-.1.2.3-.1-.1.2h.2v.2q-.3-.2-.4 0h.1q.3.1 0 .4h.4v.5q0 .2.5.3h-.3q-.2.2 0 .2h.1v.1l.1.2h.3l-.2.3q.1-.1.2 0l-.1.1h.2l-.2.2c-.2.3.2-.1.2-.1q-.2.1 0 .2v.4l.2.2v.1h.2s-.4.1-.2.2h.2l.1.1-.2.2h.4c.2 0-.3.3-.4.3h.5l-.2.2.1.1h.2q-.2.2-.1.3l-.1.1h.1l.2.2h.2v.2h-.2q0 .2.3.2h-.2.1q.2 0 0 .2 0 .2.2 0v.1l-.2.1.5.2h-.3q0 .3.2.2l-.2.1h.2l-.1.2.1.4.2-.1-.2.2v.2l.2.2.2.2h-.3l.4.2-.1.1v.2h.2v.4l.2.2v.2l.1.1.2.3.2.2h-.2.3v.4h.1v.3h.1v.5h.3l-.1.1v.1s.3.3.1.3h.3l-.1.1v.2h-.2l.2.2v.3q.2-.2.2 0v.3h.1q-.2.3.1.2v.3c0 .3.2 0 .3 0v.1l-.1.2q0 .3.2.5.1.1-.1.2h.2v.1s.4.4.2.4h.3v.3l-.2.1h.3l-.3.2h.4v.1q-.2 0-.3.2h.2v.1h.2q-.1 0 0 .2h.1-.2l.2.2q-.2.2.1.5c.3.3.1 0 .2 0q.3 0 0 0v.6q.2 0 .3.2-.1-.1-.2 0l.1.3q0 .2.3.1h-.2v.2h.2v.3h.2q.2 0 0 .2l.1.2v.1q.2 0 .1.1v.4q0 .1 0 0h.1v.1q-.1.2.1.3v.3l.1.4h.4l-.2.1v.2l.2.1-.1.1h.3l-.2.2.3.2q.1.1 0 .2h-.1l.1.1h.2l-.2.2h.4q-.2 0-.2.2h.2v.1l-.1.1v.2q.2 0 .1.1t.2.2v.2h.1l-.2.1.1.1.1.1h.2l-.1.1q.2.1.1.2h.2l-.2.2.2.1-.1.2.2.6v.2l.2.3q0 .3.3.4l.1.2.1.3.1.2.3-.1-.2.1v.5l.2.2v.3h.3l-.2.2h.2v.5l.1.3.1.1.4.5q0 .1.2 0l-.2.2v.1l.1.4.2.2.5-.2-.3.2q-.2 0-.1.2l.2.1-.3.3.2.1.1.2h.2l-.1.2.1.3h.3q-.2.1-.1.2l.2.6.1.1.1.1v.4l.2.1h.1v.4l.1.2h.2c.2 0 .4-.4 0-.2V82l-.4-.7c0-.1 0-.5-.3-.4h-.2.2l.4-.3-.1-.1v-.2h-.3s-.3 0-.1-.1l.2-.2h-.1l-.1-.3-.3-.1.2-.1h-.2l.2-.2q-.3 0-.2-.1V79l-.1-.1h-.1v-.3l-.1-.1-.1-.1v-.1q-.3 0-.2-.1.2 0 0-.2h-.2.2l-.1-.2v-.4l-.1-.1q-.2 0-.1-.1v-.3h-.2q.2-.1 0-.2-.1 0 0-.1v-.1q-.1 0 0-.2l-.2-.1-.1-.2-.1-.2q0-.2-.2-.3l.1-.1v-.1l-.2-.2V75q0-.2-.2-.2c.3-.1 0-.5-.1-.5s.2-.3 0-.2l-.2-.1v-.6l-.4.2.2-.1v-.6l-.3-.3h-.2l.2-.1h-.1l.1-.2h-.2v-.2l.1-.1v-.1h-.1l-.1-.3h-.2v-.3l-.1-.1V71h-.1l-.1-.2q-.2 0-.1-.1l-.1-.2v.1l-.1-.1v-.3q.2-.2 0-.2h-.2l.1-.2v-.2h-.3.2-.2v-.5l-.3.1h.1v-.7l-.3-.1.1-.3V68l-.1-.2h-.1v-.2l-.2-.2h-.1q.3-.2 0-.2t-.2-.2l.1-.2v-.6s-.4.2-.3 0q.2 0 0-.1l.2-.1-.3-.2v-.2l-.1-.1h-.2l.3-.1h-.5l.3-.2h-.2v-.1l.1-.2h-.2v-.5h-.2l.2-.1h-.1l-.2-.3h-.1v-.5l-.2-.1q0-.1-.2 0v-.3l-.2.3.1-.3.3-.2-.3-.1.1-.1.1-.1h-.3l.2-.1q-.2 0-.2-.2l-.1-.3-.2-.2.1-.1-.1-.2q.1 0 0-.1v-.1c0-.1-.4.2-.2 0V61q-.3 0 0-.1l-.2-.3h-.1v-.3l-.1-.1q0-.2-.2-.2l.2-.2h-.1l-.1-.1q0-.3-.2-.2l.1-.1h-.1l.1-.2v-.1h-.3V59h-.1l.3-.1h-.2q-.2 0-.2-.3l-.1-.2-.3.1.2-.1.1-.2h.1-.3v-.3c-.1 0 .2-.2 0-.2l-.2-.1h.2l-.1-.2V57h-.2v-.3h-.4l.2-.1-.2-.1h-.2l.3-.2v-.2h-.2c-.2 0 .2-.1 0-.1h-.2l.2-.1v-.3h-.1v-.2h-.2l.1-.2h-.3l.1-.1h.1l-.1-.1v-.2h-.1v-.2l-.2-.1.1-.3h-.2l.2-.2h-.2q-.1 0 0-.2h-.2v-.3l-.2-.2q.2-.1.1-.2-.2.2-.3 0h-.1l.3-.2h-.2.1v-.2q-.3 0 0-.1l-.1-.1-.2-.2q.1-.3 0-.4c.4-.2-.3-.1-.2-.2q.1 0 0-.2h-.3l.1-.2h-.2l.3-.1-.1-.1-.2-.2v-.2q.2-.1 0-.2h-.1v-.4q-.2 0-.2-.2v-.2h-.2v-.2l-.1-.1v-.2h-.2l.2-.1-.3.2Zm-1-3.4q-.2.2 0 0m-1-.7v.2h.2c.2 0 0 .2.3.1q-.2.1-.2.4v.3-.1.2h.3v.4l.2.2v.2q.1-.1.2 0-.2 0-.3.2h.2l.1.2.1.6h.2q.2.1 0 .2v.1q.4 0 0 .1h.4l-.2.1v.1q.3.1.1.2t.1.2c.1.1-.3.3-.1.3l.4-.4v-.5q-.2 0-.1-.1c0-.1-.3-.2 0-.3q-.3 0-.2-.2h-.2V48c.3-.1 0-.1 0-.2v-.3h-.1v-.2l-.2-.1v-.5l-.2-.1h-.2.2v-.3h-.2v-.1q.2-.2 0-.3l-.1-.1h-.2l.1-.2h-.2q.1-.1 0-.2l.1-.2c0-.2-.4.1-.3.2zm-1.8-3.8h.1zm-2.3-5.8c-.2.2.1 0 0 0m3.1 7.1h.1q-.2.4-.2.1zm-1.1-2.8-.2.1h.2m-.6-1.5h-.2zm-3.9-9.9-.6.3.1.2h.2v.4h.3l-.2.4h.2l-.1.1h.3l-.2.2h.3l-.2.2.1.2q-.1 0 0 .1l.2.4q0-.3.1 0v.2q.3-.1.2-.4v.4l-.1.2.2.2-.1.3h.3v.2h.1-.2v.2l.2.2h.1v.1l.1.2.1.2v.1l.1.3q0 .3.2.2v.3l.2.1-.2.1v.2h.3q-.2 0 0 .2-.2 0-.2.2h.5l-.2.1h.2v.1h.2v.2l-.1.1v.2h.1l.1.2v.5l.3-.2v.2q.1.1-.1.2l.2.1.2.2-.2.1v.3h.3s.3 0 0 0v.4h.3v.2h-.2v.2l-.2.1h.4v.1h.2l-.3.2.2.1v.1l.2.4h.1v.6h.2l-.2.1h.6l-.3.3V40v.2l.2.3.2-.1v.2h.2c-.1 0-.5.5-.2.4h.1l-.1.2v.1h.2v.2h-.2s.4.1.3.2l-.1.1v.2l.2-.2v.2h.1v.1h-.2l.1.1h.1l-.1.2h.2l.1.1v.3h.2l-.3.1.2.2.1.1v.1h.1l.1.2q-.2.1-.1.2h.1v.2-.1l.1-.1h.1v.4h.1q.3.1.2.4c0 .3 0 0 0 0v.3l.1.1h.1v.2h.5v-.4h-.3v-.2q0-.1 0 0l-.1-.1.1-.2h-.2V44l-.2-.2h.3l-.3-.2v-.4h-.3l.1-.2-.1-.1v-.2h-.1v-.2l-.2-.2q-.1 0 0-.1V42h-.1v-.3h-.2v-.2l-.1-.4-.1-.1h-.1v-.2l.1-.2h-.2v-.5h-.3v-.3q0-.2-.2-.2v-.1h-.1v-.2h-.1v-.1l.2-.1h-.3c.3-.2-.1-.5 0-.6q.1 0 0-.2l-.2-.2-.2-.2v-.2h-.2l.2-.3c-.1.1-.3-.5-.3-.6v-.2l-.2-.2h-.2l.1-.2h-.1.2l-.3-.2.1-.2h-.2v-.1l-.1-.1v-.2l-.2-.1.1-.2q0 .2-.2 0v-.5h-.1v-.3h-.2V34q0-.3-.3-.2h.2v-.1q-.4 0 0-.2h-.2q.1-.2-.2-.3h.2v-.3l-.2-.1v-.4h-.2v-.2h-.2l.1-.2-.2-.2v-.3l-.2-.1.1-.2h-.1q-.1-.1 0-.2c-.3.1 0-.1 0-.2h-.3v-.2l-.1-.2v-.2h-.2q.2-.4 0-.6v-.1h-.1c-.2-.1 0-.6-.3-.6M161 214c0-.4-.9 0-.3 0zm27.3-26.5c.3.2.5-.8.1-.2zm2.4 5-.2-.2q-.4 0-.3.2zM227 167l-.5.5.2-.2zm21.3-9.4q-.5.3 0 .2t0-.2m1.5-.3q-.2 0-.2.2.8 0 .2-.2m-93.5 56h-.6l.2-.1q.6 0 .4.1m7.4.2h-.6l.3-.2q.4 0 .3.2m34.8-11.6q0 .3-.2.5-.2 0 0-.3zm-4-15.4q.5.3.3.4l-.1-.1zm22.5 1.1c-.3.3-.4 0 0-.1 0 0 .3-.1 0 .1m4-6v-.1.4zc0-.2-.2.3 0 0m3.7-9.4-.3.7v-.3q0-.4.3-.4m27.8-14-.4-.3h.2zm-10 .9c0 .3.4.7.2.8.1.2.5.6.4.7s0-.4.2-.1l.5.9v-.1l.4.3q.4.4.2.6l-.6-.5q0 .5.4.6c.3 0 1.1 1 1 1.1h.3l.5.3.8.7.7.4.5.1q1.3.2 2-.3c-.1.1-.6.4-.4.4l.3-.1h.1l.5-.1.2-.3.5-.3h.1l.7-.7c.3-.4 0-.5-.1-.3l.4-.4.4-.4q.4-.4 0-.2c0 .1-.3.3 0-.1l.4-.6.2-.2h-.3l.5-.6c.4-.7-.3.1-.3 0 0 0 .5-.7.3-.8v-1q-.4-.7-.8-.8l-.5-.2-.5-.1-.7-.2-.6.2s.7-.4.1-.3l-.7.2c0 .1-.5 0-.5.2q.1-.2-.5-.2l-.6.5c-.8.4-.9-.2-.9-.3l-1 .6-.5-.2-.6.2-.6.3c-.2 0 .1-.4-.6-.1q-.7.2-.7 0-.3 0-.3.2l-.8.2-.1.2-.5.2h-.3l-.7.1.2-.2.3-.1c-.7.1-.8.4-1.3.6s0-.2 0-.2l-.4.2q-.2.3-.5.2c-.3 0-1 .2-.7.3h-.3v-.1h-.3c-.6.4-.4.6-1 .9q0-.2-.2-.2-.5 0-.6.3 0-.2-.5 0s.3.2-.1.3h-.7l-.6.4-1.2.7c-.3.2.2 0 .1.1q-.4.3-.7.2l-.7.4q-.6.4-1 .9l-.8.8s.4-.8.1-.5l-.9 1.2-.5.3-.5.7-.2.4-1.1 1.2v.1l-.4.5-.4 1-.5.7-.2.5-.7 1.4-.3 1.2v-.2l-.2.5v.5h-.2l-.2.7-.3.7v.3q-.2 0-.4.6l-.2.7v.1l-.5 1-.5 1c-.2.5.1.1 0 .4l-.2.4-.2.3c-.1.3-.5 1.6-.6 1.5q.2 0 0 .4l-.1.1-.2.3-.3.6-.2.2v-.2c-.2 0-.3.6-.4.7l-.9 1.1c-.3.4.3.3-.3.7q-.4.2-.8.7c-.1 0-.3.6-.5.5s-.6.4-.8.6q-.4.3-1 .4c-.4.2 0 .3-.1.4l-.8.1q.1 0 0 .1l-.4.1c-.3 0 .1-.2-.4-.1l-2.4.6-.5.1c-.4.3-.1-.1-.2-.1-.4 0-.2.3-.8.3h-.3c-.3.1-2.1.7-2.2.5l-.7.4h-.7l-.5-.1-.8.4v-.3q-.6 0-.8.3s.3 0 0 .1h-.4l-.1-.3-.2.2-.6.2h-.4l-.3.2h-.6l-.3.1-.5.1c.4 0 1-.3.3-.2-.3 0-1 .1-1 .3 0-.2-2 0-2.4.1-.5 0-.3.1-.3.3h-.5c0-.2-1.2-.2-1.8-.2h-.9q-.3.3-1 .3 1-.1.1-.2H191q-.8-.2-1.2 0 .3-.1.2-.3l-.4-.1-.7-.2h-.2q-.3 0-.4-.4l-.2-.4-.1-.4v-.6q.3.2.2-.2l.2-.7v-.4l.1.2c.2-.4.1-.3.1-.6q0-.4.4-.6c.2 0 0 .1.3-.2l.7-.6q.1-.2 0-.2 0-.2.4-.3l.5-.2h1.9l.8.4.8.4q.6.5.5.6.4.3.5.2t.4.2v.3l.6.6.5.6v.2c.2.4.5.2.7.5.2.5-.2.2-.1.5q.4.8 1 1.4l.2.7q-.4-.8-.2 0c0 .1.2.7.3.6l.1-.2v1l.3.1.2.4q-.3-.2-.1.6c0 .1.1 1 .2.7v.5h-.2v.7c0 .6.3.7 0 1.1-.3 0 0 .4 0 .8l-.3.8v.4l-.2.3-.2.6-.2.7-.1.6-.2-.1-.2.5q0 .3-.2.4v.3l-.3.4-.2-.1-.6.9-.4.4-2.6 2.2h-.2l-.5.4-1.5 1-2.1 1.2-.7.4-.5.2q.2 0 0 0-.7.1-1.3.4l-.9.3.2.3-.6-.1q-.1-.2-.8.1l-1.4.4h-.3l-.6.2q-.7.3-1.4.2t-.8.4q-.5.2-.3-.1l-.7.2q-.5.2-.8 0-.6 0-1.1.2c-.3 0-1.5.2-1.5 0l-1 .2-3 .3q-.7 0-.8.3l-.2-.2h-3.6c-.2.2 0 .4-.3.5 0 0-.8-.1-.4-.2q.5-.2-.4-.2h-1c-.2 0-1.1-.2-1-.3q-.2.2-.8.1h-1l-.5.1-.4-.1h-1.6q-.5-.2-.6 0t-.5.1q.2-.2-.4-.2l-3-.3h-1c.3.2-.3.1-.5 0h-.2l-.5-.2h-2.4l-.2-.1-1-.2-1.6-.1h-.3c-.6.2 1.1.7 1 .3 0 0 1.2.2 1.4.4h1.2l3.6.3c.7.1 2.3.4 2.4 0l.3-.1q.3.1.2.2l.2.5h.8c.3 0 .8 0 .7.1 0-.2.7 0 .8-.2 0 0 .3-.3.7 0 .2 0 0 .1.3.2h1.1c.2.2 1-.1 1.5 0l.9-.1.3.2c.2 0 0-.2.3-.2l.3.2q.3-.2 1 0h1.6c.4-.1 0-.1.3-.2h2c.1 0 0-.2.5 0h.5q.1-.3.7-.2.3.2.7 0l.8-.2s-.4.2-.2.2l.8-.1h1.6l1-.2q.5-.2.8-.1h1q.3-.1.2-.3c0 .3 1 0 1.4-.2h.6q-.2 0 0 0t.4 0l.9-.2q.2.1.6-.2l1.2-.3 1.2-.4q.7 0 1.4-.4h.5l.6-.3.9-.4c.3-.1.1-.2.5-.2.4-.1 1.2-.4 1.1-.6q.2.2 1-.3l1.2-.8q.6-.1 1.1-.6 0-.3.5-.5l.7-.6v.1q.3 0 .5-.3l1.1-1q-.6.4-.5 0c.3-.4.3 0 .3 0l.5-.6q.4 0 .5-.3t.2-.5q.5-.3.8-.8l.3-.7.5-1-.1-.2q.2-.4.3-.3v-.4l.3-.2v-.7l.3-.6q-.1.1-.1 0v-.3l.3-.2v-1l.1-1.2q0-.8-.1 0v-2.1l-.2-.6-.1-.5h-.1l-.4-1.2-.3-.8-.4-1c-.2-.1 0 .4 0 .5l-.2-.7-.2-.6c-.2-.4-.4-.4-.5-.8-.1-.1-.2-.6-.4-.6q-.2.1-.5-.4 0-.2-.3-.5l-.7-.8s0 .4-.3 0c-.3-.2 0-.1 0-.2l-.5-.1-.4-.3c0-.2-.8-.7-1.2-.7s0 .3-.2.2l-.4-.2-.7-.2-1.4.1-.4.4-.4.1c-.5.4-.5.8-.8 1.2l-.8 1 .1-.1-.3.6-.3 1v.5l-.1.6q0 .5.3.8t.6.5l.7.2q-.1.2.6.3.6-.2 1.3 0l.8.3h1.6l1 .1c-.1 0-.2-.4.4-.2h.8l.2.1c0-.2 1.3-.1 1.3-.3h1.2l.6-.2.2-.1v.3l.5-.3.5-.3v.3l.5-.2h1.1l.4-.2h.7l1-.2h.6l.3-.3q-.1.3.5.2v-.1l1.6-.3s-.3-.2 0-.2h.7l2-.3q.3 0 .8-.3.6 0 .6-.3s.8.2 1 0c0-.1-1 0-.9-.2h.8q.6 0 .7.2l1-.5h.4c0 .2.4 0 .4 0l-.1-.3h.7l1-.5.7-.4.7-.5c0-.1.6-.5.7-.8.2-.4.4-.2.6-.4l.4-.7q.3-.4.3-.1l.3-.5q0-.2.2-.3c.3-.3-.4-.2.1-.5q.5-.4.6-1t.5-.8c.2-.1.3-1 .5-1.2-.2.1.1-1.2.2-.7q.3-.1.4-1l.3-.6.1-.2c.2-.2.4-1 .3-1l.3-.3.2-.7v-.2l.2-.3q.5-.7.2-1 .2.1.3-.2v-.6q0 .4.3 0l.3-.7v-.6q0-.4.3-.4l-.1-.3h.4l.1-.8q.1-.5.5-1.1c.2-.2.6-.9.5-1l-.2-.2c.1-.3.3 0 .3 0l.4-.4.3-.1-.3-.2 1.2-1.3q-.2.2-.3 0c.4-.3.7-.2 1-.8 0 0 .1-.4.3-.4 0 0-.1.4.1.1l.7-.7q.3-.4.8-.6c.4-.3.5-.7 0-.3l.7-.5.5-.2.3-.3q.2-.1 0-.2-.2.2-.1 0l.4-.4c.4-.1-.1.4.3.2l.8-.7q-.5 0-.2-.2l.6-.3c.3 0 0 .5.1.4l.7-.3.1-.3c.3-.3.4 0 .7-.2q.5-.3.3-.4l.2.2 1-.2c0-.1-.3 0 0-.2l.6-.3.6-.1c.3-.1.2-.3.6-.3h.5c.2-.2.1-.3.6-.5v.2l.8-.3.6-.1.6-.2.7-.1.9-.3h.9l.7-.3q.4 0 .3.2l.6-.3c.3-.3.4 0 .4 0 0-.1 1-.1 1-.3h.8l.4-.2.8-.3c.1 0 .8.3 1 .1 0 0-.4-.3 0-.2h.7l.2-.1c.1 0-.3.2-.2.3h.8l-.2.1.5.1q.5 0 .5.3l.1.3.2.2.2.6-.1.4-.3.6-.2 1c-.5-.4-.2.7-.4 1q-.4-.1-.6.4l-.2.7c-.2 0 0-.2-.5.2l-.3.3q0-.2-.2-.2-.4 0-.5.3l-.8.2c-.3 0-1 0-1-.3q0-.2-.7-.4h-.5l-.6-.6-.8-.7c0 .4-.6-.4-.8-.7l-.5-.6-.1-.1-.3-.4-.3-.4-.4-.7-.3-.8c-.2-.3-.2 0-.4-.3q.2 0 0-.3c-.1-.5 0 .5 0 .8Zm-.2-16.6q-.4.3-.2.5l.1-.3zm2.5-4.7-.8.8-.3.7c0 .2-.5.5-.3.7-.2-.2-.7.7-1 1q0 .3-.3.5l-.4.4h.2l-.5.8q-.2.5-.1.9v.2l-.3.5q-.2.3-.3 1l-.2 1.1-.3.5c0 .5.4-.2.2.5 0 .6-.3-.3-.3.4v4.8q0 .4.3.6c.2.4 0 .1 0 .3l.2 1q.3.2 0 .4l.5.3-.2.3.2.6c.1.2.6 1.2.3 1s.4.8.5 1c.2.5-.2.6.1 1 .2-.1 0-1 0-1.3v-.6l-.3-.5q0-.5-.3-1-.2-.3-.1-.6c-.2-.5-.6-1.2-.3-1.3-.2 0-.3-.9-.3-1.2 0-.4-.1 0-.2-.3v-.4c.3 0 0-.6 0-1l.1-1.3c0-.2 0 .2 0 0v-1.2l.1-.4-.1-.4.3-1 .3-1 .1-1v-.5l.2.2.3-.8v-.4l.3-.6c.4-.6.5-.5.7-1.1q0-.5.4-.9l.2-.5s.1.3.3 0l.2-.6c-.2.4.4-.5.5-.6.3-.3.2 0 .4-.2q.3-.6-.3-.2l.2-.3q.5-.6 0-.4m8.1 5.3q.4-.5.2-.5l-.1.2zm-26 15q.9-.1.3-.2zm20.6-22.5q-.4.2 0-.1c.1-.1.4-.2 0 .1m7.3-.1-.1-.5q0-.7.3.2zm-6.3 13 .2.3q-.5 0-.2-.2m-6.3 4.7q.4-.2 0 .1c-.1 0-.4 0 0-.1m-3 1.3q.4-.2 0 .1-.8.3 0-.1m-48-2.7c-.3 0-.7.4-.3.6l1 .4c.2 0 .2-.2.8.1l1.5.6.8.1c.4.2.4.4.9.6l.1-.1.6.3s.3-.4.7-.1l.2.3.6.2c.4 0 0-.3.7 0l.1.2q.6.3.8.2 0 .3.7.2c0 .2 1.7.5 1.8.5q-1-.4.2-.1l1.5.4c0-.2-1.3-.5-1.7-.6l1.2.3q.6 0 .8.3c.2.3-.2 0 .1.2.7.3 1 0 1.5.2q.9.2 1.3.5l.7-.2c.5 0 .2.2.4.2q.3 0 .2-.2v.3l1 .2h1.4q.3 0 .3.2h1.3l1 .2.5.1h.3l1.3.1c.4 0 1.2.2 1.3 0l1.1.3h1.3l.6.1h.7v-.2c0 .2.7 0 1 0s-.1.4.4.3c.6 0 .3-.3.5-.4s.7.1.7.2q0-.2.3-.2h.4l.1-.1.5-.1q-.1.2.4.1h1.3l.2-.2 1-.1h.7l1-.1c.2-.2 1-.1 1-.1.3-.2-.5-.2-.6-.3h.5l.7-.2q.4-.1.5.1l.3-.1.5-.2 1-.3.4-.2c.1 0-.4.4 0 .3l1.6-.4s-.4.1-.4 0l.7-.3h-.5c.4 0 .8-.4.9-.2q-.2.2 0 .2l1.4-.5c.3 0 0-.1 0-.2.2 0 1-.3 1.1-.2l-.6.3 1.2-.4.2.2q.1-.3.5-.6l.6-.3q.1-.2.4-.3c.2 0-.2.3 0 .4l.6-.3.3-.3.7-.4 1.8-1 .3-.4h.5l1.5-1.2.2-.3h.4l.2-.4.3-.3.2-.6h.4l-.4.4h.2q.4-.5.8-.7c.2 0 1-1 1.3-1.3h-.4l.6-.4.2-.6c.2 0 1.4-.8 1.2-1l-.2.3v-.2l.2-.5c.3-.3.2.2.5-.2l.4-.7.1-.5.3-.4v.2c.1 0 .3-1.2.5-1.3l.4-.4.2-.6s-.6.8-.4.4l.5-1 .1-.4q.2-.2 0-.2c.1-.2.2.2.2.2l.2-.5v-.5q.2-.2.2 0v-1l.2-.5.2-.2v-1.6s.2.7.2.2l-.1-1q0-.6-.4-1l-.2-.3-.4-.4-.3-.1-.3-.2s-.1-.5-.5-.3h-.4l-.2-.1h-.5v.2h.4c.1.1-.5.1-.6.2h-.6l-.6.2-.3.2q-.3 0-.4.3l-.7.4-.7.5q-.3.1-.4 0l-.6.5q-.4.2-.5.5l-.4.3-.2.3-.6.6c-.3.2-.6 1-.3.8l.7-.5 1-.9c.2-.2-.1-.2.2-.4l.6-.4.2-.1q.4-.1.2-.3l.4-.2c.2-.1 0 .3.4 0l.5-.5.3-.2 1-.7c.3 0-.3.4-.3.5l.6-.3.7-.3h1q.3 0 .4.2h.2q.3.3.2 0h.2q0 .3.2.5l.3.6.1.5v.2l.1.5v.6l-.2 1.4-.1.4q0-.3-.2.2l-.2.8-.2.6-.4.8v.7q-.4.1-.6.7l-1 1.8-.3.6v.4l-.5.3-.4.5-.3.5-.5.7-.5.4-.7.6v.2l-.3.4-.4.2-.3.1-.3.4-.8.8q-.4.6-.4.2l-.3.3v.2h-.4l-.5.6c-.3.3-.1 0 0 0q.2-.4-.3-.1t-.4.6l-1 .5-1 .5q-.7.2-1.2.6l-1 .5-1.2.6-.9.2-.5.3-.1.1q-.5.1-.5-.1l-1.4.6-1.8.4-1.2.2-1 .4c-.2 0-.6.3-.4.3-.3 0-.1-.3-.5-.1l-.6.2s.3-.3 0-.2l-.9.4h-1.2l-.4.2h-.7q-.4.3-.7.2h-.8q-.6 0-.7.2l-.6-.1s.4.1 0 .2l-.6-.1-1.3.1-.8-.2-.5.1h-.2c-.2.2-1 0-1.2 0h-2.6l.3-.1h-.5q-.6.1-.8-.2c-.2-.1-.8.3-.8 0 0 0-1-.2-1 0l-.3-.2h-.4l-.7-.2h-.7l-.8-.2-1.2-.2h-.5l-.4-.2h-.4q0 .2-.4.2l-.6-.4H206c-.2-.2-1.1-.4-1.4-.4l-1-.2-.6-.3q.1.1 0 .2l-.5-.1q-.6 0-.7-.3c0 .3-.4-.2-.8-.3h-.9l-.6-.2c-.6-.3-.4 0-1-.3l-1-.3-.6-.1-2-.8h-.4l-.4-.3h-.2c-.8-.2-2.2-1-3-1-.2-.1.3 0 0 0ZM54.7 38c-.3.2 0 0 0 0m-2.5-4.3c-.3.2 0 0 0 0m-.4-.3v.1M48 29l.2-.1zm6.6 9.4h-.1zm-.4-.4h-.1Zm-1.4-2.6h.1zm-.7-1h-.2zm-1.5-2.7h-.1zm-.5-.3.2-.1zm-2.7-3.9v.2l.2-.1c.2 0-.2.1-.1.1q.2-.2.2 0h-.1l-.3.1q0 .2 0 0 .3 0 0 .2l.3-.1v.2h.4-.3v.1q0 .2 0 0h.2v.1l.2-.1-.2.3.2-.1H48v.2l.1-.2-.1.2.2-.2q-.1.1 0 .2-.1 0 0 .1v.2l.2-.1-.2.1h.2l-.1.2.3-.2-.4.3.4-.2-.2.2h.3s-.3.1-.1.1l-.1.1h.2l.1-.1h.1q-.1 0 0 0v.1h-.2v.1h.2-.1q.1 0 0 0 0 .3.2 0l-.2.2.4-.1-.2.2-.1.1.2-.1-.1.2h.2l-.2.2h.3l-.3.2h.3-.1v.1h.2v.2h.1l.1.2h.2-.1.2-.1v.1h.1v.3h.2-.1v.1q.2 0 0 .1l.3-.1v.1q-.1 0 0 0l-.3.2h.2v.1c0 .1.3-.2.1 0v.1q.1 0 0 0t.1 0 0 .2l.2-.2v.2-.1l-.1.2.1.1q.1.1 0 .2.1-.2 0 0h.5q-.2 0-.1.1l-.2.1h.3l-.3.1h.2l.1-.1-.3.2h.4-.1.1l-.1.1h.1q-.1.2 0 .2h.2q.3-.1 0 0t-.2.2h.3l-.1.1v.1h.3l-.3.1h.2v.1h.1v.1q.1 0 0 0h.1v.2l-.1.1h.1q-.1.1.1.1-.1 0 0 .1v.2h.1l.2-.1-.2.1h.1v.2l.2-.1-.2.1h.2q.1 0 0 .1h-.1q0 .1.1 0h.2l-.2.2.2-.1h.1l-.2.1h.2-.1v.2s.3-.2 0 0c-.2.1.1 0 .1 0v.1h.1-.1v.1h.2-.1q.3 0 .1.1h.2l-.3.1h.2v.6h.3l.1.1v.1h.3-.2v.3q.1 0 0 .2h.2q.2 0 0 0 .1 0 0 .2v.2l.3.1h.2l-.2.1v.2h.1l.4-.2-.2.2-.2.1h.1l-.2.3h.3v.1q0 .1.2 0l-.1.2v.2h.2v.2h.2l-.1.2h.2c.2 0 .5-.3 0 0q.2-.1.2-.3-.2 0-.2-.3.1-.2-.2 0h-.2l.2-.1.4-.2h-.1V38h-.2l-.1.1.2-.1h-.1v-.1c.2 0-.1 0 0-.1h-.2.1-.1l.2-.1h-.1v-.1h-.1v-.1h-.2q.2-.3 0-.1-.2 0 0 0v-.1H54h.2-.1V37H54v-.2l-.1.1q.2 0 0-.1l.1-.1q0-.2-.1 0l-.1-.2-.1-.1v-.2q0-.2-.2 0v-.3c-.1 0 .2-.2 0 0h-.1v-.3l-.3.2.2-.1v-.3H53l.2-.1h-.1.1-.2l.1-.1H53l.2-.1h-.1V35H53q.1-.2 0-.2h-.2v-.1h-.2l.1-.1q.2-.1 0-.2-.1.2-.1 0v-.1l-.1.1.1-.1h-.1V34l-.3.2h.1V34l.2-.2h-.3l.1-.2v.1-.1h-.1l-.1-.2H52q.1 0 0 0l.1-.2v-.1q-.1 0 0-.1-.2.2-.2 0l.2-.1h-.3v-.1h-.1l.2-.1h-.2q0 .2-.2.1l.3-.1h-.1v-.1h-.1v-.2h-.2.2l-.2-.1-.1.1v-.1q.2-.2 0-.2H51q.2-.2 0 0l-.2.1.2-.1.2-.2H51l.2-.2-.3.2.2-.2h-.2q.1-.1 0 0l-.1-.1v-.2c0-.1-.3.2-.1 0v-.1q-.3 0 0 0-.1-.1 0-.2-.4.2-.2 0 .1 0 0 0V31h-.2l.2-.2q-.1 0 0 0h-.2v-.2h-.2l.2-.2-.2.1-.2-.1-.2.2.2-.2.2-.2-.3.2q.2-.2 0-.2.2 0 0 0l.1-.2h-.4v.1l.1-.1h-.2l-.1.1h-.1l.4-.2h-.3l.2-.1-.3.1.2-.1.1-.2-.1.1v-.1h-.1v-.1h-.2.1v-.1h-.4c-.2 0 .2-.2.2-.2h-.2l.2-.2-.2.1q-.2 0 0 0h-.1v-.2h-.2l.2-.1-.3.2v-.1l.2-.1h-.1q-.1 0 0-.1h-.1q.2-.4 0-.3c.4-.3-.3.1-.2 0q.2 0 0-.1l-.2.2.1-.2H48l.2-.1H48V28l.1-.2H48l-.2-.1h-.1q-.1 0 0-.1v-.1h-.1v-.1l-.2.3Zm-.5-1.3h.1m-.7 0h.2l.2-.1-.2.2v.1l-.1.1h.3v.1h.1v.2l.1-.2-.2.3.1-.1h.1v.4l.2-.1q0 .1 0 0 .2 0 0 .1l.3-.1-.2.1q.1 0 0 .1 0 .1.1 0c.1 0-.3.3-.1.3l.4-.4V27s-.3 0 0 0q-.3 0-.2-.1H47h.1q.2-.2 0-.1v-.2H47v-.2h-.2.1v-.1h-.1v-.2h-.3.2-.2l.1-.2zm-1-1.1q-.1 0 0 0m-1.4-2q0 .1 0 0m2.5 2.8H46zm-1.2-1.5-.2.1zm-.3-.5h-.2zm-.1-.3-.1.1m-1.6-1 .5-.5h-.2v-.1H43l.2-.2-.1.1-.2.1.1-.1h-.2l.2-.1q0-.2 0 0v-.1l-.2-.1h-.1l-.1.1v-.1.2h-.1l.2-.2v.1l-.2.2h.2v.2l.2-.2-.1.1h.1-.2v.2h.2l.1-.1v.1h.1v.2h.2v.2h.1l-.1.1h.2q-.2 0 0 0c.2 0-.3.3-.2.3l.4-.3-.1.2.2-.1v.6l.2-.3v.3h.2l-.1.1v.1h.1l.1-.2q.2 0 0 0v.2h.2l-.1.1h-.1v.1l-.2.2.3-.2h.1l-.2.2h.2l.1.1h.1l-.1.1v.2h.2-.2.2l.3-.2-.3.2v.1l.1.1.2-.1h.1s-.4.4-.2.3l.1-.1h.1l-.2.2h.2-.2.3l-.2.2.2-.2v.3q-.1 0 0 0h.1v.1h.2l-.2.2h.3q-.2.1 0 .2v-.1.1l.1-.1h.1l-.1.2h.3-.1v.2h.1l.4-.2v-.2l-.2.1.1-.1h-.1l.1-.1h-.3l.2-.1h-.2v-.2H46l-.1.1.1-.1v-.1h-.1q0-.2-.2-.1l.1-.1h-.1v-.2h-.2.1v-.2h-.2v-.1l.1-.1h-.2v-.1h-.1v-.1H45l.1-.1H45l.1-.2-.2.1c.2-.2-.1-.1 0-.2q0-.1 0 0l-.1-.1h-.1v-.2h-.2l.2-.1-.2-.2v-.1h-.1l-.2.1.1-.1h-.1l.1-.1h-.2.1v-.2l-.1.1H44v-.2q0-.2-.1 0l.1-.3h-.5l.2-.1q-.3 0 0-.1c0-.1-.3.2-.2 0v-.4h-.2.1-.3l.2-.1h-.1v-.1H43v-.2.1l-.6.5v.2c.2-.3 0 0 0 0h.2v.2h.1v.2l.2.2Zm6.3-1.6c-.3.2 0 0 0 0M44 15.9c-.3.2 0 0 0 0m-.7-.4h.1m-2.9-7.1.1.2zm0-.1.2.1zm8.8 13.3v.2zm-.8-.4v.2zM44 16.8v.2zm-2.8-3.6-.1.1h.1m-.7-.6h.2zm-.6-1v.2-.1m1.2-3.2H41m2-.5v.3q0-.2-.2-.2v.2l-.1-.2V8q0-.1 0 0-.1.2-.2 0h-.3q-.2 0-.2.3V8q-.2-.2-.1 0h-.2v.3l-.2-.3q.2.3 0 .2v-.1h-.1l.1.1-.2-.1.1.2q-.2-.1 0 0h-.3l-.1.1h-.1v.2l-.1-.2v.2l-.2-.1.2.3c0 .2-.3-.2-.4-.3l.2.4-.2-.1.1.3q-.1-.3-.2-.1H40h.1v.2h.2v.2q-.1-.2-.1 0l-.2-.1.1.2H40q-.2 0 0 .2l.3.2H40h.1-.2.2l-.2.1v.1q-.1 0 0 .2h.1-.3v.3l.2.1h-.3l.3.1-.2.1v.1h.2l-.2.3.2.1v.4h.2l-.1.1h.3-.1v.2h.1v.1h.1v.4l.2-.1v.1q.2.1 0 .2l.3-.1v.2l-.2.1.1.2c0 .1.3-.2.2 0v.2q.2-.1.1 0-.2 0 0 0t0 .2l.3-.2v.2h.1l-.2.1q0 .3.2.2h.1q.1.1-.1.2.1-.1.1 0s.4 0 .3.2l.2-.1v.1l-.2.2h.3l-.2.1h.1l.1-.1-.2.3.1-.1h.3v.2h.1q-.2.1 0 .3.2 0 .3-.2.2 0 0 0-.1.4 0 .4h.3l-.2.1.1.2h.3-.2v.1h.2v.1h.2v.1h.1v.1h.1l-.1.2v.1h.2q-.1.3.1.2.1 0 0 0v.2l.1.2h.2l.1-.2-.1.2h.2v.2l.2-.1-.2.2h.3l-.1.2h.1l.1-.2v.3l.1-.2h.2l-.2.2h.2l-.1.1v.1q.2-.1.1 0c-.2.3.1 0 .2 0v.3h.3l-.1.1h.3l-.2.2h.2v.1l.1.4v.1l.2.1.3.1h.2v.2h.2l.2-.1-.2.2v.1l.1.2h.1v.2l.3-.1-.1.1h.1v.2q.3 0 .2.2l.4.2h.2l-.1.1v.1l.1.2h.2l.3-.3-.1.2q-.3.2-.1.2h.1l-.1.3h.3v.1h.1v.1q.1.1.2 0h.1l-.1.1.3.3h.2v.2h.2l.1.2h.3c.1-.2.1-.6 0-.2V22H50l-.4-.2s0-.4-.3 0h-.2l.2-.2.2-.3h-.1V21l-.2.2q-.1.1-.1 0l.1-.2H49c.1-.2-.2 0-.1-.2h-.2v-.2q0 .2-.1 0h-.1l-.1-.2h-.2v-.1q-.2.2-.2 0 .2-.1 0-.1h.1-.1V20h-.2v-.2h-.2q.1 0 0 0l-.1-.2v-.1h-.1l-.2-.1q0-.2-.2-.2v-.1l-.1-.1q-.2 0 0 0 0-.3-.2 0 .2-.4-.1-.3v-.2h-.3v-.3l-.3.3.2-.2V18h-.6.1v-.2h-.2l.1-.2h-.3v-.3h-.4q-.2 0 0-.1h-.2v-.4q-.2.2-.2 0v-.2l-.2.2.1-.2-.1.1v-.3l-.3.3.1-.2V16h-.3l.1-.3v.1-.1h-.2v-.1l-.2-.1h-.1q.2-.2 0-.2-.1.1-.2 0l.1-.1V15h-.1v-.2l-.1.2v-.2q0-.2-.2 0v-.2h-.2l.2-.1h-.2l-.2.1.2-.1h-.1v-.2l-.2.1v-.3h-.2l.2-.1H42v-.4h-.2l-.2.1q.2-.2 0-.2l-.1.3v-.2l.2-.2h-.2v-.1l.2-.1-.3.2.2-.3h-.2V13h-.2q-.2-.1 0-.2v-.2s-.4.3-.2 0q-.3 0 0-.2l-.2-.1h-.1q.2-.1 0-.1V12h-.2l.1-.1h-.1q0-.2-.2-.1l.1-.1v-.1h-.2.1-.2l.4-.2h-.3v-.1h-.4.3v-.1h.2-.3q.3-.1.2-.2H40l.2-.1h-.1.2v-.2l-.2-.1.1-.1-.2-.1h.2l-.2-.2v-.1h.4-.2.2L40 10h.5-.2v-.1h.2l-.1-.1h.1l-.2-.2h.2v-.3h.2v-.1l.2.2-.2-.2q-.1-.1.1 0V9h.1v-.2s.3.3.2.1l-.2-.2h.1v-.1l.1.3v-.1h.1q0-.2 0 0h.1v-.2c.2 0 .4.3.3 0 .2.5 0-.2 0-.1l.2.1v-.3.1-.1l.2.3v-.1l.1-.1h.1l.1.2v-.2h.5q.1-.1.2 0l.1-.1v.2-.4Zm2.5.4h-.3l-.1.2v-.3l-.1-.1V8v.2l-.1-.1-.2.1-.2-.1h-.1V8l-.1.3V8h-.2q-.1-.2-.4-.2 0 .1 0 0h-.2q0 .2 0 0l-.1.3V8h-.2c0-.3-.1 0-.1 0-.1 0 0-.4-.1-.3l.1.7q0-.1 0 0h.2q.2-.1.2 0h.2v-.2.2q0 .1.1 0l.2.2v-.1h.1v.1l.1-.1.1.1h.3v.1h.1l.2.1h.1l.1-.1v.1l.1-.1V9zm2.2 1q0-.1-.1 0zm2.5 2.6q0-.1 0 0M46 8.9l.1-.1zm1 .3q0 .2-.1 0 0-.2.1-.1zm1.3 1 .2-.1zm.7.6.1-.1zm.2.4.1-.1zm3.6 4.3.5-.4H53v-.2h-.3l.2-.3-.2.1.1-.1-.3.1.2-.2h-.3l.2-.1h-.1q.1-.3 0-.1l-.2-.2q0 .1 0 0l-.2-.1v.3H52V14l.2-.2H52v-.3l-.2.1h-.1l.2-.1-.1-.1a.1.1 0 0 0-.2 0v-.1h-.2V13h-.2s0-.2-.2 0v-.3l.1-.1v-.1h-.3q.1 0 0 0l.2-.2-.4.2.1-.2h-.1l-.1.1v-.3h-.2V12q0-.2 0 0v-.2q-.2 0-.3.3v-.3h-.3l.2-.2-.1-.2h-.2v.2q-.1 0 0 0v-.3l-.2.2v-.2h.1v-.2l.1-.2-.3.2H49l.3-.2h-.2l-.3-.2v-.1l-.1-.2h-.1v-.1h-.1l-.2.2.1-.2h.1q-.1 0 0-.1l-.3-.1-.1.2V10l-.2.2c.1-.1.3-.6.1-.4v.1-.3h-.2v-.2.2l-.1-.1h-.1l.1-.2h-.2l.1-.1-.2.1v-.1H47l.1-.2h-.5q.1-.2 0-.2v-.1.2h-.2v-.2.1h-.3v-.2h-.3l-.3.3.1.2.2-.2v.2h.1q0-.2 0 0v.2l.1-.2h.2l-.1.2h.2q0 .1.1 0v.1h.1l.1-.1v.1h.1v.1h.1q0 .2.2 0v.2h.2v.2l.2-.1v.2l.1.1h.2v.2q0 .2 0 0h.2v.2l.2-.1v.2h.2v.2l.1-.1h.1l-.1.2h.2c-.2.1.2 0 0 .3h.2l.2.1v.2h.2l-.2.1q.3 0 .4.3v.1h.4-.1.1l-.2.2.3-.1-.1.2h.3v.2h.1v.1h.1q0 .1.1 0v.3h.1v.1h.2q0 .1.2 0l-.1.2q.3 0 0 .1h.2q-.1.2.1 0v.3l.1.1v.2h.2-.1.3l-.1.2h.1l.1.1v.2h.2v.1q.2-.1 0 .1c-.2.2.2 0 .2 0l.1.1v.1h.2q-.1.3 0 .4h.1c.2 0 0 .4.3.3" class="cls-4"/><path d="M60.1 17.2c-.3.1 0 .2 0 0m-8-13.5c-.2.3.2.2 0 0M50.7 3v.1l.1-.1zm-11 1.3h.1q0-.1 0 0zm-4.2 3.6-.1-.1zm-.1.4-.1-.1v.1m24.9 10.2v.1h-.1zM53 5.2v.3zm-8.6-3.7v.2zm-1.7.6v-.2zm-2.3 1 .2-.1q0 .2-.2 0Zm-5.8 5.4h.1zm-2 4 .2-.2-.2-.2.2-.1h-.1v-.2q0-.1.2 0l.1.2q.3 0 0-.2 0-.2.3-.3H33v-.3c.2.1.4-.3.4-.4v-.5l.2.2v-.1q.3 0 0-.1V10h.2q0-.3-.1-.2h.4v-.2H34l.3-.1-.2-.1h.3c.4 0-.2-.1-.2-.2h.2l.4-.5v-.2l.2-.1v-.2l.1.1v-.4h.3l-.2-.3q.2-.2.5.1l-.2-.5.3.1V7q.1.2.2 0 0-.1.2 0v-.6h.1l.1-.1.1.1v.1-.4l.2.1V6q.3 0 .1-.2l.2.1v-.5l.3.2v-.2q0 .2.3.1l-.2-.2h.3l.4-.2-.2-.2h.5l.2-.3.1-.2.1.3.1-.5.2.1.2-.1V4q.1-.2.4 0v-.1l.1-.1.2-.2h.2v-.1l.4-.2.2-.3v.2V3l.1-.2.1.1h.2q0-.1.1 0v-.2h.4v-.1h.6v-.2h.2q.3-.2.4 0V2v.1h.3v.3l.3-.2h.3l.1-.2q.2.2.3.1t.2 0q0 .2.2-.1h.3v-.2l.2.1q0-.2.1 0l.1.2h.6L46 2v.2c.1 0 .1-.3.2 0h.1s.6-.2.5 0l.3-.3.1.2v.2l.3-.2v.3l.2-.1V2v.3h.3l.2-.2v.2l.2-.1h.1q-.3 0-.1.1h.2q.2.3.5.4l.2-.2q0-.2 0 0t.3.5h.5q-.2 0 0 .1l.2.2q.2.1.4 0l-.2.2h.1l.2.1h.1l.1.2h.3V4h.2v.1l.2.1h.1v.5h.2q0-.1.1 0h.1q0 .3.3.3v.1l.1.2q.2.1.2.4h.4l-.1.1.1.2h.2v.2h.3l-.2.2.4.1q.2.1.1.2h-.1q0 .2.2.1V7l.2-.2h.2q-.2.2-.1.3t.2 0l.1.1-.1.1v.2q.3 0 .2.2l.2.1V8h.2l-.1.2v.1l.2.1h.2l-.1.1.1.1v.1h.2l-.1.2.2.2v.1q0 .4.3.8v.2l.3.3.4.5.2.1v.2l.1.3.2.2.2-.2q0 .2-.2.2v.2l.2.4v.2q.2 0 .1.3l.3.1q.2 0-.1.2h.2l-.1.3.1.3.1.3.1.2.4.6q0 .2.3.1l-.2.2v.5q.3.2.2.3l.5-.1-.2.2-.2.1.1.2h.1l-.2.3.2.2.1.2h.1v.3l.1.2q0 .2.2.1l.1.1q-.3 0-.2.2l.2.7.1.2h.1v.5l.2.2h.1v.7q.2.2.2 0c.3.2.4-.3 0-.2.2 0 0-.3.2-.4l-.2-.2-.2-.9c0-.1 0-.6-.3-.5h-.2.2l.4-.3h-.1v-.3l-.3-.1q-.2 0-.2-.2l.2-.1V17l-.1-.1c.2-.2-.2-.3 0-.4l-.3-.1.1-.2h-.2l.2-.1q-.2 0-.2-.2v-.4h-.2V15H59q.1-.3 0-.2l-.2-.1q.2-.2 0-.2l-.1-.2h.1l-.1-.1v-.4l-.2-.2q-.2 0 0-.2v-.2h-.3q.2-.2 0-.3t0-.2v-.1l-.1-.2-.1-.1-.2-.3-.1-.2-.2-.4v-.2l-.2-.2q0-.4-.3-.3c.3 0 0-.5-.2-.5 0 0 .2-.4 0-.3l-.2-.1-.1-.2v-.2l-.1-.3-.3.3.1-.2v-.4h-.1v-.3l-.4-.3h-.2l.2-.1h-.2l.2-.2h-.3v-.2h-.1l.1-.2v-.1h-.2l-.1-.3-.2.1V7l-.1-.3h-.2v-.1h-.1l-.2-.2q-.2 0-.2-.2L54 6v.2V6l-.2-.2v-.2q-.2.2-.2 0v-.2l-.2-.2-.2.1.1-.1h-.2q0-.3-.2-.4l-.2.2v-.3l-.2-.4h-.1q-.2-.1-.4 0v-.5l-.1.1v-.2h-.3l-.1-.1h-.1l-.3-.2h-.2q.1-.3 0-.2h-.4v-.3h-.2l-.1-.3v.1q-.2 0-.3-.3s0 .4-.2.2v-.2q-.2 0 0-.1c-.2.2-.4-.1-.5 0l-.2-.1h-.2V2h-.2q0 .3-.2.3l.1-.3h-.3v-.1L48 2v-.1h-.4l-.1-.2-.1.1v-.2h-.5v.2l-.2-.2-.5-.2-.2.1q-.2 0-.2.2l-.2-.2.2.4-.2-.2-.2-.4q0 .3-.2.3l-.1-.2-.1-.1v.4l-.2-.3-.2.1q-.3-.2-.4 0l-.3.1q0 .2-.2 0h-.2q-.1-.1-.2 0c-.2 0 0 .4-.2.1h-.3q0 .4-.2 0s-.2.3-.3.1l-.1.2h-.5l-.3.3-.1-.2-.2.1v.1q-.3 0-.2.2 0-.1-.2 0h-.3v.3h-.2v.1l-.2-.3v.3q0 .3-.3.2t-.2.2l.1.3-.2-.2h-.1L39 3l.2.3q-.2-.2-.5 0l.2.2q-.3-.1-.4 0v.2l-.1-.2-.2.2-.2.3q0 .3.1.2l-.1.1h-.2v.4l-.2-.1q-.2 0 0 .3V5l-.3-.3-.1.1V5c0 .2-.2-.1-.2 0l.1.3-.2-.2h-.3l.2.2-.2.1h-.2v.3h-.2l.1.3v-.1h-.1L36 6l-.2.1v.2h-.2v.3h-.3V7l-.3-.1.1.2q.1.2-.1 0c.1.2-.2.3 0 .4h-.3v.4h-.3l.2.3h-.1v.2l-.2-.2v.2-.1l-.1.1-.1.2q-.3 0-.1.1-.2 0 0 .2-.5 0-.5.4c-.4-.2.1.3 0 .3l-.2.1.2.3h-.3l.1.2-.3-.1v.4l-.2.2q-.2 0-.2.2v.3l-.2.2q.2 0 0 .3l-.2.2v.5l-.3.1.1.2h.4Zm-1.5 4H31Zm.4 1.4v-.2l-.1-.2-.1-.2q.3 0 .2-.3l.1-.2h.2-.2l.1-.3-.1-.2V16l.1-.2v-.3l.2-.1q-.2 0-.3-.2c0-.1.3.2.4 0l-.2-.1.1-.3.3-.7v-.5h.1q0-.2-.3-.2h.3v-.2l.1-.2q.2 0 0-.3h.4-.8v.2l-.1.2v.2q0 .3-.2.3.2 0 0 .3l.1.1-.1.1q-.3 0-.1.2l-.2.3v.3l-.1.1.1.1-.1.3-.2.2v.3l.2.1h-.2v.2l.1.1v.2q-.3 0-.2.3v.2l.2.2H31l.2.2q-.1-.1-.1.2h-.2.5v.2q0 .2.1 0Zm1.6 4.5H33zm6.9 1.3q-.3 0 0 .1zm-8.7-4.9h.1zm.6 2.2q.1-.4.2-.1zm2.4 2.6.1-.2zm1.8.6q-.2 0 0-.1zm.8.2q-.1-.1 0-.2zm11.4-3-.1-.6H48q0 .3-.1.2h-.4l-.1.3-.4-.2v.2l-.1-.1v.3l-.2-.2h-.1l-.1.3-.2-.2-.1.1q-.1-.2-.2 0l-.4.2q.2 0 0 .1l-.4.1q.2.2.5.1l-.3.1h-.2l-.1-.2q-.2 0-.3.2h-.4v.2h-.2v.2-.3h-.3l-.2.3h-.2l-.2.2h-.4v.1l-.3.1q-.2 0-.3.2H42l-.2.1v-.1h-.2l-.2.1v.2q0-.1-.2 0l-.1-.3q-.2.3 0 .5l-.3-.1v.2l-.2.1-.1-.1h-.4v.1h-.9l.2.3h-.3l-.2-.2v.1l-.1.1-.3.1V24H38h.1l-.2.2h.2c-.1 0-.2.3-.2 0q-.3-.2-.4 0v.1l-.3-.1.2-.1H37v-.3l-.2.4h-.2V24h-.2l-.1.1h-.7l-.2-.2H35v-.2h-.3q0 .2-.2.3v-.3h.2q-.2 0-.2-.2l-.4-.1-.1.2v-.2l-.3.1s0-.7-.1-.5v.2h-.2v-.5H33l.1-.1H33V22q0 .2-.2.2V22l-.1-.1.1-.1v-.1h-.2l.1-.2h-.3v-.2l-.1-.2H32V21h.3l-.2-.2-.1-.3-.1-.1-.1-.2q.2 0 .1-.2h-.1.1v-.2h-.1l-.1.1h-.1l.1-.3v-.1l-.1-.2q-.2-.1-.1-.4c0-.3 0 0 0 0l.1-.3v-.3h-.1v-.2l-.4-.3v.3q-.2 0-.1.3l.2.1v.2H31v.1l.1.1-.2.2.2.1v.1l.2.3H31l.2.3v.5h.3v.5l.1.2v.2l.3.3q.1 0 0 0v.2l.1.2h.1l.1.3h.3v.3q0 .3.4.4h.3v.5h.5v.2l.3.1v-.1h.2v.1l.1.1.1.1h.4v.1h.1l.1-.1v.1h.3q-.2.1 0 .2l.2-.2c0 .3.6.2.5.4h.6l.4-.1h.4l.1.2c0-.2.8-.1.9-.2h.6v-.3q0 .2.2.2l.1-.1v.1q.2 0 .2-.2l.2.1h.2v-.1h.2l.1-.2.3.1v-.2l.3.1q-.2 0 0-.1l.4-.1.2.1.1-.1.3-.1.1-.1h.2q.3-.1.2-.4v.2h.1q0-.3.3 0s0-.4.1-.2q.2.1.2-.1l.1.1h.3l.2-.2h.4l.1-.2.2.1v-.3l.3.1q0-.2.2-.2h.3l.2-.2h.2v-.1h.3c-.1-.2.1.1.2 0l.1-.2h.2l.2-.1h.3l.1-.2h.5l.1-.1h.1c.2-.2.7 0 .8-.3Zm54 94.6c0 .4.2 0 0 0m-21-2.3c-.2.3.3.1 0 0m-2-.9v.2l.2-.1h-.1m-10.7-12.4v.2zm2.2-7.7q0 .1.1 0zm.3-.5v.2q.1-.2 0-.2m32.6 23.7.2-.1v.2zm-2.3.7h.2v.1zm-12.8-.4h.2l-.1.1zm-5.5-1.3q.1 0 0 .2zm-10.4-8q0 .2-.2.1 0-.2.2 0m-1.6-1.9h.2zq-.2 0 0 0m-1.5-3v.2zM72.3 92h-.2zm5-3.8h-.4q0 .1-.2 0l.1.3h-.4l.1.2v.1h-.3v-.3h-.1q-.2.5-.5.3l.1.2-.1.2c-.1-.2-.7.2-.8.3l-.3.6V90H74v.3l-.3.2q0 .3.2.3h-.5q-.2 0 0 0 .2.1 0 .2H73l.1.2h-.3c-.4 0 .2.1.2.1s-.4 0-.3.2l-.6.4-.1.3-.3.1v.3l-.1-.2q-.2 0 0 .3l-.1.2q-.1-.2-.3 0l.1.3c0 .3-.4 0-.5 0l.1.5h-.3v.5q-.2-.2-.3 0 0 .4-.2.2v.4l.2.2v.1H70v.3q-.2 0-.2-.2v.4q0 .1-.1 0v.3q-.4.1 0 .3h-.3v.1l.2.5h-.3v.2h-.2c0 .1.4 0 .2.2l-.2.2v.2l-.1.5h.2l-.3.2v.7l.2.4-.3-.2.3.5-.1.2v.3l.2.2-.1.5.1.2.2.4v.4l.2.5.3.3h-.1v.2h.3l-.1.2v.2q.3.1.1.2h.2v.3l.1.2.2.4q.2.1 0 .4h.3v.2c0 .2.4.5.3.6l.3-.1v.4l.1.1h-.2l.2.3.2.4c.1.2.4-.2.4.1v.4s.4 0 .2.1q0 .2.3.3l.1.3c0 .3.2-.1.3-.1v.3l.1-.1.1.1v.3q.1.3.5.6h.2c.2 0-.2.2-.1.2 0 .2.2-.1.2.2h.1c.1 0 .7.4.6.5h.4v.6h.4l-.2.2h.4l-.1.3h.3v.1h.3v.2h.4q-.3 0-.2.2h.3c-.1.2.4.6.6.7l.2-.2.2.1q-.2.4.2.6.1.2.3.1l.4.1q-.3-.1-.1.1l.4.3q.3.2.5 0l-.2.2.1.1h.4l.1.2h.4l.1.1v.2h.4v.1h.4v.3l.3.2h.1q0-.1.2 0h.2q0 .2.4.3h.1l.3.2s.6.2.5.3l.2-.1.2-.1v.2l.3.1h.2l.1.2.3-.2v.3h.9q-.3 0 0 .1h.2v-.2s.2.4.3.3v-.2h.2l.1.2h.5v.2h.5c0 .3.2 0 .3 0l.2.2.2-.1v.2h.5l.3-.1v.1h.3l.3-.1v.3h.5l1 .3h1q.3.1.8 0H94v-.2l.2.3h.7l.1.2.2-.2.5.2q.2 0 .3-.2t.1.1l.2-.1q.2-.1.3.1h1.2l1-.1q.3 0 .3-.2v.2h.9l.4-.1v-.5q.2 0 .2.3-.1.2.1.2l.3-.1c.1 0 .5 0 .4.2q0-.2.3-.2l.3-.1.2-.1h.6q.3 0 .2-.3l.1-.1q0 .3.2.2l1-.2s.4-.1.3-.2l.1-.1h.3l.4-.1.2-.2v-.2h.5q.3 0 .5-.3v-.2c.1-.2-.6-.2-.3.1h-.6v.1l-.3.1q-.5.4-1 .5c-.3 0-.9 0-.8.3v.2l-.2-.2-.2-.4-.2.2-.3-.1-.1.3q0 .2-.2.2 0-.2-.2-.3l-.2.1h-.2c0-.1-.3.2-.4 0l-.3.3-.1-.1v.2l-.2-.3q0 .3-.3.2h-.5l-.1.1h-.7s0 .3-.2.1q-.1-.2-.1 0t-.3.1l-.2-.1-.2.2v-.2l-.2.1h-.3l-.3-.1h-.3q-.2.2-.3 0h-.3v.2q-.2-.3-.5-.1h-.2v-.1h-.5q0-.2-.2 0h-1.3l-.1-.1H93q-.3-.1-.4 0c0-.2-.7-.2-.8-.1-.2 0-.3-.4-.4-.2q-.1.3-.3.1h-.3l-.1-.1-.5-.1q.2.1 0 .4v-.3H90l-.2-.2-.2.1-.3-.2h-.6v.2l-.2-.2h-.1v-.1l-.3.1-.2-.2v.2h-.1v-.3H87q-.3 0 0 .1l-.4-.1q0-.2-.3-.2h-1l-.4-.2.1.2-.2-.1-.1-.2h-.3s-.2-.4-.2-.2q0 .1-.2 0l-.2-.1-.3-.1-.1.2v-.3l-.2.2-.1-.1-.4-.3-.1.3-.1-.2-.2-.1-.3-.3h-.2v-.1h-.6l-.2-.4v.2l-.1-.3h-.5l-.2-.2-.3-.1h-.3q.2-.3 0-.3h-.5l-.1-.4h-.2l-.1-.3h-.1q-.2 0-.2-.3s-.2.4-.3.2v-.3q-.1 0 0-.1c-.2.2-.4-.2-.6 0q0-.3-.2-.4H77l.1-.2h-.5l.2-.1h-.2l-.1-.2v-.2h-.3v-.2l-.4-.2v-.2h-.2v-.2l-.5-.3v.1l-.2-.2q0-.3-.3-.5l-.3-.2H74v-.4l-.2.5v-.3l.1-.4-.4-.1v-.2l.1-.2-.3.2.1-.3q-.2 0-.3-.2t-.3-.4l-.3-.3q-.2 0 0-.2l-.2-.2v-.2l-.1-.2c0-.1-.4.3-.2 0q0-.3-.2-.3t-.1-.3q-.2-.1-.2-.4c0 .1-.5-.1-.2-.1q.2-.2-.2-.3v-.3l-.3-.3.1-.2-.1-.2h-.1v-.1q0-.4-.3-.3l.1-.1-.1-.1.1-.1v-.3h-.4l.1-.2H70l.3-.3H70l-.1-.5-.1-.3h-.4.3v-.3h.2-.3c.2 0 0-.5 0-.6-.1 0 .2-.2 0-.3q-.2-.1 0-.2h.1V99q-.1-.2-.2 0v-.3l.1-.2v-.1h-.2v-.2h.2q0-.3-.2-.4h-.2v-.2h.4v-.2l-.2-.1q.2 0 .3-.2l-.3-.2h.3l.2-.2h-.2v-.3l.2-.2V96l.2-.1-.2-.3h.1l.1-.2.1-.2V95l.2-.2v-.3l.3-.1V94q.1-.2.3 0-.2-.4.1 0c-.2-.2.1-.4 0-.5h.3v-.6h.4q-.2-.1-.1-.3l.1-.1v-.1l.2.2v-.2h.2V92h.2q.2 0 .2-.2t.1-.3c.2 0 .7 0 .6-.4.3.4.1-.3.2-.3h.3v-.4h.3v-.2l.2.2.1-.2.2-.2.4-.2h.3v-.3h.3l.3-.2c-.2-.2.2-.2.3-.3l.3-.1v-.1h.1l.2-.2.2-.2q0 .2.3 0zq0 .2.2 0l-.4-.1Zm6.9-3.1h-.4l-.2.2-.2.2h-.7q0-.2-.2-.2v.2h-.3l-.2.2v.1h-.5l-.4.3h-.2c-.1.1.2.2 0 .2-.2.1-.1-.3-.3-.2q-.1 0 0 .2l-.5.2q-.5 0-1 .3v.2q-.2.2-.2 0l-.3.2q0 .2-.1 0v.4l-.2-.2-.2.1s-.3.4-.3.2-.2.1-.3.2q-.2-.2-.4-.1l.6.3h.3l.1-.1.4-.2h.1q.3-.5.4-.3l.4-.2V87h.2c0 .3.2 0 .3 0l.4-.2.1-.2h.4v-.2h.4l.4-.1.2-.2.2-.2v.2h.2l.1-.2.3-.1q.2.2.4 0l.3-.2.1-.2.1.2.2-.3q0 .2.3 0l.1.2c.2 0 0-.4 0-.4q.4-.1 0-.2Zm4.5-1.2h.2zm-2-10q-.2.2 0 .1zm-1.3 11.2q-.1-.1 0-.2zm3.1-.3q0 .2-.2.1 0-.3.1-.2zm-.6-3.1h-.2q0-.2.2 0m-1-2.5q0 .1 0 0m0-1h-.2q0-.5.1 0m9.8-10v-.6h-.4q0 .3-.3.2h-.5l-.3.2-.3-.3v.2q-.1-.2-.3 0s0 .4-.1.3l-.2-.2H94l-.1.3-.2-.2h-.2l-.3.1c0-.2-.5.2-.6.2q.4 0 0 .1l-.5.2h.7l-.4.1H92l-.1-.2q-.3.1-.5.4H91v.3h-.2v.2l-.1-.3-.3.2-.2.3-.1.1h-.2q-.2 0-.3.3c0 .3-.1.1-.2.2H89v.2l-.3.2q-.4.1-.3.4l-.3.2q0 .2-.2.3h-.2l-.1.1v.3l-.2.3h-.3q0 .2.3.4h-.3v.6q0-.1-.1 0 0 .3-.2.2v.2l-.1.4-.2.2v.3l-.2.3h.3v.3l-.3.2q.2.1.1.2l.1.4v.1h-.2v.5-.1l.1.3.1-.2v.3h-.1v.5h.2v.4l-.2-.2v.4h-.3l.5.2v.3l.1.1h-.3v.2q.2 0 .2.2l.1.2q0 .3.3.7h.1l-.1.3.1.6h.2l-.1.2h.1l.2.2h.3l-.2.3-.1-.2q.2.3 0 .4l.4.5.2-.1v.2l.2.1s-.3.8 0 .6h-.1l.1-.1.2.1-.2.3.1.2.3.1v.2h-.2s.5.2.4.3h.1l.1.2q.1-.1.2 0v.2l.2.2-.3-.1h.1l.3.3-.4-.2.3.2v.1h-.1l-.2-.1h-.4v-.2H88q0 .2-.3 0 0-.2-.1-.1l-.2.1v-.1h-.2v.1l.1.1h-.4l-.2-.1-.1.1h-.2l-.5.1H85l-.1.1h-.3l-.2.5h.8v-.2h.4l.2-.1.2.2.2-.2h.1l.4-.1-.2.3.5-.2h.7V85l.3.2h.5l.1.1h.3l.3.1h.7l.3.1.2.2h.2l-.2-.3-.3-.4c.2.2 0-.2-.1-.3l-.5-.4q.2 0 0-.3l-.2-.5-.2-.3-.2-.2h-.1v-.5q0-.2-.2-.1l-.2-.3v-.5h-.2l-.1-.1V81l-.3-.3q-.2-.1 0-.2l-.1-.1h-.1v-.1l-.1-.2.2-.1-.3-.2c.3 0-.2-.7 0-.8l-.2-.4v-.3L87 78v-.5h-.2q0-.2.3-.2c-.2 0-.1-1-.1-1v-.8l-.2-.1.2-.2V75h.1l-.2-.3h.2l.2-.3q-.2 0-.2-.2l.1-.2v-.2l.2-.2v-.2l.2-.2h-.2l.2-.2.2-.3.3-.1v-.3l.2-.3.3-.2q.2-.2 0-.5l.2.2q0-.4.3-.2c.1 0 0-.4.1-.3q.3.1.2-.2h.3l.2-.1.2-.2.2-.1q.3 0 .4-.2V70l.2.1.1-.2v-.2l.3.1.3-.2.4-.2.3-.1h.3v-.1h.3c0-.3.2 0 .3 0l.2-.4h.6l.3-.1.2-.1q.3.2.7 0h.3v-.1l1-.1ZM142 54.7c-.3.3.3.3 0 .1m-1.2-16.9c-.2.3.4.3.1 0m-2.6-2v.2h.2zm7.2-16.5h-.3zM157 23q-.2 0 0 .2zm.7.3-.2.1q.4.2.2 0m-14.1 33 .3.2h-.2q-.2 0-.1-.1Zm-2.8-2.3.2.2h-.2zm10-9.2.4.1zm-7.6-4.4q.3 0 .1.3zm-7.8-15.9q-.2.2-.1 0M138 22q0-.2 0 0v.2zm4.8-1.7h-.4zm15.9 4.1q-.3 0-.2-.2h.1zm6 7v-.3l-.1-.4q0 .2-.3 0v-.5l-.2.1-.1-.2q-.2-.1 0-.3c.1 0 .3.4.4.3a.2.2 0 0 0-.2-.4c-.2 0-.5-.6-.4-.7l-.2.1-.2-.2c.1-.1-.4-1-.6-1l-.9-.6h.4l-.2-.2q0-.3-.1-.2t-.2 0l-.2-.2v-.1l-.4-.4q-.3 0-.2.2l-.2-.6q-.2-.3-.2 0s0 .3 0 0q-.2 0-.3-.3v-.1l-.1.2-.2-.4v.2c-.1 0-.2-.5-.3-.3 0-.2-.7-.7-.9-.8l-.5-.2-.2-.3h-.3s.5-.1.1-.2h-.6l-.1-.4-.5.1c-.4 0-.2-.5-.1-.6l-.7.1-.1-.3h-.7q.2-.3-.2-.3t-.3-.3h-1q.2 0 0 0l-.4-.2.2-.1h.1q-.4-.2-.7 0c-.3 0 0-.2 0-.2h-.4q-.3-.4-.4-.1h-.1V21l-.1-.1-.7.2v-.3q-.2-.2-.3 0l-.2-.3s0 .4-.2.2l-.3-.3h-.3l-.7-.2q-.1.1 0 .2-.3 0-.3-.3h-1.6s.4-.3.2-.3l-.8.2-.3-.2h-.4l-.2.2-.8-.2h-.4l-.5.2h-.7l-.8.1-.6.3v-.2l-.2.1-.2.3v-.2l-.4.1q-.2.1-.4 0v.3h-.8v.2h-.6l-.5.2c-.3.2 0 .2-.1.3h-.4c-.2 0-.7.6-.7.5v.3h-.3l-.3.2v.1l-.2-.2-.2.3-.6.5c-.3.1.2.3-.2.4q-.2 0-.4.3s0 .4-.2.3q-.2.1-.2.4-.1.3-.4.5-.1.3.2.2l-.4.3h.2l-.1.3q-.2-.1-.4 0l-.3 1.2v.3c.1.3-.2 0-.2 0 0 .3.3.2 0 .5v.2l.1.6v.5l.4.4q-.3 0-.1.3l-.1.3q.2.1.3.4h-.2q0 .3.3.4 0-.2.1 0v.2l-.3.1h.2l.2.3v.2l.3.1v.3h.2l.1.3q-.2-.5-.2 0l.4.3.1.5.5.6h.3q.2 0 .1.2-.2.3.3.9l.4.3q.3 0 .5.2-.4-.2-.2.1l.6.6q.3.3.5.3h-.2l.1.3.3.1h.2l.2.3.2.2.2.1.2.1.1.2.3.2h.2l-.1.1q0 .2.3.1l.3.2v.3l.3.4h.4q0 .2.2.2c-.1.2.5.4.6.5l.2.2.3.3.7.6h.6v.2l.3.3.3.1v.2c.2.2.4-.1.6 0s-.2.2 0 .3l.8.3s.6.2.3.2q-.3-.2-.1 0t.4.2v-.2l.3.5.2-.2h.2q-.1.2.1.4s.5.2.4 0l.3.1-.1.2.2.2q.5 0 .6.2c-.2.3.2.1.3.2l.3.3h.3v.2h.3l.3.2h.5l-.3.1.3.1q.4 0 .2.1h.4l.4.2h-.8l.8.2H150l-.1-.2h-.2l-.7.2q-.7 0-1.3.3l-.4.1-.3.1q.2 0 0 0h-.6l-.5.2.1.3q-.3 0-.3-.2t-.4 0l-.8.2h-.1q-.2 0-.3.2l-.7.1q-.2.1-.3.4-.2.2-.2-.1-.2 0-.3.3h-.4q-.2 0-.5.3c-.1.1-.6.6-.7.5l-.3.4q-.5.6-.7 1.4l.1.5h-.2v.5q-.2.3 0 .8l.1.6h.5s0 .4-.2.3q-.3-.2-.1.2 0 .2.2.3v.8q.2 0 .3.3l.4.4.2.1v.2l.4.3.3.3q0 .2.3 0l.2.2v.3l1.4.8.4.2q0-.2.3 0l.1.2h.2l.6.2h.4l.3-.1v.1l.6.1h.8l.2-.2c.2-.2-.7-.4-.6 0 0-.1-.6-.1-.7-.3h-.5q-1 0-1.7-.5c-.3-.1-1-.7-1.1-.4h-.3V56l.3-.4h-.2l-.2-.2q-.2 0-.2-.3c-.1.2-.2-.1-.4 0q-.2 0-.3-.2v-.3l-.1-.1-.2-.2c.1-.3-.4-.4-.4-.7l-.3-.2v-.2h-.2l.2-.3q-.2 0-.3-.4v-.4l-.1-.3-.1-.1v-1.2q.2-.1 0-.2V50q.2 0 .3-.3v-.3l.1.1.1-.3q.1-.3.4-.3l.3-.2.3-.3.2-.3.5-.1v-.2q.4.1.7-.3h.5l.4-.2c0 .2.2-.1.2-.1l.6-.3.6-.1.7-.2h.5l.5-.1.3-.1q.4.1.6-.2c0 .3 1 .1 1.2 0h.9q0-.3.4-.1c.1 0 .8 0 .7-.1l.2.1h2.3c-.7 0-1.6-.2-1.7-.3l1 .2h1q.4 0 0 0l-.7-.3c-.1 0 0-.2-.5-.4l-1.8-.7h-.3q-.3-.1 0-.2h-.4v-.3h-.6l-.2-.3h-.2v-.2l-.3-.2h-.1l-.6-.3q-.3 0 0 .1-.3 0-.5-.3 0-.2-.3-.3h-.3l-.2-.2h-.1l-.5-.2q-.3 0-.4-.3t-.4-.2q-.2.1.1.2l-.3-.2q0-.2-.2-.3t-.4-.2q0-.3-.2-.3-.1.2-.3 0 0-.2-.2-.3l-.4-.3q0 .2-.2.1-.1-.1 0-.2h-.3l-.1-.1q-.1-.4-.5-.5-.2 0-.2.2l-.1-.2-.2-.3-.4-.5h-.3v-.2q-.3-.2-.7-.2l-.3-.6v.1l-.2-.3-.4-.3h-.2l-.2-.2-.5-.5h-.3q.2-.3 0-.4-.5 0-.7-.3l-.1-.4-.3-.2-.1-.4h-.1q-.3-.2-.2-.5s-.3.3-.3 0q0-.2-.2-.3V34c-.2.1-.4-.5-.5-.4l-.3-.5-.2-.2h-.2l.3-.2-.3-.1-.4-.1.3-.1-.2-.2-.1-.3v-.2l-.3-.1v-.4l-.3-.4v-.3l-.2-.1q.3 0 .2-.3h-.1l-.1-.4v-.3h-.3l.1-.4.1-.8v-.5q0-.2-.2-.3s.4-.3.3-.4l-.4.3.2-.3q.3-.3.4-.2-.2-.2 0-.6 0-.2.2 0l.2-.1-.3-.2q.2-.2.4-.1l.1-.5q.5-.3.5-.6l.3-.5.3-.1q0-.2.2-.3.1-.2.2 0l.1-.2.2-.1c.2-.1-.3-.4 0-.3q.5 0 .5-.3t.4-.2c.1 0 .4-.4.5-.3-.1-.1.3-.6.3-.3q0 .2.4-.2l.3-.1h.2l.4-.3.2.1.3-.1.1-.1h.2q.4 0 .4-.3l.2.1.2-.2.1.2.4-.1q.3 0 .2-.3l.3.1v-.2l.2.4.3-.3q.3-.2.6-.1h.6v-.4q.2 0 .1.3h.3l.1.2v-.3c0 .2.7.2.9.2l-.1-.2q.2.2.6.2l.3-.1q-.1.1 0 .2h.5l.5.1q.4 0 .1-.2h.4l.3.2h.2l.1-.1q-.2 0 0 0l.2-.1c.2 0-.2.2 0 .3s.7 0 .6-.1v-.2h.4l-.2.4h.4l.2-.1c.2 0 0 .3.3.3q.2 0 .3-.3v.3q0 .2.4.3v-.2h.4q0 .3.2.3t.4 0 .2.2l.4-.2v.1h-.1l.4.2.3.1h.3l.3.3h.5l.3.4h.4v.3h.4q.4-.2.1.1c.1-.1.5.2.6 0l.2.4h.3l.5.1s0 .6.3.5c0 0 0-.4.1-.2q0 .2.3.2h.2q-.2 0-.3.2h.4l-.1.1.2.2q.4 0 .4.2l.2.2.4.2c.2.2.4.8.8.7-.4.4.5.2.5.3q0 .3.2.4h.4q-.2 0 0 .3h.4l-.2.3.2.2.4.3.3.5.2.4.3.1.2.4.2.5c.1-.3.3.2.3.4l.2.3q0 .2.1 0l.1.3.2.3.2.3v.5h.3q-.2 0-.1.3l.2-.5Zm5.4 3.9-.2.1h.1zm2.3-1.5-.5.2q-.2 0-.3.2c0 .2-.4.1-.3.3q-.2-.2-.8 0h-.6l.1.2h-.4l-.3.5-.3.1q-.3 0-.5.2l-.5.4h-.3c-.2.2.3.2-.1.4-.3.2 0-.3-.2-.3l-.2.3-.1.1-.2-.4v-.1q0-.7-.4-1.4l-.2-.2c-.3-.2 0 0 0-.2l-.3-.4q-.3 0 0-.2s-.4-.1-.4 0l.1-.3-.1-.3c-.1 0-.4-.5-.2-.5s-.2-.3-.3-.4c-.1-.3.3-.4 0-.6l-.2.8v.3l.2.3.1.5q.3 0 .2.3c.1.2.5.5.2.6.2-.1.3.4.4.5l.2.1v.3c-.3 0 0 .2.1.4v.2l.2.6.1.1h.3v.2h.2q0 .2.2.2l.1-.1.1-.1.4-.2.3-.1.4-.2.4-.3.2-.3v.2l.4-.2.1-.2.4-.1.6-.2.4-.2.2-.3q0 .2.2.2l.2-.3c-.2.2.3 0 .4 0h.2c.2 0 .2-.4-.1-.3h.2q.3-.1 0-.3m9.6 3q0-.3-.2-.1zm4.2 15q0-.4-.1-.1zm-12-18q-.2-.1 0-.2.2 0 0 .2m4.6.6h-.2q-.1-.5.2-.2zm4.8 5.7.2-.1s0 .3-.2 0m1.3 3.8q0-.3.2 0 0 .2-.2 0m.3 1.6q0-.3.1 0 .1.4-.1 0m-3.5 24c-.1.1.3.5.5.3l.3-.4q-.2-.2 0-.4l.5-.7v-.5c.1-.2.4 0 .5-.3l-.2-.1.3-.3q-.2 0-.1-.4h.2l.2-.3c0-.2-.3 0-.1-.4h.2q.3-.4.1-.4.3 0 .2-.4c.2 0 .3-.8.3-.9q-.3.5-.1 0l.3-.8c-.2 0-.4.6-.5.7l.2-.6.2-.3h.2l.1-.8q0-.3.4-.6l-.2-.4.1-.2-.1-.1h.2l.2-.5v-.5l-.1-.2.1-.2v-.6l.1-.5.2-.3v-1.4l.2-.6v-.6l.1-.3V55h-.2l.1-.5q.2 0 .3-.2-.1-.3-.4-.3l.2-.3-.1-.2v-.2h-.1v-.5q0-.3.2-.3v-.4h-.2v-.6l.2-.3v-1c-.1-.2-.2.2-.3.2V50q0-.3.2-.3l-.1-.1-.1-.3-.1-.5-.1-.2h.3v-.8l-.1.2-.2-.4v.2c0-.1-.3-.4 0-.4v-.8h-.3V46q.2 0 .2.3v-.6l.3-.1-.5-.3-.1-.3-.1-.3h.3l-.1-.3-.2-.2v-.4l-.4-1-.1-.1v-.3l-.2-1h-.2l.1-.3-.2-.1-.1-.2-.4-.1.3-.3v.3l.1-.1q-.2-.2-.2-.5l-.4-.8-.2.2V39l-.4-.1c.1-.1.2-1 0-.9v.1h-.2l-.1-.1c-.1-.2.2-.1 0-.4l-.2-.3-.2-.1-.1-.2h.1c0-.1-.6-.3-.6-.5q.2 0 0-.3l-.2-.2v.3l-.3-.4-.2-.2.1-.2h-.2l-.3-.2.1-.2h-.5l-.2-.2v-.2l-.4-.2h-.2l-.2-.1s.4 0 .2-.2l-.4-.1q-.2-.3-.5-.2h-.2l-.2-.1-.4-.1s0-.4-.2-.2h-.3v-.1l-.2-.1v.2h.1-.3l-.3-.1-.3-.1-.2.1h-2.2l-.2.2h-.4c-.2 0-.5.5-.4.5h1.2l.2-.3h.8l.2.2.3-.2h.8l-.3.2.8-.1h.3q.1.3.2.2h.3v.1h.2l.1-.2.2.3h.4l.2.3.3.1.3.2.6.3q.3 0 .1.2v.1l.4.3.3.1q0 .3.2.4l.4.1.1.5.6.7.3.3.1.1v.3l.1.4.3.2.3.3v.3q0 .3.2.4h.2v.2l.1.3v.4l.5.4q.2.3-.1.3l.1.2h.2l-.1.2.2.3q.2.2 0 0-.2 0-.2.2.1.3.4.2c-.3.1.3 1.1 0 1.2l.3.6.1.5.2.7v.5l.1.2.1.1q0 .3-.2.2c.2 0 .3 1.5.3 1.7v.6l.1.6.3.2q-.2 0-.2.2l.1.3h-.2q0 .4.3.5l-.2.2v.4l.2.2v.7l-.1.4.1.4-.1.3q.1-.1.1 0v.9l-.2.4v.4c.2 0 0 .5 0 .6v.7q0 .4.2.6l-.2-.1v.2q.1.3-.1.4c-.2.1.2.5 0 .4-.1 0-.2.5 0 .5l-.2.2v.9l-.2.4-.1.5v.3l-.2.2v.2q.2 0 .2.2l-.3.3q.2.3 0 .6l-.2.7-.1.4-.2.3v.3l-.2.3c.3.1-.1.2-.2.4q.2.3 0 .5l-.1.2-.1.5-.3.6v.2q-.4.4-.6.9v.2l-.2.2v.1c-.1.4-.8 1-.8 1.4q0-.2 0 0Z" class="cls-4"/><path d="M206.2 121.6c-.3-.2-.3.3-.1.1m-16.6-20.1c-.1.3.4.1.1 0zm9.3-.5-.3.1h.2v-.1m-1.5-8.2q.2 0 .1-.2-.2 0-.1.2m-.6-.3.2-.1q-.2-.1-.2 0m7.8 30.4q0 .2-.2.2v-.2zm2-2.6-.1.3-.1-.2q0-.2.2-.1m-7.6-13.6h.2l-.2.1zm-6.6-3.6q.3 0 .1.2zm-1.5 3.4q-.3 0 0-.2.1.1 0 .2m3-1.1-.1.2zm3.8-2.2-.3.2v-.2zm-1.7-11.7q.2 0 .2.2h-.1zm-8.1-.7h.7v-.3q.1.2.4 0l.2-.2q.3 0 .3.2s-.4.1-.3.2q.1.2.3 0c0-.2.6-.2.6 0v-.2q.4 0 .4-.2c0 .2.8.2 1 .2l.9-.2q-.2 0-.2.2h.1q.1.4.3.1l.1-.1h.2l.1.2h.4q.3 0 .1-.3.3.2.4.5h.1l.1-.2.3.4v-.3l.3.3c.2.4 0-.2 0-.2.1 0 .3.4.4.2 0 .2.6.5.8.6h.4l.2.3h.3s-.4.2-.1.2h.3l.2.1v.3h.5c.4 0 .1.4 0 .5h.6v.3l.3.2h.4c0 .2-.3.2 0 .4q.3.2 0 .3h.2l.3.2h.2l.2.1q-.2 0 0 .2l.2.3h-.4l.6.3c.2.1-.2 0-.2 0l.2.2v.2q0 .5.3.3l-.1.1v.2c.2.2.4 0 .5.4l-.3.1q0 .2.2.3-.2 0-.2.2.2-.1.2.1l-.2.3v.8q0 .2.1 0 0 .3-.3.3l-.1.3-.2.6v.4l-.2-.3v.7q-.3 0-.4.2l-.1.3v.2l-.6.4-.2.3-.3.3-.3.2-.2.2-.5.4-.3.4v-.1l-.2.2v.2h-.4q-.2.3-.4.2v.2h-.3l-.3.2v.1l-.5.1q-.2.3-.5.2-.1 0 0 .2h-.4c-.2 0-.6.5-.7.3v.3h-.6v-.2l-.4.2-.6.1c-.2 0 0 .4-.3.3h-.4q-.1.2-.3.1-.2-.2-.4.1-.2.2-.5 0-.2 0 0 .3c.1.3-.4-.2-.5-.1v.1h-.1l-.2-.2h-1.3c-.2.2 0-.1 0-.1-.2 0-.2.3-.4 0h-.2s-1 0-.9-.1h-.4l-.2-.2v-.3h-.5l.2-.2-.4-.1q0 .1-.1 0v-.1l.2-.2h-.2l-.2-.2v-.1l-.2-.1v-.3h-.2v-.3q.1.4.2.1l-.2-.4.2-.4v-.6q.2-.1 0-.2-.2-.3 0-.2.5 0 .8-.2.2 0 .3-.2l.4-.2q-.3.1 0 .1h.7q.3 0 .5-.2v.2q0 .1.1 0h.7l.2.1h.5v.1h.5v.1h.5q0 .2.2.3l.3.2.1-.1h.5c-.1.3.5.3.6.3l.2.2.3.1.7.4h.5v.1l.3.2h.3v.2c.2.2.4-.1.5 0 .2 0-.1.1 0 .2l.8.2s.5.2.2.2q-.4 0 0 0 0 .2.3.2v-.2s.2.5.3.4l.1-.2h.2q-.1.2.1.3.2.2.4 0l.2.2-.1.1.2.3q.3-.2.4.1c-.1.3.2 0 .4.2l.2.3h.3v.2l.2.1.3.2h.3v.1h.1q.2 0 .2.2h.4l-.2.3.5.2.1.2 1.1 1v.2l.2.1.7.5.8.7.3.1.2.2q0 .3.4.5l.3.2.2-.2v.4q-.2 0 0 .3l.5.5v.2l.2.1.3.6q.1.2.4.2.1 0 0 .2-.1.1.2.2v.3l.2.5s.4.5.2.6l.2.3.5 1.3q0 .4.2.3l-.2.1v1.6l.4.2s-.2.3-.3.1q-.1-.2-.3.1v.5q-.2.2-.5.2.2.2 0 .4l-.2.4v.2h-.2l-.1.4-.3.3q-.1.1 0 .2l-.1.3q-.1-.3-.3 0l-1 .7-.3.3q.1.1-.2.2h-.3l-.5.4-.2.2-.1.2h-.6l-.6.4v.2c-.2.3.6.2.4 0l.7-.2h.1l.3-.3 1.3-.9c.3-.1 1-.5.8-.7v-.3l.2.1.4.3v-.1l.1-.2.4-.2c-.2-.1.1-.3 0-.4q-.1-.2.1-.3h.3l.1-.2.1-.2h.1c.2 0 .1-.5.3-.7v-.4h.2v-.3h.2v-.5l.1-.4q0-.1 0 0v-1.9q-.3 0-.2-.3v-.3l-.2-.3h.2l-.2-.3-.1-.4v-.4l-.3-.4-.2-.2v-.5h-.3q.2-.3-.2-.6l-.2-.2h.1l-.1-.2-.2-.4-.2-.2-.4-.4-.4-.4-.4-.5v-.2l-.3-.2-.3-.3-.2-.2c0-.1-.2-.5-.4-.3.2-.2-.5-.8-.7-.8s0-.5-.4-.4l-.3-.1-.3-.3-.1-.2-.4-.5q0 .3-.2.4-.1 0 0-.2l-.2-.2-.1-.3h-.2l-.3-.4-.8-.4-.1.1q-.2-.1 0-.2h-.2v-.3h-.4l-.1-.2-.1.1h-.1v-.3l-.2-.2h-.2l-.4-.3q-.3 0-.1.2l-.4-.4-.2-.3h-.3l-.2-.1-.6-.2q-.3 0-.3-.2l-.4-.2.1.2-.2-.1-.2-.3-.4-.1s-.1-.4-.2-.3q0 .2-.3 0l-.2-.2-.4-.2q0 .2-.2.2v-.2h-.4q-.1-.3-.5-.4l-.1.3-.2-.2-.2-.2-.5-.3h-.2l-.1-.1h-.6q-.3-.1-.5-.4v.2l-.2-.2h-.7l-.2-.1-.6-.1h-.3l-.2-.1-.6.2-.4-.2h-.7v.1h-.6q.2.2-.1.3l-.4.2h-.2l-.2.4v.4q-.2.2-.2.6v.3l.1.1h-.3l.2.3q.2 0 .3.2h-.3l.2.3v.5l.3.2v.3l.5.4.2.2h.2q-.2.2 0 .3l.4.2h.4q0-.1 0 0l.4.2.8.2h.5q.2 0 .3-.2.1.2.4.2c0-.1-.4-.3-.3-.4l.3.2.3.3q.1-.2.4-.2t.2.1l.2.1v-.3l.3.2q.2-.2.5-.2h.7l.4-.2q.2-.1.4 0l.3-.1h.5c.2 0-.1-.5.2-.3q.2.1.4-.1t.4-.1q.2-.2.6-.2l.2-.3q.2.3.4-.1l.4-.1q.4-.1.5-.4 0 .2.2.1l.2-.2h.1l.1-.2q.4 0 .4-.3l.2.1.1-.2.2.1.2-.2q.3-.2.1-.4h.3v-.2q0 .2.3.2v-.3q.1-.3.5-.4s.4-.3.3-.4l-.2-.3.3.2h.4l-.2-.3c.1.1.6-.4.7-.5h-.2c.1-.2.4 0 .5-.4v-.3q0 .2.2.2l.2-.5.3-.4q0-.5-.1-.2l.1-.4q.2 0 .2-.2v-.1l-.1-.2q0 .2 0 0-.2 0 0-.2c0-.2.1.2.2 0 0-.1 0-.7-.1-.5h-.2V98h.4v-.3l-.2-.1.2-.4-.4-.2h.3q.2-.3 0-.6 0 .1-.1 0l-.1-.2v-.4q-.2 0-.3-.2.2 0 0-.3l-.3-.2h.1l-.2-.3q0-.2-.2-.3l-.2-.2-.1-.3-.4-.2-.1-.5h-.4q-.2-.2.1-.4h-.4q-.2 0 0-.2c-.2.2-.4-.3-.5-.1l-.2-.4h-.2l-.4-.2s0-.5-.3-.4c0 0 0 .4-.1.2q0-.2-.3-.2h-.1l.2-.2h-.3v-.1l-.2-.1-.3-.1q0-.3-.3-.2l-.3-.1q-.4-.5-1-.4c.2-.5-.4 0-.5-.1q0-.2-.3-.2l-.4.2q.1-.1-.2-.2l-.2.1V90h-1.2q0-.3-.5-.2l-.2.2h-1.4l-.4.1-.3.1-.2.1q-.2.2-.4.1h-.4c-.3 0 0 .1-.1.2l-.2-.1c-.2 0 .3.3.4.2Zm-6.9 3.7q.3 0 .2-.3l-.1.1zm-1.2 2.1.3-.4q.2-.1.1-.3.2-.2.1-.4.4.1.7-.2l.2-.2h.3l-.2-.1q.3 0 .4-.2l.1-.4v-.1l.3-.1.4-.3q0-.3.3-.4h.3c.1-.2-.3-.1 0-.3s.1.3.4.1v-.2l.5-.3q.7-.2 1.2-.6l.1-.2q.2-.2.2 0l.4-.3q0-.2.2 0v-.4l.2.2.2-.1c.1 0 .5-.4.5-.2s.3 0 .4-.1c.2-.2.3.3.5 0l-.6-.3h-.6l-.5.2q0 .2-.2.2c-.2 0-.4.4-.6.2q0 .2-.5.3v.2h-.2q-.2-.2-.4.2l-.6.3v.1l-.4.2h-.2v.3l-.5.2-.4.2-.3.4v.3l-.2-.2-.3.2v.2l-.3.2c-.2.2-.3 0-.5.4l-.2.3v.3h-.3v.3c0-.3-.3.1-.3.2h-.3q0 .5.4.3h-.2q0 .5.1.3m1-2.9q-.3.1 0 .3zm4.7-12.7q-.2.3 0 .1zm-6.9 16.7q.3-.1.2 0zm.8-.8v.2q-.4.1-.2-.2zM182 91l-.2-.1zm1.3-3.2h-.2q.2-.2.2 0m.6-1.4q-.1.2-.2 0 .3-.4.2 0m-2.3-17s.3.5.5.4l.3-.3.2-.3.6-.3.3-.3.4.2v-.2l.3.2s.2-.5.3-.3v.3l.3.1q0-.2.3 0v.2q0 .3.2.2-.2.2.1.3l.2.4.2.3q-.1-.5.1 0l.1.7c.2 0 .1-.6 0-.8l.2.5v.4l-.2.1.2.7-.1.5.3.3v.2h.1-.3v.5q0 .3.2.5v.3l-.1.1v1.8q-.2.4 0 .6-.2.1-.3.5v.4h-.1v1.1h-.4q.1.4.4.4l-.3.3.1.1v.5l-.1.1-.1.3q-.2 0-.1.3v.5l-.3.3-.1.4-.2.3q.1.2.4 0l-.1.1-.1.3c0 .3-.1.1-.3.2v1q0-.2-.3 0l-.2.6.1-.1v.3l.1-.2v.4h-.2l-.2.6h.2q0 .4-.3.5v-.3l-.2.5h-.3l.2.3v.6l-.3-.2v.5l-.2.3-.2.9v.2l-.3.1-.3.8v.2h-.2l.1.2v.2l.2.3h-.4l.1-.2q0 .3-.3.5l-.2.7h.2l-.2.2v.4s-.7.3-.5.4v-.1l.2.1v.3c-.2.1-.3-.2-.4 0l-.1.3v.3q0 .2-.2.1l-.1.6h-.3l-.1.4.3-.2-.2.4-.2.2v.1l-.1-.1q-.1.1 0 .2l-.1.2h-.2v.7h-.2l-.2.4q.1 0 0 .1v.2s0-.4-.2-.2l-.1.3-.2.5v.1l-.2.2-.1.3h-.3v.3h-.1l-.2.1.2.1h.2l-.1.2-.3.1-.2.2v.1l.1.1V99l.1-.2.4-.7h.2l.2-.3.2-.2v-.4l.3-.3v-.5l-.1.1-.2.2q-.3 0-.5.4l.1.3q0 .2-.3.2-.2.2 0 .2l-.1.2q-.2-.2-.3 0t0 .4l-.2.1v.4l.4.3.1-.1v.3l-.7-.6.8.6.2-.6q0-.2.2-.3t.2-.2l.1-.2h.1v-.2q-.2 0-.1-.1l.2-.1.2-.4.1-.2h.1v-.3l.3-.2.2-.6q0-.3.1-.1l.1-.1.2-.4v-.2q.3-.1.3-.4v-.3q.2 0 .3-.3l.5-1.1v-.2l.2-.1.2-.3v-.3l.1-.3.3-.3.1-.3-.1-.1v-.3h.1l.1-.1h.1l.1-.3V90q0-.3.3-.1v-.3h-.1l.2-.1V89q0-.1 0 0 .1.3.2 0v-.3c.2 0 .3-1 .5-1l.1-.5.2-.4.1-.6.2-.4v-.3q0-.3.3-.1c-.2 0 .3-1.3.4-1.5l.2-.5v-.7l.1-.2v-.3l.2.1-.1-.5.2-.1.2-.3-.2-.2.1-.4v-.2l.2-.4V80l.2-.2-.2-.1.2-.2v-.6l.3-.3v-.4l.1-.4v-1.2l.1.1v-.2q-.1-.3.1-.4c.2 0-.3-.3 0-.3v-.5l.1-.1V75l.1-.3v-1.8q-.2 0-.2-.2l.2-.3q-.2-.2-.2-.5v-.7l-.2-.4v-.3l-.2-.2V70c-.3.2 0-.2-.1-.4l-.4-.2-.1-.3-.4-.4-.5-.4h-.3l-.6-.2h-.6q0 .2-.2.3h-.2l-.8.5zq0-.2 0 0M155 108c.2.3.2-.1 0 0m-18.8 2.5c0 .3.3 0 .1 0m-2-.2.2-.1zm-9.8-9.8-.1.2v-.2Zm4.1-5.5q.1 0 0-.1m.4-.3v.2q.1-.1 0-.2m27.3 12.7.1.2zm-1.6 1.4.1-.2v.2zm-11.3 2.4h.2zm-5.1 0q.2 0 .1.2zm-10.8-4.6-.1.2zm-1.4-1.5h.2zm-.9-3v.3zm10-10h-.5v.3h-.3v.2h-.3l.2-.4q-.2-.1-.2.1-.2.3-.5.1v.4c-.1-.2-.7 0-.8.1l-.4.5v-.2h-.1q-.2-.1-.2 0v.2h-.2l-.3.1q-.1.2.1.3l-.4-.1q-.2 0 0 0v.2h-.3v.1h-.2c-.4-.2.1.1.1.1h-.3l-.6.2-.3.3h-.2v.2s0-.4-.2-.2v.2l-.2.2q0-.2-.2-.2v.4c-.2.3-.4-.1-.5-.3v.5l-.3-.1-.1.2-.1.2q0-.2-.3-.1-.1.1-.2 0v.1l-.2.2v.3h-.4v-.2q-.2 0-.2.4c0 .4-.1-.1-.1-.1q-.1.3-.2.1h-.2l.1.2v.1l-.2-.1v.1l.2.5-.3-.1v.2h-.2c0 .1.4.1.2.2l-.3.1v.2l-.2.4q.1.2.2 0 0 .3-.3.2v.2l-.1.5v.3l-.2-.2.2.5-.2.2v.2l.1.2-.2.5v.2l.1.3v.9l.3.4h-.2.1l.2.2h-.1v.3q.2.1 0 .2h.2v.5l.1.3q.1.3 0 .4h.3v.3l.2.5.3-.1-.1.1v.3h.1l-.2.2.2.1.2.4c0 .2.3-.2.3 0l.1.4s.4 0 .2.1q0 .3.2.2t.2.3q.1.2.3-.1c.2-.3 0 .3 0 .2h.2v.3q.1.4.5.4l.2.1q.1.1 0 .2.1-.2.2 0h.1c.1.1.7.3.6.4l.3-.1.1.2v.3l.4-.2-.1.3h.3v-.1h.1v.4-.1h.5l.1.1h.3q-.3 0-.2.1h.3c0 .2.6.3.7.4l.2-.2q0-.1.1 0 0 .5.4.5h.6q-.2 0 0 0l.4.2.4-.1v.2h.5l.2.1h.7v.1h.4v.2l.3.1v-.1h.4q.2.2.5 0c.3-.1 0 .1.1.1l.3.1.5.1h.1q0-.3.2-.2v.2h.6l.3-.2v.3l.6-.2h.2q-.3 0 0 .2l.2-.1v-.2s.2.4.3.3v-.3h.1l.2.2q.2 0 .2-.2h.2v.2h.2c.1 0 .2-.3.3 0s.1 0 .2 0h.3v-.2q0 .2.2.2h.4l.2-.2v.2l.1-.1q.1-.1.2 0v-.1l.2-.1v.3l.3-.2.2.1h1l.2.1h.1l.6-.2.7-.2.2-.1h.6l.3-.1v-.3l.1.2h.8l.2-.1h.4q.3 0 .2-.3l.1.2.2-.2h.6q.2-.2.5 0l.2-.2.9-.4q.2 0 .2-.3v.2h.3q.3 0 .5-.2l.3-.2-.1-.4q.2 0 .2.2t.2.1l.2-.1v-.1l.4.1.2-.2.3-.2v-.2l.2.1.2-.2.2-.1v-.3l.1-.1q0 .2.3.1l.7-.6.1-.3v-.2q.1-.2.2 0h.1l.2-.4v-.4h.1l.2-.3v-.5l-.2-.1c-.2-.2-.5.3 0 .3l-.4.3v.3q0 .6-.6.9c-.1.1-.6.3-.4.6l.1.2-.2-.2-.3-.3v.1l-.1.1q-.2.2-.3 0v.4l-.1.2-.2-.2q-.2 0-.2.2h-.1c-.2-.1-.2.3-.4.2l-.1.3-.2-.1v.2l-.2-.2q0 .2-.2.2h-.2v.1l-.2.1v.1h-.4l-.2.2q0 .2-.1 0-.3 0-.2.1 0 .3-.2.2 0-.1-.2 0l-.2.2v-.2l-.1.1h-.5l-.3.2h-.5v.2h-.5q0 .1-.2 0h-.4l-.1.2h-.4q0 .2-.3.2H147q0 .2-.1.1-.3-.1-.4.1c0-.2-.6 0-.7 0-.1.2-.3-.2-.4 0q0 .3-.2.1l-.2.1v-.1h-.6q.2 0 0 .4v-.3h-.5l-.3-.1-.6.1v.2l-.1-.2-.1.1-.1-.1-.2.1q-.1-.2-.2 0l-.2-.2h-.2v.1h-.4q-.2 0 0 .2l-.3-.1-.3-.1h-.3v.1h-.4q-.2.1-.2 0h-.3l.1.2h-.2q0-.2-.2-.2h-.2q-.1-.2-.2-.1 0 .2-.2.1l-.2-.1h-.3v.2l-.1-.3-.1.2h-.2l-.3-.2-.1.3-.1-.1-.2-.2-.3-.2-.2.1-.5.1c-.3.1-.2-.3-.3-.3v.1l-.2-.1h-.6l-.3-.1h-.2q0-.2-.2-.1-.1.1-.4 0l-.1-.2h-.2l-.2-.2v.1l-.3-.2s0 .3-.2.1l-.2-.1v-.2l-.5.1-.2-.2h-.2l-.1.1v-.3l-.1.2-.3.1.1-.2h-.2l-.2-.3-.2.1v-.1l-.4-.1-.1-.2-.2.1q.1-.2 0-.2l-.4-.2-.1.2-.1-.3-.5-.3h-.2q-.2-.2-.3 0l-.1-.4v.5l-.1-.3v-.4q0 .2-.3 0v-.4l-.2.3v-.3l-.3-.1c0-.1 0-.5-.3-.4l-.2-.2q-.2-.1 0-.2l-.2-.1v-.2l-.1-.2s-.4.3-.2 0q0-.3-.2-.3t0-.2q-.2-.1-.2-.4c-.1.1-.5-.1-.2-.1q.2-.2 0-.3l-.2-.2q0-.2-.2-.3.2 0 .2-.2-.1 0 0-.1h-.2v-.2q.1-.2-.2-.2.3 0 .2-.1l-.1-.2h.1v-.2q0-.2-.3-.2l.1-.1h-.2l.4-.2-.2-.1q-.2-.2-.1-.4v-.3h-.4.3l.1-.2.2-.1h-.3l.2-.5h-.2c0-.1.4-.1.2-.3q-.2-.1 0-.2h.2v-.6q0-.2-.1 0v-.3l.2-.1v-.1l-.2-.1v-.2q.1.2.2 0v-.3h-.3v-.2l.5.1v-.2l-.2-.1.3-.2-.3-.2h.3l.2-.2h-.1v-.2h.2q-.2-.1 0-.2v.1-.3h.1v.1l.2-.2h.2l.1-.2h.3l.2-.2h.3v-.3q.3 0 .3.3c0-.3.2 0 .2 0l.2-.3h.3v-.1q.2 0 .2-.3s.4.3.4.1c0 0-.3-.3 0-.2V95q.2 0 .2.3v-.1l.1-.2v.2l.2-.1V95h.2l.2-.1.1-.2q.5 0 .7-.2c.2.5.1-.3.3-.3q.1.2.2 0V94l.3.1v-.2l.2.3.2-.2.2-.2h.6l.1-.3h.3l.3-.1c-.2-.2.2-.2.3-.2h.2V93h.1l.2-.1.2-.1h.3v-.2l.2.1zm5-1q0-.2 0 0m1.6-.5h-.6l-.2.2q-.1-.3-.4-.3h-.2q0-.2-.2-.2v.1h-.2q-.2 0-.2.2h-.6l-.3.2-.2-.1c-.1.1.2.2 0 .3s0-.4-.3-.3v.2h-.5l-.9.2v.2q-.2.2-.2 0l-.3.1q0 .3-.1 0v.4l-.1-.2h-.2c0 .1-.4.4-.4.2s-.2 0-.2.1c-.2.1-.3-.3-.4-.1l.5.4h.4l.3-.1q0-.2.2-.1c.1 0 .3-.4.3-.1q.1-.3.4-.2v-.2h.2c0 .3.2 0 .3 0h.4v-.2h.3q0 .2.2 0v-.1h.7l.2-.1.2-.2v.2h.2l.1-.2h.2q.2.2.4.1h.2l.2-.2v.2l.2-.2q-.1.2.2.2v.2q.2-.2.1-.4h.1q.3 0 .2-.1Zm-5-2.4q0 .3.2 0zm-4.5-7c-.3 0 0 .2 0 .1zm9.3 9.2v.2zm-2.6-1.1q.1-.2.2 0 0 .3-.2.1zm-4-2.2-.1.2zm-2.4-2.3q0 .2-.1.1-.2-.2.1 0m10.2-5c.1 0 .2-.7 0-.8h-.3q0 .3-.2.2h-.5l-.3.1-.3-.3v.2l-.2-.1s0 .4-.2.3l-.1-.2h-.2l-.2.2v-.2h-.3q0-.2-.2 0h-.6q.4.2 0 .2h-.5c0 .2.5.2.6.2h-.6l-.1-.3-.5.2-.4-.2-.1.3h-.2v.1-.2h-.3q-.2 0-.3.2h-.3l-.3.1-.3.1h-.7q-.3 0-.3.3h-.4l-.2.2-.2-.2h-.1l-.2.2v.2q0-.2-.3 0 0-.2-.2-.2v.5l-.2-.1v.1l-.2.1v.2h-.2q0 .1-.2 0l-.2.1v.2l-.2.2h-.2l-.2.3-.2.2h.3v.1l-.1.2-.2.1v.1l.1.2.1.2v.1l-.2.1.1.5v-.2l.2.2v-.1q.3 0 .2.2h-.2l.2.5.3-.2v.4l-.2-.1.2.3-.2.2h.6l.1.1-.2.2.1.2h.2l.2.1q.2.4.5.4h.1v.3q0 .3.4.4h.2v.1h.5v.2l-.2-.1.3.3.4.3.1-.3v.3l.4-.1s0 .8.2.5h-.1v-.1h.3v.3l.1.2h.3v.1h.4v.3l.2.1v-.3l.2.2.1.1v.2h.3v.2h.4v.1l.3.1h.1l-.1.2.3.1q0 .2.3.1h.1l.1.1h.3v.3h.2v.2l.1-.2v-.1h.2v.3l.2.1h.3l.5.2v.1l.2.2h.4q.2 0 .3.2h-.1q-.3 0-.4.2v.1l.7-.7-.4-.3-.2.2-.1-.2q-.2-.1-.2 0h-.1v-.3h-.8q0-.3.3-.2l-.5-.1-.2-.1-.1-.1-.1-.1v-.1l-.2.1q0 .1-.1 0v-.1l-.3-.1-.1-.1v-.1h-.3v-.1l-.5-.2h-.1v-.2l-.3-.1h-.2q.1-.2-.2-.3t-.2 0l-.1-.2-.5-.3-.3-.1h-.1v-.2l-.2-.2h-.4l-.1-.3-.2-.2-.2.2-.1-.2-.2-.2h-.4q-.1 0 0-.2h-.2v-.1h-.3l.1-.1q.1-.1 0-.2h-.3c.2-.2-.5-.4-.3-.6q0-.2-.3-.2l-.2-.2-.4-.3v-.2l-.2-.1v-.2s-.4-.7-.3-.8v-.3l-.1-.2-.2-.1h.2v-.2h.1v-.2h.1l.2-.1V82l.1-.2h.3l.1-.2h.2q-.1 0 0-.2h.1q.2 0 .3-.2l.3.1.1-.1q.1-.2.4-.1l.1-.1.3-.1q.2 0 .2-.3v.2h.1q.2-.3.3 0c.1 0 .2-.4.2-.2l.3-.1.1.1h.3l.2-.1h.6l.2-.2.1.2.1-.2.1-.1.2.1q.2-.2.3 0l.5-.1h.5v-.1h.3c0-.3.2.1.3 0l.2-.1h1q.3.2.7 0h.3c.3-.1.7.2 1 0Zm-19.2-25.7c0-.3 0 0 0 0m2.3.7c.1-.3 0 0 0 0m3.2 0v.2zm0 0v.1zm-5.3-1v-.2zm2 .5V54zm1.4.7v-.2zm.3-.2v.2zm2.3.7-.1.1zV55q0 .2 0 0zl-.1-.2-.2.3.1-.2q0-.3 0 0h-.1v.2-.3l-.1.2V55v.2-.2.2q0-.2 0 0l-.1-.2-.1.1v-.2.2-.2l-.2.3.1-.5-.1.4v-.2.2-.3l-.1.1v.2h-.1V55v.2-.1q0 .2 0 0l-.1.1V55s0 .4-.1.3V55v.3-.3.2-.3h-.1l-.1.2v-.3.2-.1h-.1q0 .1 0 0h-.3v.2-.2l-.1.1v-.1h-.1v-.1l-.1.1v-.1l-.1.3v-.4l-.1.1v-.1q0 .1 0 0t-.1 0l-.1.3v-.2.1-.2q0-.1-.1 0v-.2.1q-.1.1-.2 0v.3-.4l-.1.3v-.3.3-.4.1l-.1.2q0-.2 0 0v-.2.2q0-.3-.1-.2l-.1.2q0 .3 0 0v-.3l-.1.2v-.2l-.1.2v-.2.1h-.2v-.2.1h-.1q0-.1 0 0v-.1l-.1-.2v.2l-.1.1v-.2l-.1.2V54l-.1.2V54v.3-.2l-.1.2v.1-.3.2h-.1v-.2s0 .3 0 0l-.1.1V54l-.1.2v-.1q0 .2 0 0v.1h-.1V54v.1l-.1-.2h-.2v.1h-.2v-.2h-.1q0 .2 0 0l-.1.2v-.2.1-.1l-.1-.1-.2.1v.2-.3h-.2v.5-.5.1-.3q0 .2 0 0l-.1.1v.1-.1h-.1v.2h-.1v-.2h-.1v.1-.1h-.1v.1-.2h-.2v.2c0 .2 0 .5 0 0v.3h.2q0 .2.1-.1l.1-.2v.2l-.2.5v-.1h.1v-.1l.1-.1v.2h.1v-.2.2l.1-.2v.3-.2.1l.1-.1q0-.2.1 0 0 .2 0 0l.1-.1v.2-.1.1h.1l.1-.1q0 .3 0 0v.2q0 .1.1 0h.2q0 .2.1 0 0 .3.1 0v.2-.2h.1v.2l.1-.4v.4h.1v-.2.3l.1-.2v.2-.2.3-.1h.1v-.2.2h.1v-.1h.1v-.2h.1v.2q0 .1 0 0 0-.2.1 0v.1-.2.2l.1-.2v.2l.1-.3v.4-.1l.1-.2v.3-.1.1h.2v-.2.2l.1-.2v.4l.1-.2v.3l.1-.3v.1l.1-.1v.3-.2l.1-.2v.3-.2.1h.1v.2-.1l.1-.2v.2h.1l.1-.2v.2-.4.5-.2.3l.1-.3v.3-.2.1h.1v.1c0 .1.2-.4.1-.1q0 .1 0 0 .1-.1 0 .1h.1s.1-.3 0 0q0 .2.1 0h.1v.1l.1-.2v.2-.2.2l.1-.2v.4-.2q0-.2 0 0h.1l.1-.4v.5-.3.2-.1.1q0-.1 0 0v.2-.1h.1v-.1h.1v.1-.2h.1v.2-.4h.1l-.1.4v-.2.2l.2-.3-.1.3v.1-.1.1l.1-.1v.1l.1-.2v.2-.1h.1v.2-.2.3-.2.1l.1-.2v.2-.1l.1-.1v.2-.3q0 .2 0 0h.1v.3-.1q0 .3 0 0h.1v.1c0 .5.1-.2.1 0q0 .1 0 0l.1-.2v.2-.2.3-.1h.1v.2-.1h.3v.1-.1.1zm.6.6q0-.2 0 0m.3-.6v.2l-.2.1v-.5.2-.1.2l-.1-.1v-.1l-.1.3v-.4.2l-.1-.2-.1.1q0 .1 0 0l-.1.3v-.3q0 .2 0 0 0-.1-.1 0V55v.6q0-.1 0 0h.1v-.1.1q0 .1 0 0l.1.1h.1v.1h.1v-.2.2l.1-.1v.1h.1v-.2.2-.2.3zm1.9.6q0-.1 0 0m-1.8-.2v-.2zm.4-.1v-.2zm.5.2v-.3zm.3.2.1-.2zm1.7.7.2-.6q0 .1 0 0h-.1l-.1.2V56v.1-.1.3-.2l-.1.2V56q0-.1 0 0h-.1v.1h-.1v.2-.3q0-.2 0 0l-.2.3v-.1.2-.3.1h-.3v-.1h-.1v.1q0-.2 0 0v-.3l-.1.4v-.2.1l-.1.1V56v.1-.2h-.1l-.1.3q0-.1 0 0V56v.1l-.1.1V56v.2q-.2.2-.1 0V56v.3-.6l-.1.3v.1-.3.1h-.2v.1-.2.1-.2.1h-.1l-.1.3v-.3q0-.2 0 0v.2-.1l-.1.2v-.4.2-.3l-.1.2v-.2.2-.2.2h-.1v-.2.1-.2l-.1.2v-.2l-.1.1q0 .3-.1.1v-.2.1-.1.2-.2l-.1.2h-.1v-.1q0-.1 0 0h-.1l-.1.4v.2-.3.1h.1v.2-.2h.2l-.1.2V56q.1 0 0 0 0 .2.1 0v.1-.2.2h.2q0-.2 0 0h.1q0 .2 0 0 0-.1 0 0v.1h.1l.1-.1v.2-.1.1h.1v-.2.2l.2-.1v.1-.2.2-.2.3-.2c0 .3.2 0 .1.2q0 .1 0 0h.1v-.1h.1v.2h.2l.1-.2v.2-.1.2-.2.2l.1-.2v.1h.1v-.1q0 .1.1 0v.2-.1h.1l.2-.2v.2c0 .2 0-.2 0 0q0 .1 0 0v.1h.1v.1l.1-.1v.2-.3.2q0-.1.1 0h.1c.2-.2 0 .2 0 .1l.2-.2v.1zs0 .3.1 0Zm-18-11.9c-.3-.1 0 0 0 0m.9-1.7c-.4-.1 0 0 0 0m.1-2.4h.2zm-1.4 4.1h-.2zm-.1-.3h-.2zm.6-1v.1h-.1m.2-.5h-.2zm1.5-2.8h-.2zh-.1zh-.2q-.1-.1 0 0 .2 0 0 0h.1l.1.1h-.2l.2.2-.2-.2q-.2 0 0 0v.1l.2.1h-.3.2-.2c-.3-.1.2 0 .2 0q-.2 0 0 0h-.2v.1l.1.1-.2-.1h.1l.1.1h-.2.3q0 .2-.5-.1l.4.2-.2-.1.2.2-.2-.1h-.2.2l.2.1h-.3.2-.1q-.1 0 0 .1h-.1l.3.1h-.2l-.2-.1s.4.1.2 0h-.2l.1.1h-.2l.1.1-.3-.1.3.1h-.2.1-.1v.2l.1.1h-.1.2-.2.1-.1v.1h-.1l.2.1h-.2l.2.2-.1-.1-.3-.1h.1c-.1 0 .3.2.1.2h-.1q.2 0 0 0 .1 0 0 0t.2.2h-.1l-.2-.1q.1.2-.1 0c-.2-.2.3.2 0 0v.1q.3.2.1 0l.2.2h-.1l-.2-.1.2.1-.3-.1h.2l.1.1-.3-.1.1.1h.1v.1h-.1l.2.1q.1.1 0 0h-.4.1l.1.1h-.1l.1.1-.2-.1h.1v.2h-.2.1q-.1 0 0 0h-.3l.2.1.1.1h-.2.2-.3l.2.1h-.2.3-.2l.1.1h.2-.3.2-.2q.2.1 0 0c-.3 0 0 .1 0 .1h-.1l.2.2-.2-.1h.1l.1.1h-.4v.2h.1v.1l.3.1h-.4v.1c.3.1 0 0 0 0q-.1 0 0 0h-.1v.2l.2.1h-.3l.4.2h-.2l-.2-.2v.1l-.2-.1.1.1q-.2 0 .1.2h-.2.1-.1v.1l.1.1h-.2l.2.1c.1 0 .4.2 0 0h.3q.2 0-.1-.2l-.2-.1h.2l.4.3-.1-.2h-.1.2q-.1 0 0 0l-.1-.1h.1-.2.3-.1v-.1q-.2 0 0 0-.3-.2 0-.1l-.1-.1h.2l-.1-.1q.3 0 0 0h.2v-.2q.2 0 0 0 .3 0 0-.1s.4.1.2 0h-.1.2l-.4-.1h.4-.1.1l-.2-.1h.2-.1.1-.1.1-.1.2l-.2-.1h.2-.2v-.1q.1 0 0 0v-.1h.2-.1.1l-.2-.1h.2-.1.1l-.3-.2h.2l.2.1-.2-.1h.3-.2.2-.1v-.1h-.1.1l-.1-.1h.4s-.4-.1-.2 0h.2l-.2-.1V43h.2-.2l-.2-.1.3.1h-.1.1l-.1-.1h.2l-.2-.2h.2l-.2-.1h.2-.4.2l.3.1-.2-.1h.2-.2.2q-.1 0 0 0v-.1q-.2 0 0 0h.1s-.4-.2-.1-.1q.2 0 0 0h.1s-.3-.2 0-.1V42h.1-.2.2l-.1-.1h.1-.2.4-.2q0-.2 0 0v-.1l-.4-.2.3.1h.1l.2.1-.3-.1h.2-.2.2q-.2 0 0 0h.1l-.1-.1h.1-.2v-.1h.2-.2l-.2-.1.4.1-.2-.1h.2-.3.4-.1.1l-.2-.1h.1v-.1h.3-.2q-.1-.2 0 0v-.1l-.1-.1h.2s-.4-.1-.2 0l-.1-.1.3.1h-.1q0-.1 0 0 .3 0 0 0v-.1c.1 0 .4.1.1 0 .5.2-.1-.1 0-.1h.1l-.3-.1h.2-.1l.3.1-.2-.1h.3-.2.1q-.1-.2 0-.1-.2-.1 0-.1h.1zm.1-.7.1.2-.2-.1h-.2.1l.1.1h-.2l.2.2-.3-.2.2.1h-.2l.1.1q0 .2 0 0l.2.2h-.2q-.2 0 0 0s-.4-.2-.2 0l.5.1h.1q-.1 0 0 0v-.1h-.1.1q.2 0 0 0h.1V40h.1-.2.2q.2 0 0 0l-.1-.1h.2-.2.2zm.7-1.4q-.1 0 0 0m-.4 1.4h-.2zm0-.3h-.2zm.2-.4-.2-.1zm.1-.2h-.1zm.1 0-.1-.1zm.9-1.1-.6-.3q.2 0 0 .1l.2.1h-.3.1-.1l.3.1h-.3.2-.2q-.1 0 0 0l.1.1h.2v.1h-.2l-.2-.1h.1-.2l.3.2h-.1.1l-.2-.1.1.1h-.1v.2h-.1.1q-.2 0 0 0h-.3l.4.2h-.2.2-.2.1-.2l.2.2h-.2.2-.2l.2.1q.1 0 0 0h-.2.2-.2l-.3-.1.3.2q.2 0 0 0l-.2-.1h.1v.2h-.2.1l.3.2-.3-.1q-.2 0 0 0l.2.1h-.2l.2.1-.3-.1h.1v.1l-.2-.1h.1-.1l.1.1h-.2.2v.1h-.2.1-.1.2-.1v.1h-.2.1l.1.1h-.2.1-.1.2-.1v.1h.1-.2l.1.1.4.3h.1l-.2-.2h.3-.2v-.1l.2.1h-.2q0-.1 0 0 .2 0 0 0h.1v-.2h-.2.2v-.1h.1l-.1-.1h.2l-.1-.1h.2-.1.1l-.2-.1h.2-.1.2-.2c.3 0 0-.1.2 0q.1 0 0 0v-.2h.2V39l-.2-.1h.2-.2.2l-.1-.1h.1-.1.1l-.1-.1q.1 0 0 0h.2-.1v-.1l-.2-.1h.2q-.2 0 0 0c.2 0-.2-.1 0 0v-.1h.2-.1.2-.1l-.2-.2.2.1q-.2 0 0 0h.1-.1.1c-.3-.2 0 0 0 0l-.1-.1v-.1h.2c-.1-.1.2 0 0-.1Zm-9.5 40.6c.3.1 0-.1 0 0m.4 4.3c.3-.2 0 0 0 0m4.6.8v.2zm-4.7-5.2h.2zm0 .5h.2zm.6 3.4.1-.2zm1.5 2V84zm.5 0q0-.1 0 0m3.7-.9h-.1l.1.2-.1-.1v.1q0-.2-.2-.3 0 .3-.1 0v.2l.1.1q-.2-.2-.2 0v.2-.2h-.1q0-.2 0 0v.1h-.1v.2l-.1-.2v.2-.1l-.1-.1.1.2-.1-.2c-.2-.2 0 .2 0 .2q0-.2 0 0-.1-.2-.2 0v.1l-.1-.2v.2l-.1-.2v.4l-.2-.5.1.5v-.3.3l-.2-.2v-.1.4h-.1v-.3.3l-.1-.2q0 .1 0 0v.1l-.1-.1v.3l-.1-.2q0-.1 0 0l-.1-.2v.3-.2h-.2v.2-.3h-.2v.2-.3.3l-.1-.2v.2l-.2-.2v.1h-.2l-.1.1V84v.2-.1h-.1V84v.1h-.1l-.1-.1v-.1l-.1.2v-.2h-.1l-.1.3v-.5.1l-.1-.1-.1.2v-.2q-.1.2-.1 0-.2.2 0 0l-.2.2v-.2.1-.2h-.1q-.1-.1 0-.2-.1.1 0 0h-.1q-.1.1-.1 0l-.2.2v-.2l.1-.1-.2.1.2-.2h-.1l-.1.2.2-.3-.1.1h-.2q0-.1 0 0V83l-.3.1q0 .1 0 0l.2-.3h-.3.2v-.1h-.3l.2-.1h-.2.1-.1v-.1h-.1l.1-.2h-.1q.2-.3 0-.2v-.2h-.3.2v-.1h-.2l.2-.1h-.2v-.1h.1-.2l.2-.1h-.4.3-.2l.2-.1c0-.1-.3 0 0-.1s-.2 0-.2 0l.1-.1h-.1.2v-.1h-.3.2l-.1-.1h-.1l.2-.1h-.2l.1-.1.1-.2v-.2l-.1-.1h-.1v-.2h-.3.3v-.2h.1q-.2 0 0-.1h-.2.2l-.1-.1h.1V79h-.2.2l.1-.2-.5-.2h.3l.2.1h.2v-.1l-.1-.1v-.1q.2 0 0-.1h-.1.2v-.2h.1v-.2h.2v-.2q-.3-.5-.1 0l-.3-.1-.1.3q-.3 0 0 .2l.1.1-.2-.1-.4-.2q0 .1 0 0l.1.2.1.1h-.2q-.2.1 0 .1v.2h-.2.1v.3q.1 0 0 0t0 .1h.1l-.1.1h.1-.1v.1l-.1.1q.2.1 0 .1l.1.1q-.2 0 0 .1h-.2q.1 0 0 .1h.1v.5h.1q-.2.1 0 .3h-.1.1v.1l-.1.2.4-.1h-.2v.1h-.2.1l-.1.2h.3-.2.1l-.1.1h.1v.1h-.2v.1h.1v.1h.2l-.1.2h.2v.1h.2l-.2.1v.1h.2l-.2.1h.3-.2.1v.2l.2-.1-.1.1-.1.2h.3l-.2.2h.1l.1.1h.1q-.2.2 0 .1h.1l-.1.2q.1.1 0 .2s.3-.3.2-.1q-.1 0 0 0l-.2.2.3-.1q.1 0 0 .1h.1l-.2.1h.2l.2-.2-.2.2h.2-.1v.1h.2l-.1.2h.1l.1-.2v.3h.1l.2-.2s-.1.4 0 .2v-.3.2l-.1.3.2-.2v.2l-.1.1.2-.3-.1.3v-.1q0 .1.2 0v.2h.1q0 .2 0 0c0 .1.2-.3.2 0q0 .1 0 0l.1.1s.2-.3.1 0q0 .2 0 0h.2v.1h.1l.1-.1v.2h.1v-.2.1l.1-.2v.4-.2q0-.2.2 0v-.4.6-.4q.1.3.2.2v-.2.2l.1-.1v.2h.1q.1-.1 0-.2h.1v.1h.1V84v.2l.1-.2v-.2.4h.1V84v.2-.3l.1.3.1.1v-.2.1l.1-.1v.1-.3.1l.1.1h.1V84h.2l.1.3V84v.1-.2l.2.2v-.3l.1.2q-.1-.2 0-.2v-.1.3-.1h.1q0-.1 0 0 .2.1.1 0v-.1s.3.3.2 0c.2.5 0-.2 0-.1l.1.1-.1-.3.1.2v-.2l.1.3v-.2h.2v.1-.1h.2q0-.2 0 0v-.2q0-.2.1 0h.1v-.1.1zm1.2-.3q-.1 0 0 .1Zm-.1-.7v.3q0-.2-.2-.1l-.2-.2.1.2v.1h-.1v.1l-.2-.1.2.2-.2-.2v.1h-.3l.1.2q0 .2-.1 0l.1.3V83h-.1q0 .2-.1 0v.1l-.2-.2.4.5h.1c.1 0 0-.3.2 0q-.1-.2 0-.2l-.1-.1h.1q0 .3 0 0h.3v.1h.1V83v.2h.1V83q.2.1.2 0l-.1-.2.1.2v-.2l.2.1-.3-.3zm2.3-2.2q-.1 0 0 .1zm-1.7 1.8q.1 0 0 0-.2-.1 0-.1zm.8-.6-.2-.2zm.3-.3-.1-.1zm2.4-2.2-.5-.4v.2h-.1l.1.2-.3-.2.2.1h-.2l.2.2-.2-.1.2.2-.2-.2q-.1 0 0 0h-.1v.2l-.1.1h.3v.1h-.2l-.2-.1v.1h-.2l.2.2-.1-.1v.2h-.1v.1h-.1v.2h-.1v.1h-.1v.1l-.3-.2.4.3h-.2l.1.1h-.2v.1h-.1q-.1 0 0 0h-.2l.3.2h-.2v.2l-.1-.2-.1.1v.1h.2v.1l-.2-.1.1.2h-.2v-.1l-.3-.2.3.3v.1l-.3-.2.1.1v.2h-.2v.1h-.2.1v.1l.2.2-.2-.2h-.1l.1.3v-.1.2l-.3-.2h.1v.2l-.2-.2v.1-.1.2l-.2-.1.2.2h-.1l-.2-.1v.1-.1.3l-.2-.2v.3l-.1-.1v.1q0-.1-.1 0h.1l.1.2-.1-.1h-.1v.2h-.1q0-.1 0 0v.1l.1.3h.2l-.1-.1h.2-.1v-.1l.2.2-.1-.2V82l.2.3v-.2h.1V82l-.2-.1h.3v-.2l.1.1v-.1h.2l-.1-.2q0 .2.1.1h.1v-.1h.2v-.2.1h.1l-.1-.2.1.1v-.2h.1-.1.1V81l.1.2-.1-.2c.2.2.1-.1.3 0v-.3h.1l.2.1q-.2-.2 0-.2h.2v-.1l-.2-.2.1.1h.1v-.1h.2-.2v-.2h.2l-.1-.1q.2 0 0 0h.3l-.1-.1v-.1q.1 0 0-.2l.1.1q0-.1.1 0c.1 0-.2-.3 0-.1v-.1h.3v-.2.1l-.1-.2.2.1q-.2-.2 0 0v-.2h.2-.1.1c-.2-.3 0 0 0 0V79l.1-.1h.2v-.1q.2-.1.1-.2Z" class="cls-4"/></g></symbol><style>.cls-1{fill:none}.cls-2{fill:#f4ab55}.cls-3{fill:#8f8d88}.cls-4{fill:#050000}</style></defs><use xlink:href="#Student_Sensory_Superhero" id="People" width="255.06" height="276.53" transform="translate(.15)scale(.66)"/></svg>